<?xml version="1.0" encoding="UTF-8" standalone="no"?>
<!DOCTYPE svg PUBLIC "-//W3C//DTD SVG 20010904//EN"
              "http://www.w3.org/TR/2001/REC-SVG-20010904/DTD/svg10.dtd">

<svg xmlns="http://www.w3.org/2000/svg"
     width="169.312mm" height="169.312mm"
     viewBox="0 0 512 512">
  <path id="Selection"
        fill="none" stroke="black" stroke-width="5"
        d="M 76.00,307.00
           C 76.00,307.00 76.00,179.00 76.00,179.00
             76.00,176.81 76.22,173.27 74.98,171.43
             73.60,169.39 70.20,168.63 68.00,167.66
             63.48,165.69 59.61,163.30 56.01,159.91
             46.19,150.66 42.16,139.31 42.00,126.00
             42.00,126.00 42.00,95.00 42.00,95.00
             42.00,74.13 40.64,55.31 60.00,41.62
             62.68,39.73 66.92,37.51 70.00,36.38
             75.76,34.28 78.98,34.01 85.00,34.00
             85.00,34.00 179.00,34.00 179.00,34.00
             181.21,34.00 184.71,34.22 186.58,32.98
             190.00,30.71 189.55,24.22 196.33,16.00
             205.13,5.33 215.18,0.02 229.00,0.00
             229.00,0.00 271.00,0.00 271.00,0.00
             282.71,0.00 289.93,-1.20 301.00,3.90
             307.23,6.77 314.13,13.33 317.90,19.00
             322.43,25.83 322.41,30.98 325.42,32.98
             327.29,34.22 330.79,34.00 333.00,34.00
             333.00,34.00 412.00,34.00 412.00,34.00
             412.00,34.00 428.00,34.00 428.00,34.00
             443.39,34.07 457.36,42.36 464.68,56.00
             470.44,66.73 470.00,77.27 470.00,89.00
             470.00,89.00 470.00,125.00 470.00,125.00
             469.93,138.82 466.25,150.24 455.99,159.91
             452.39,163.30 448.52,165.69 444.00,167.66
             441.80,168.63 438.40,169.39 437.02,171.43
             435.78,173.27 436.00,176.81 436.00,179.00
             436.00,179.00 436.00,307.00 436.00,307.00
             454.97,307.00 474.49,303.83 489.83,317.62
             500.33,327.05 503.98,339.28 504.00,353.00
             504.00,353.00 504.00,403.00 504.00,403.00
             504.00,420.98 505.00,435.89 490.71,449.56
             475.29,464.32 455.48,461.00 436.00,461.00
             436.00,468.57 435.31,478.97 432.54,486.00
             426.32,501.77 410.77,511.97 394.00,512.00
             394.00,512.00 118.00,512.00 118.00,512.00
             101.23,511.97 85.68,501.77 79.46,486.00
             76.69,478.97 76.00,468.57 76.00,461.00
             56.52,461.00 36.71,464.32 21.29,449.56
             7.00,435.89 8.00,420.98 8.00,403.00
             8.00,403.00 8.00,353.00 8.00,353.00
             8.02,339.28 11.67,327.05 22.17,317.62
             37.51,303.83 57.03,307.00 76.00,307.00 Z
           M 305.00,34.00
           C 300.38,23.65 293.57,18.14 282.00,18.00
             282.00,18.00 245.00,18.00 245.00,18.00
             227.91,18.00 215.35,15.30 207.00,34.00
             207.00,34.00 305.00,34.00 305.00,34.00 Z
           M 128.00,52.00
           C 128.00,52.00 88.00,52.00 88.00,52.00
             83.98,52.01 80.92,51.96 77.00,53.22
             59.86,58.76 60.00,75.40 60.00,90.00
             60.00,90.00 60.00,110.00 60.00,110.00
             60.00,120.11 58.61,133.40 64.65,142.00
             73.11,154.05 83.21,153.00 96.00,153.00
             96.00,153.00 128.00,153.00 128.00,153.00
             128.00,153.00 128.00,52.00 128.00,52.00 Z
           M 162.00,52.00
           C 162.00,52.00 146.00,52.00 146.00,52.00
             146.00,52.00 146.00,153.00 146.00,153.00
             146.00,153.00 162.00,153.00 162.00,153.00
             162.00,153.00 162.00,52.00 162.00,52.00 Z
           M 332.00,52.00
           C 332.00,52.00 180.00,52.00 180.00,52.00
             180.00,52.00 180.00,153.00 180.00,153.00
             180.00,153.00 332.00,153.00 332.00,153.00
             332.00,153.00 332.00,52.00 332.00,52.00 Z
           M 366.00,52.00
           C 366.00,52.00 350.00,52.00 350.00,52.00
             350.00,52.00 350.00,153.00 350.00,153.00
             350.00,153.00 366.00,153.00 366.00,153.00
             366.00,153.00 366.00,52.00 366.00,52.00 Z
           M 384.00,153.00
           C 384.00,153.00 416.00,153.00 416.00,153.00
             428.79,153.00 438.89,154.05 447.35,142.00
             453.39,133.40 452.00,120.11 452.00,110.00
             452.00,110.00 452.00,90.00 452.00,90.00
             452.00,75.40 452.14,58.76 435.00,53.22
             431.08,51.96 428.02,52.01 424.00,52.00
             424.00,52.00 384.00,52.00 384.00,52.00
             384.00,52.00 384.00,153.00 384.00,153.00 Z
           M 128.00,171.00
           C 128.00,171.00 94.00,171.00 94.00,171.00
             94.00,171.00 94.00,419.00 94.00,419.00
             94.00,419.00 94.00,435.00 94.00,435.00
             94.00,435.00 94.00,455.00 94.00,455.00
             94.00,470.00 93.78,486.93 111.00,492.89
             114.55,494.12 117.34,493.99 121.00,493.92
             121.00,493.92 348.00,493.92 348.00,493.92
             348.00,493.92 382.00,493.92 382.00,493.92
             382.00,493.92 398.00,493.92 398.00,493.92
             406.46,492.19 413.77,485.14 416.22,477.00
             417.62,472.32 417.99,466.86 418.00,462.00
             418.00,462.00 418.00,171.00 418.00,171.00
             418.00,171.00 384.00,171.00 384.00,171.00
             384.00,171.00 384.00,221.00 384.00,221.00
             388.38,221.01 393.22,220.84 396.94,223.56
             402.61,227.70 402.37,234.65 395.98,237.98
             393.24,239.41 387.23,239.00 384.00,239.00
             384.00,245.71 384.90,252.94 381.47,259.00
             372.49,274.85 352.02,278.63 339.47,264.83
             332.51,257.19 332.00,248.75 332.00,239.00
             328.48,239.00 323.15,239.44 320.11,237.69
             314.74,234.60 314.47,227.50 319.22,223.70
             322.79,220.85 327.70,221.01 332.00,221.00
             332.00,221.00 332.00,171.00 332.00,171.00
             332.00,171.00 180.00,171.00 180.00,171.00
             180.00,171.00 180.00,221.00 180.00,221.00
             184.30,221.01 189.21,220.85 192.78,223.70
             197.53,227.50 197.26,234.60 191.89,237.69
             188.85,239.44 183.52,239.00 180.00,239.00
             180.00,248.75 179.49,257.19 172.53,264.83
             159.98,278.63 139.51,274.85 130.53,259.00
             127.10,252.94 128.00,245.71 128.00,239.00
             124.76,239.00 118.77,239.41 116.02,237.98
             109.63,234.65 109.39,227.72 115.06,223.56
             118.76,220.84 123.64,221.01 128.00,221.00
             128.00,221.00 128.00,171.00 128.00,171.00 Z
           M 162.00,171.00
           C 162.00,171.00 146.00,171.00 146.00,171.00
             146.00,171.00 146.00,221.00 146.00,221.00
             146.00,221.00 162.00,221.00 162.00,221.00
             162.00,221.00 162.00,171.00 162.00,171.00 Z
           M 366.00,171.00
           C 366.00,171.00 350.00,171.00 350.00,171.00
             350.00,171.00 350.00,221.00 350.00,221.00
             350.00,221.00 366.00,221.00 366.00,221.00
             366.00,221.00 366.00,171.00 366.00,171.00 Z
           M 162.00,239.00
           C 162.00,239.00 146.00,239.00 146.00,239.00
             146.00,242.13 145.60,248.34 147.02,250.94
             149.73,255.90 156.73,256.11 159.91,251.66
             162.31,248.31 162.00,242.95 162.00,239.00 Z
           M 366.00,239.00
           C 366.00,239.00 350.00,239.00 350.00,239.00
             350.00,242.95 349.69,248.31 352.09,251.66
             355.27,256.11 362.27,255.90 364.98,250.94
             366.40,248.34 366.00,242.13 366.00,239.00 Z
           M 76.00,325.00
           C 76.00,325.00 53.00,325.00 53.00,325.00
             39.90,325.06 30.49,330.84 26.93,344.00
             25.54,349.12 26.00,358.39 26.00,364.00
             26.00,364.00 26.00,399.00 26.00,399.00
             26.00,410.44 24.20,423.03 31.10,432.96
             38.32,443.34 47.81,443.00 59.00,443.00
             59.00,443.00 76.00,443.00 76.00,443.00
             76.00,443.00 76.00,325.00 76.00,325.00 Z
           M 133.04,324.74
           C 138.51,323.39 148.95,324.00 155.00,324.00
             155.00,324.00 196.00,324.00 196.00,324.00
             196.00,324.00 327.00,324.00 327.00,324.00
             327.00,324.00 365.00,324.00 365.00,324.00
             369.16,324.00 377.51,323.27 380.77,325.74
             384.39,328.47 383.99,332.97 384.00,337.00
             384.00,337.00 384.00,445.00 384.00,445.00
             384.00,445.00 384.00,468.00 384.00,468.00
             383.94,470.92 383.95,473.38 381.69,475.57
             378.84,478.33 374.65,477.99 371.00,478.00
             371.00,478.00 184.00,478.00 184.00,478.00
             184.00,478.00 148.00,478.00 148.00,478.00
             144.09,478.00 135.23,478.56 132.06,476.83
             127.61,474.39 128.01,470.37 128.00,466.00
             128.00,466.00 128.00,360.00 128.00,360.00
             128.00,360.00 128.00,336.00 128.00,336.00
             128.03,330.37 127.79,327.80 133.04,324.74 Z
           M 436.00,443.00
           C 436.00,443.00 459.00,443.00 459.00,443.00
             472.10,442.94 481.51,437.16 485.07,424.00
             486.46,418.88 486.00,409.61 486.00,404.00
             486.00,404.00 486.00,369.00 486.00,369.00
             486.00,357.56 487.80,344.97 480.90,335.04
             473.68,324.66 464.19,325.00 453.00,325.00
             453.00,325.00 436.00,325.00 436.00,325.00
             436.00,325.00 436.00,443.00 436.00,443.00 Z
           M 366.00,342.00
           C 366.00,342.00 146.00,342.00 146.00,342.00
             152.30,375.45 171.70,399.91 206.00,407.34
             218.25,409.99 234.21,409.00 247.00,409.00
             247.00,405.10 246.52,400.41 248.74,397.04
             253.28,390.15 261.37,391.52 264.26,399.00
             265.23,401.51 265.00,406.21 265.00,409.00
             277.79,409.00 293.75,409.99 306.00,407.34
             340.30,399.91 359.70,375.45 366.00,342.00 Z
           M 147.00,389.00
           C 147.00,389.00 146.00,412.00 146.00,412.00
             146.00,412.00 146.00,460.00 146.00,460.00
             146.00,460.00 366.00,460.00 366.00,460.00
             366.00,460.00 366.00,412.00 366.00,412.00
             366.00,412.00 365.00,389.00 365.00,389.00
             349.78,411.71 319.25,426.96 292.00,427.00
             292.00,427.00 265.00,427.00 265.00,427.00
             265.00,431.19 265.48,436.21 262.99,439.81
             258.78,445.92 250.82,444.56 248.01,437.96
             246.71,434.93 247.00,430.32 247.00,427.00
             247.00,427.00 220.00,427.00 220.00,427.00
             192.75,426.96 162.22,411.71 147.00,389.00 Z" />
</svg>
