<?xml version="1.0" encoding="UTF-8" standalone="no"?>
<!DOCTYPE svg PUBLIC "-//W3C//DTD SVG 20010904//EN"
              "http://www.w3.org/TR/2001/REC-SVG-20010904/DTD/svg10.dtd">

<svg xmlns="http://www.w3.org/2000/svg"
     width="144.51mm" height="144.51mm"
     viewBox="0 0 512 512">
  <path id="Selection"
        fill="none" stroke="black" stroke-width="5"
        d="M 262.00,79.00
           C 255.71,63.20 254.60,49.33 263.34,34.00
             277.09,9.87 310.96,5.20 332.00,22.47
             352.35,39.17 353.29,72.87 333.91,90.70
             321.90,101.75 308.61,104.06 293.00,102.00
             293.00,102.00 348.00,150.84 348.00,150.84
             351.53,153.99 364.67,166.18 368.00,167.40
             369.95,168.12 372.90,168.00 375.00,168.00
             396.94,168.04 420.19,165.17 429.30,191.00
             431.16,196.27 431.02,198.57 431.00,204.00
             430.93,219.03 421.67,231.98 407.00,236.21
             401.53,237.79 393.71,238.06 388.00,238.00
             381.80,237.92 378.43,237.63 374.00,233.00
             374.00,233.00 378.26,263.00 378.26,263.00
             378.26,263.00 382.00,281.00 382.00,281.00
             382.00,281.00 392.00,280.04 392.00,280.04
             392.00,280.04 408.00,280.04 408.00,280.04
             433.81,280.04 461.75,293.13 480.00,311.01
             488.85,319.69 498.00,332.44 502.65,344.00
             505.09,350.06 504.28,357.57 497.00,359.57
             485.63,362.69 482.19,350.53 477.54,343.00
             475.61,339.87 471.10,333.79 468.70,331.00
             454.65,314.61 428.86,301.26 407.00,301.00
             407.00,301.00 399.00,301.00 399.00,301.00
             396.64,301.00 392.37,300.68 390.64,302.60
             389.13,304.39 390.06,307.00 390.64,309.00
             390.64,309.00 394.86,324.00 394.86,324.00
             394.86,324.00 407.85,370.00 407.85,370.00
             409.05,374.42 412.89,387.16 412.49,391.00
             411.58,399.65 400.12,402.99 394.42,396.77
             391.05,393.11 387.21,375.74 385.58,370.00
             385.58,370.00 378.85,346.00 378.85,346.00
             378.85,346.00 368.00,308.00 368.00,308.00
             358.58,312.06 349.36,317.84 342.00,325.01
             324.66,341.93 312.45,365.28 313.01,390.00
             313.01,390.00 314.58,403.00 314.58,403.00
             317.38,421.91 325.53,438.33 339.01,452.00
             346.93,460.01 356.67,466.86 367.00,471.41
             376.57,475.63 389.52,478.87 400.00,479.00
             426.87,479.31 448.38,469.07 466.99,450.00
             472.72,444.12 477.63,437.25 481.51,430.00
             484.65,424.14 486.74,417.56 495.00,418.23
             497.96,418.47 500.49,419.75 502.30,422.13
             507.44,428.90 502.14,437.71 498.69,444.00
             488.38,462.76 470.59,480.25 451.00,489.14
             421.60,502.47 402.95,500.00 372.00,500.00
             372.00,500.00 280.00,500.00 280.00,500.00
             276.56,499.99 273.05,500.27 270.06,498.26
             263.85,494.12 263.77,484.93 270.06,480.85
             273.27,478.77 277.34,479.01 281.00,479.00
             281.00,479.00 317.00,479.00 317.00,479.00
             323.23,479.00 331.11,479.67 337.00,478.00
             324.32,472.28 309.37,451.53 303.26,439.00
             301.25,434.88 296.53,419.78 293.73,418.02
             291.76,416.79 288.28,417.00 286.00,417.00
             286.00,417.00 240.00,417.00 240.00,417.00
             230.72,417.00 224.92,419.03 218.00,412.00
             215.72,420.57 213.41,428.90 209.69,437.00
             196.27,466.29 169.16,488.54 138.00,496.52
             119.05,501.38 99.39,500.00 80.00,500.00
             80.00,500.00 13.00,500.00 13.00,500.00
             4.96,499.89 -0.78,497.12 0.11,488.00
             0.97,479.21 9.11,479.01 16.00,479.00
             16.00,479.00 44.00,479.00 44.00,479.00
             29.44,465.62 18.86,456.49 10.31,438.00
             -12.41,388.89 1.94,328.36 48.00,298.08
             63.21,288.08 84.66,280.09 103.00,280.00
             103.00,280.00 115.00,280.00 115.00,280.00
             117.24,280.00 120.79,280.21 122.70,278.98
             125.94,276.88 128.16,263.16 129.00,259.00
             112.05,259.00 99.51,260.17 87.68,245.00
             79.03,233.90 79.93,225.10 80.00,212.00
             80.02,207.87 79.88,204.45 83.23,201.43
             87.88,197.23 96.17,198.10 102.00,198.00
             113.09,197.79 107.84,192.60 114.49,180.00
             118.14,173.09 123.54,168.46 129.00,163.00
             129.00,163.00 179.00,113.00 179.00,113.00
             185.67,106.33 201.36,89.87 208.00,85.21
             224.75,73.46 243.14,72.72 262.00,79.00 Z
           M 299.00,33.30
           C 293.49,34.38 289.24,36.12 285.18,40.18
             270.29,55.10 280.26,80.10 301.00,81.81
             327.10,83.97 337.83,45.91 312.00,34.95
             307.53,33.06 303.75,32.84 299.00,33.30 Z
           M 352.00,202.00
           C 352.00,202.00 352.00,191.00 352.00,191.00
             352.00,188.92 352.11,185.93 351.40,184.00
             349.78,179.63 337.09,169.64 333.00,165.93
             333.00,165.93 275.00,114.28 275.00,114.28
             262.89,103.67 252.47,93.45 235.00,96.80
             219.08,99.86 212.00,110.00 201.00,121.00
             201.00,121.00 166.00,156.00 166.00,156.00
             160.45,161.55 151.30,169.99 147.00,176.00
             147.00,176.00 185.00,186.14 185.00,186.14
             189.26,187.35 196.97,190.57 201.00,188.31
             203.38,186.98 211.53,178.47 214.00,176.00
             214.00,176.00 240.00,150.00 240.00,150.00
             244.00,146.00 251.16,137.42 257.00,137.23
             263.32,137.04 278.36,149.69 284.00,153.71
             284.00,153.71 325.00,183.37 325.00,183.37
             331.56,188.23 345.38,198.76 352.00,202.00 Z
           M 259.00,161.00
           C 259.00,161.00 238.00,181.00 238.00,181.00
             238.00,181.00 218.00,202.00 218.00,202.00
             218.00,202.00 243.00,227.00 243.00,227.00
             252.75,236.80 250.80,237.98 261.00,238.00
             261.00,238.00 353.00,238.00 353.00,238.00
             353.00,238.00 351.98,229.32 351.98,229.32
             351.98,229.32 345.00,223.42 345.00,223.42
             345.00,223.42 330.00,212.58 330.00,212.58
             330.00,212.58 259.00,161.00 259.00,161.00 Z
           M 374.00,223.00
           C 383.20,210.90 394.47,221.83 404.96,213.57
             413.12,207.14 411.25,194.76 401.99,190.41
             396.93,188.05 379.48,189.00 373.00,189.00
             373.00,189.00 373.00,211.00 373.00,211.00
             373.00,211.00 374.00,223.00 374.00,223.00 Z
           M 264.00,356.00
           C 264.00,356.00 254.08,296.00 254.08,296.00
             252.07,283.86 251.45,275.40 245.73,264.00
             239.50,251.56 226.90,240.90 217.00,231.00
             212.64,226.64 200.49,213.66 196.00,211.28
             196.00,211.28 177.00,205.58 177.00,205.58
             177.00,205.58 132.00,193.00 132.00,193.00
             127.95,205.27 132.04,219.69 141.17,228.83
             146.17,233.82 156.59,239.17 163.00,242.85
             163.00,242.85 197.00,262.58 197.00,262.58
             201.88,265.41 211.26,270.03 214.58,274.09
             218.20,278.51 221.03,294.71 222.42,301.00
             222.42,301.00 235.00,356.00 235.00,356.00
             235.00,356.00 264.00,356.00 264.00,356.00 Z
           M 112.00,219.00
           C 112.00,219.00 101.00,219.00 101.00,219.00
             101.13,232.96 107.53,237.96 121.00,238.00
             121.00,238.00 112.00,219.00 112.00,219.00 Z
           M 338.00,259.00
           C 338.00,259.00 267.00,259.00 267.00,259.00
             267.00,259.00 272.11,277.00 272.11,277.00
             272.11,277.00 278.00,313.00 278.00,313.00
             278.00,313.00 303.00,291.17 303.00,291.17
             303.00,291.17 338.00,259.00 338.00,259.00 Z
           M 210.00,343.00
           C 210.00,343.00 201.88,305.00 201.88,305.00
             201.11,301.76 199.00,290.47 197.72,288.33
             195.81,285.15 188.38,281.52 185.00,279.58
             176.96,274.97 157.88,262.50 150.00,261.00
             150.00,261.00 145.00,286.00 145.00,286.00
             162.68,290.14 184.38,307.03 195.49,321.00
             195.49,321.00 210.00,343.00 210.00,343.00 Z
           M 358.00,270.00
           C 358.00,270.00 309.00,313.72 309.00,313.72
             309.00,313.72 291.00,329.97 291.00,329.97
             289.21,331.66 284.78,335.29 283.71,337.09
             281.82,340.17 283.23,344.63 283.71,348.00
             285.28,358.52 283.82,361.90 295.00,366.00
             299.63,343.07 312.02,323.88 329.00,308.09
             334.78,302.71 344.01,296.21 351.00,292.49
             353.92,290.93 360.22,289.06 361.23,285.79
             361.99,283.31 358.86,272.95 358.00,270.00 Z
           M 119.00,301.00
           C 97.45,301.00 83.23,301.53 64.00,313.20
             49.80,321.82 40.38,331.70 32.01,346.00
             22.11,362.91 20.78,377.01 21.00,396.00
             21.14,407.43 24.68,418.86 29.75,429.00
             56.50,482.49 125.55,495.90 170.00,455.83
             178.47,448.20 184.19,440.12 189.25,430.00
             193.90,420.68 197.52,410.49 198.00,400.00
             198.00,400.00 114.00,400.00 114.00,400.00
             111.91,400.00 108.97,400.09 107.00,399.49
             95.26,395.92 100.76,382.25 102.65,374.00
             102.65,374.00 114.42,323.00 114.42,323.00
             116.05,315.68 118.39,308.51 119.00,301.00 Z
           M 141.00,306.00
           C 141.00,306.00 134.35,330.00 134.35,330.00
             134.35,330.00 123.00,379.00 123.00,379.00
             123.00,379.00 198.00,379.00 198.00,379.00
             196.03,354.87 181.28,331.57 162.00,317.49
             154.44,311.96 148.85,310.07 141.00,306.00 Z
           M 212.00,347.00
           C 212.00,347.00 211.00,347.00 211.00,347.00
             211.00,347.00 212.00,348.00 212.00,348.00
             212.00,348.00 212.00,347.00 212.00,347.00 Z
           M 291.00,396.00
           C 283.86,373.61 256.46,377.00 238.00,377.00
             238.00,377.00 238.00,396.00 238.00,396.00
             238.00,396.00 291.00,396.00 291.00,396.00 Z
           M 501.00,379.65
           C 504.61,379.71 507.73,380.27 510.11,383.34
             514.99,389.66 510.94,399.80 503.00,400.58
             490.73,401.79 486.41,382.67 501.00,379.65 Z
           M 234.00,479.58
           C 248.71,477.60 250.68,496.51 239.00,499.57
             227.02,502.69 219.52,485.22 234.00,479.58 Z" />
</svg>
