<?xml version="1.0" encoding="UTF-8" standalone="no"?>
<!DOCTYPE svg PUBLIC "-//W3C//DTD SVG 20010904//EN"
              "http://www.w3.org/TR/2001/REC-SVG-20010904/DTD/svg10.dtd">

<svg xmlns="http://www.w3.org/2000/svg"
     width="135.45mm" height="135.45mm"
     viewBox="0 0 512 512">
  <path id="Selection"
        fill="none" stroke="black" stroke-width="5"
        d="M 291.13,168.00
           C 291.13,168.00 291.13,108.00 291.13,108.00
             291.00,105.81 290.93,103.12 291.13,101.00
             292.22,97.13 300.44,81.63 302.75,77.00
             306.25,70.00 319.39,44.75 320.81,39.00
             320.81,39.00 320.81,21.00 320.81,21.00
             321.00,18.75 320.86,15.14 321.74,13.11
             323.67,8.61 329.35,8.18 331.83,12.23
             333.22,14.50 333.00,18.38 333.00,21.00
             333.00,21.00 333.00,34.00 333.00,34.00
             333.11,41.98 336.76,47.02 340.25,54.00
             340.25,54.00 355.25,84.00 355.25,84.00
             359.86,93.22 362.98,96.45 363.00,107.00
             363.00,107.00 363.00,184.00 363.00,184.00
             363.00,184.00 419.00,184.00 419.00,184.00
             419.00,184.00 411.72,166.00 411.72,166.00
             410.60,163.50 409.58,160.74 406.87,159.60
             404.32,158.53 388.00,159.05 384.00,159.00
             381.43,158.96 378.41,159.00 376.31,157.26
             372.91,154.45 373.93,149.26 378.06,147.60
             379.82,146.89 383.05,147.00 385.00,147.00
             385.00,147.00 408.00,147.00 408.00,147.00
             418.96,147.06 417.84,149.55 423.58,163.00
             423.58,163.00 433.81,188.00 433.81,188.00
             433.81,188.00 433.81,202.00 433.81,202.00
             433.81,202.00 443.00,202.00 443.00,202.00
             445.74,202.00 449.44,201.79 451.87,203.17
             455.72,205.38 460.00,217.56 461.80,222.00
             464.68,229.12 467.89,234.17 468.00,242.00
             468.00,242.00 468.00,288.00 468.00,288.00
             468.02,298.55 471.19,301.04 476.28,310.00
             476.28,310.00 493.85,341.00 493.85,341.00
             499.09,350.18 502.98,354.22 503.00,365.00
             503.00,365.00 503.00,427.00 503.00,427.00
             503.00,427.00 503.00,491.00 503.00,491.00
             502.98,501.66 501.66,502.98 491.00,503.00
             491.00,503.00 23.00,503.00 23.00,503.00
             19.92,503.00 15.09,503.29 12.65,501.18
             10.21,499.06 10.02,495.00 9.58,492.00
             8.34,483.45 9.51,472.98 12.87,465.00
             12.87,465.00 18.58,453.58 18.58,453.58
             18.89,451.43 14.64,441.16 15.18,434.00
             15.67,427.64 18.04,420.86 22.21,416.00
             25.01,412.74 29.90,409.45 31.49,405.96
             32.75,403.20 32.99,398.13 33.42,395.00
             34.72,385.61 35.49,371.23 39.32,363.00
             46.10,348.43 62.18,342.26 70.47,331.96
             79.51,320.74 75.05,312.67 80.38,302.00
             83.24,296.26 87.21,291.89 92.00,287.73
             94.72,285.37 100.46,280.95 101.98,277.99
             103.19,275.62 102.99,272.60 103.00,270.00
             103.00,270.00 103.00,210.00 103.00,210.00
             103.06,200.81 105.58,201.01 114.00,201.00
             114.00,201.00 136.00,201.00 136.00,201.00
             136.00,195.51 135.45,174.81 136.70,171.00
             138.13,166.60 148.48,151.86 151.66,147.00
             154.25,143.02 159.35,133.44 163.18,131.31
             165.91,129.81 169.95,130.00 173.00,130.00
             173.00,130.00 240.00,130.00 240.00,130.00
             250.66,130.02 251.98,131.34 252.00,142.00
             252.00,142.00 252.00,246.00 252.00,246.00
             255.04,246.00 262.38,245.55 264.75,247.02
             268.38,249.24 268.30,254.49 264.75,256.69
             262.27,258.19 257.84,258.00 255.00,258.00
             255.00,258.00 164.00,258.00 164.00,258.00
             164.00,258.00 146.00,258.00 146.00,258.00
             143.07,257.96 139.70,257.99 137.60,255.57
             135.69,253.38 136.01,249.74 136.00,247.00
             136.00,247.00 136.00,213.00 136.00,213.00
             136.00,213.00 114.00,213.00 114.00,213.00
             114.00,213.00 114.00,369.00 114.00,369.00
             114.00,371.31 114.20,374.77 112.98,376.77
             111.02,379.98 106.35,380.63 103.93,377.57
             101.84,374.91 102.01,369.27 102.00,366.00
             102.00,366.00 102.00,296.00 102.00,296.00
             96.60,299.87 92.32,304.62 90.11,311.00
             87.78,317.69 88.64,326.52 83.52,335.00
             76.49,346.66 57.84,357.14 51.65,366.00
             46.58,373.24 45.27,394.40 44.00,404.00
             49.60,404.00 53.49,403.67 59.00,405.16
             59.00,405.16 70.00,409.11 70.00,409.11
             73.16,409.66 85.02,406.17 95.00,409.11
             99.43,395.11 109.55,392.85 120.00,386.04
             124.82,382.89 134.36,372.37 136.28,367.00
             137.13,364.60 137.00,361.54 137.00,359.00
             137.00,359.00 137.00,304.00 137.00,304.00
             137.01,297.12 137.62,291.69 142.53,286.30
             151.24,276.74 168.71,278.08 176.61,288.02
             180.18,292.50 180.93,297.45 181.00,303.00
             181.00,303.00 181.00,340.00 181.00,340.00
             191.51,340.96 194.88,345.50 200.00,354.00
             201.95,345.99 200.95,317.19 201.00,307.00
             201.03,301.53 201.74,294.87 204.41,290.00
             211.75,276.68 233.88,276.42 242.03,289.00
             247.31,297.16 246.00,310.48 246.00,320.00
             248.81,319.08 258.93,316.73 260.40,315.27
             262.35,313.33 261.99,309.56 262.00,307.00
             262.00,307.00 262.00,286.00 262.00,286.00
             262.02,275.45 265.14,272.22 269.75,263.00
             269.75,263.00 281.75,239.00 281.75,239.00
             281.75,239.00 292.88,217.04 292.88,217.04
             294.71,214.10 297.07,211.57 300.90,212.47
             304.35,213.29 305.80,217.14 307.25,220.00
             307.25,220.00 317.76,241.00 317.76,241.00
             317.76,241.00 336.37,278.00 336.37,278.00
             337.10,280.60 337.00,283.32 337.00,286.00
             337.00,286.00 337.00,341.00 337.00,341.00
             337.00,341.00 363.42,307.00 363.42,307.00
             371.41,296.73 371.46,292.02 385.00,292.00
             385.00,292.00 457.00,292.00 457.00,292.00
             457.00,292.00 457.00,245.00 457.00,245.00
             457.00,245.00 434.00,245.00 434.00,245.00
             434.00,245.00 434.00,267.00 434.00,267.00
             434.00,269.79 434.26,275.55 433.26,277.94
             431.41,282.38 426.36,282.86 423.74,279.69
             421.71,277.23 422.00,273.02 422.00,270.00
             422.00,270.00 422.00,195.00 422.00,195.00
             422.00,195.00 363.00,195.00 363.00,195.00
             363.00,195.00 363.00,271.00 363.00,271.00
             363.00,276.25 365.71,295.52 356.06,292.92
             351.49,291.70 352.01,286.70 352.00,283.00
             352.00,283.00 352.00,180.00 352.00,180.00
             352.00,180.00 300.00,180.00 300.00,180.00
             297.69,180.00 294.37,179.78 292.38,181.02
             287.27,184.22 284.55,197.72 274.99,202.62
             269.93,205.22 260.32,205.70 262.33,197.11
             263.39,192.60 267.63,193.94 271.39,189.78
             275.58,185.14 280.72,171.87 285.21,169.31
             287.04,168.27 288.97,168.19 291.13,168.00 Z
           M 328.00,55.00
           C 328.00,55.00 318.75,71.00 318.75,71.00
             318.75,71.00 306.00,97.00 306.00,97.00
             306.00,97.00 348.00,97.00 348.00,97.00
             348.00,97.00 328.00,55.00 328.00,55.00 Z
           M 352.00,108.00
           C 352.00,108.00 303.00,108.00 303.00,108.00
             303.00,108.00 303.00,168.00 303.00,168.00
             303.00,168.00 352.00,168.00 352.00,168.00
             352.00,168.00 352.00,108.00 352.00,108.00 Z
           M 314.31,120.02
           C 318.99,118.24 328.69,118.91 334.00,119.00
             336.14,119.04 338.77,118.96 340.40,120.60
             342.04,122.23 341.96,124.86 342.00,127.00
             342.00,127.00 342.00,149.00 342.00,149.00
             341.96,151.14 342.04,153.77 340.40,155.40
             338.48,157.32 334.54,156.99 332.00,157.00
             328.12,157.01 316.15,157.95 313.60,155.40
             311.68,153.48 312.01,149.54 312.16,147.00
             312.16,147.00 312.16,123.06 312.16,123.06
             312.88,120.99 313.06,121.36 314.31,120.02 Z
           M 331.00,130.00
           C 331.00,130.00 323.00,130.00 323.00,130.00
             323.00,130.00 323.00,146.00 323.00,146.00
             323.00,146.00 331.00,146.00 331.00,146.00
             331.00,146.00 331.00,130.00 331.00,130.00 Z
           M 240.00,142.00
           C 240.00,142.00 177.00,142.00 177.00,142.00
             177.00,142.00 169.32,143.02 169.32,143.02
             169.32,143.02 163.05,151.00 163.05,151.00
             163.05,151.00 153.00,168.00 153.00,168.00
             153.00,168.00 240.00,168.00 240.00,168.00
             240.00,168.00 240.00,142.00 240.00,142.00 Z
           M 240.00,180.00
           C 240.00,180.00 147.00,180.00 147.00,180.00
             147.00,180.00 147.00,246.00 147.00,246.00
             147.00,246.00 240.00,246.00 240.00,246.00
             240.00,246.00 240.00,180.00 240.00,180.00 Z
           M 160.23,193.74
           C 165.00,192.48 173.78,192.93 179.00,193.00
             181.36,193.04 184.46,192.94 186.26,194.74
             188.73,197.20 188.00,205.51 188.00,209.00
             188.00,213.76 189.29,227.29 185.69,230.26
             183.23,232.29 179.03,232.00 176.00,232.00
             171.93,232.01 162.35,232.76 159.31,230.26
             156.59,228.02 157.01,224.16 157.00,221.00
             156.99,216.77 156.47,198.94 157.74,196.23
             158.55,194.49 158.91,194.69 160.23,193.74 Z
           M 202.15,194.02
           C 207.12,192.25 214.60,192.97 220.00,193.00
             223.13,193.02 226.94,192.74 229.15,195.43
             232.03,198.96 231.06,215.83 231.00,221.00
             230.96,223.70 230.99,227.32 229.15,229.49
             226.70,232.37 221.45,231.99 218.00,232.00
             213.97,232.01 204.41,232.79 201.43,230.26
             198.59,227.85 199.01,223.37 199.00,220.00
             198.99,216.07 198.57,199.62 199.60,197.06
             200.40,195.07 200.76,195.25 202.15,194.02 Z
           M 177.00,205.00
           C 177.00,205.00 168.00,205.00 168.00,205.00
             168.00,205.00 168.00,220.00 168.00,220.00
             168.00,220.00 177.00,220.00 177.00,220.00
             177.00,220.00 177.00,205.00 177.00,205.00 Z
           M 219.00,205.00
           C 219.00,205.00 211.00,205.00 211.00,205.00
             211.00,205.00 211.00,220.00 211.00,220.00
             211.00,220.00 219.00,220.00 219.00,220.00
             219.00,220.00 219.00,205.00 219.00,205.00 Z
           M 453.00,233.00
           C 452.17,229.49 447.56,216.01 444.59,214.57
             442.85,213.74 436.24,214.00 434.00,214.00
             434.00,214.00 434.00,233.00 434.00,233.00
             434.00,233.00 453.00,233.00 453.00,233.00 Z
           M 380.11,220.74
           C 385.11,219.47 395.44,219.93 401.00,220.00
             403.58,220.04 406.58,220.00 408.69,221.74
             411.00,223.65 410.95,226.27 411.00,229.00
             411.00,229.00 411.00,254.00 411.00,254.00
             410.98,256.79 411.18,260.32 409.26,262.57
             406.85,265.41 402.37,264.99 399.00,265.00
             394.48,265.01 381.60,265.96 378.43,263.26
             375.59,260.85 376.01,256.37 376.00,253.00
             376.00,253.00 376.00,230.00 376.00,230.00
             376.07,225.28 375.92,223.39 380.11,220.74 Z
           M 300.00,231.00
           C 300.00,231.00 290.75,248.00 290.75,248.00
             290.75,248.00 277.00,276.00 277.00,276.00
             277.00,276.00 322.00,276.00 322.00,276.00
             322.00,276.00 300.00,231.00 300.00,231.00 Z
           M 399.00,232.00
           C 399.00,232.00 388.00,232.00 388.00,232.00
             388.00,232.00 388.00,253.00 388.00,253.00
             388.00,253.00 399.00,253.00 399.00,253.00
             399.00,253.00 399.00,232.00 399.00,232.00 Z
           M 326.00,287.00
           C 326.00,287.00 272.92,287.00 272.92,287.00
             272.92,287.00 272.92,392.00 272.92,392.00
             272.92,392.00 272.92,417.00 272.92,417.00
             272.16,420.31 269.85,423.53 266.05,422.34
             261.60,420.95 262.01,415.70 262.00,412.00
             262.00,412.00 262.00,328.00 262.00,328.00
             252.21,328.88 244.58,333.47 238.33,341.00
             238.33,341.00 233.39,347.86 233.39,347.86
             230.04,351.69 225.59,351.77 221.00,353.36
             215.15,355.38 208.22,360.21 205.66,366.00
             204.08,369.58 205.59,372.66 207.02,376.00
             211.95,387.58 222.19,389.55 229.47,399.00
             235.75,407.14 238.03,425.52 240.00,436.00
             240.00,436.00 264.00,436.00 264.00,436.00
             266.73,436.05 269.35,436.00 271.26,438.31
             274.01,441.65 273.00,456.19 273.00,461.00
             273.00,461.00 294.00,461.00 294.00,461.00
             294.00,461.00 294.00,418.00 294.00,418.00
             294.07,413.14 294.56,408.97 300.02,407.15
             301.47,407.02 303.48,407.02 305.00,407.15
             305.00,407.15 327.00,407.15 327.00,407.15
             330.36,407.07 333.19,407.18 335.40,410.15
             337.85,413.42 337.00,424.59 337.00,429.00
             337.00,429.00 357.00,429.00 357.00,429.00
             357.00,424.58 356.06,412.58 358.74,409.43
             361.15,406.59 365.63,407.01 369.00,407.00
             369.00,407.00 389.00,407.00 389.00,407.00
             398.13,407.17 398.98,410.94 399.00,419.00
             399.00,419.00 399.00,436.00 399.00,436.00
             399.00,436.00 417.00,436.00 417.00,436.00
             419.73,436.05 422.47,436.03 424.40,438.31
             426.97,441.36 426.00,456.41 426.00,461.00
             426.00,461.00 453.00,461.00 453.00,461.00
             453.00,456.19 451.99,441.65 454.74,438.31
             456.65,436.00 459.27,436.05 462.00,436.00
             462.00,436.00 491.00,436.00 491.00,436.00
             491.00,436.00 491.00,365.00 491.00,365.00
             491.00,365.00 438.00,365.00 438.00,365.00
             426.34,364.84 427.10,357.64 431.15,354.60
             433.63,352.73 437.05,353.01 440.00,353.00
             440.00,353.00 487.00,353.00 487.00,353.00
             487.00,353.00 467.77,319.00 467.77,319.00
             460.30,305.25 460.79,304.02 451.00,304.00
             451.00,304.00 389.00,304.00 389.00,304.00
             390.94,310.65 405.76,335.31 410.15,343.00
             414.98,351.46 417.98,354.02 418.00,364.00
             418.00,364.00 418.00,415.00 418.00,415.00
             417.91,427.61 410.33,425.30 408.17,421.77
             406.88,419.66 407.01,416.42 407.00,414.00
             407.00,414.00 407.00,365.00 407.00,365.00
             407.00,365.00 337.00,365.00 337.00,365.00
             337.00,365.00 337.00,389.00 337.00,389.00
             336.81,399.09 330.32,398.89 327.60,395.69
             325.71,393.47 326.01,389.75 326.00,387.00
             326.00,387.00 326.00,287.00 326.00,287.00 Z
           M 169.00,340.00
           C 169.00,340.00 169.00,304.00 169.00,304.00
             168.91,290.29 157.11,288.72 151.42,294.42
             148.34,297.49 148.05,301.92 148.00,306.00
             148.00,306.00 148.00,354.00 148.00,354.00
             156.48,347.93 157.95,342.62 169.00,340.00 Z
           M 213.00,344.00
           C 215.72,342.92 222.87,340.67 224.68,339.28
             226.65,337.76 232.58,330.27 233.40,328.00
             234.41,325.23 234.05,308.10 234.00,304.00
             233.79,289.25 220.15,288.33 215.01,296.10
             211.88,300.83 213.00,314.93 213.00,321.00
             213.00,321.00 213.00,344.00 213.00,344.00 Z
           M 378.00,309.00
           C 378.00,309.00 361.63,329.00 361.63,329.00
             361.63,329.00 344.00,353.00 344.00,353.00
             344.00,353.00 402.00,353.00 402.00,353.00
             402.00,353.00 378.00,309.00 378.00,309.00 Z
           M 296.00,311.47
           C 307.67,309.94 315.83,315.86 316.00,328.00
             316.06,332.94 317.27,348.38 313.69,351.40
             311.44,353.29 307.77,352.99 305.00,353.00
             300.57,353.01 287.55,353.95 284.51,351.26
             281.14,348.29 281.99,339.30 282.00,335.00
             282.02,323.68 283.38,314.59 296.00,311.47 Z
           M 305.00,341.00
           C 305.00,337.63 305.52,328.74 303.98,326.15
             301.97,322.76 297.28,322.38 295.17,325.43
             293.42,327.98 294.00,337.57 294.00,341.00
             294.00,341.00 305.00,341.00 305.00,341.00 Z
           M 223.00,461.00
           C 223.00,461.00 223.00,448.00 223.00,448.00
             223.02,445.16 222.89,442.68 224.16,440.04
             225.24,437.80 227.18,436.34 227.54,433.83
             227.79,432.10 226.59,426.97 226.20,425.00
             225.09,419.46 224.16,411.74 221.24,407.04
             215.68,398.11 204.31,396.31 197.99,384.00
             189.16,366.79 192.61,350.20 174.00,351.04
             165.48,351.43 160.54,358.02 155.28,364.00
             146.30,374.22 136.00,390.49 125.00,396.98
             119.77,400.07 106.28,405.29 107.00,413.00
             107.21,415.27 109.68,418.10 110.95,420.00
             112.43,422.20 114.68,426.84 116.41,428.27
             119.29,430.64 124.56,430.04 131.00,434.64
             139.79,440.90 141.39,446.31 147.00,454.00
             147.00,450.20 146.24,441.11 148.60,438.31
             150.53,436.03 153.27,436.05 156.00,436.00
             156.00,436.00 187.00,436.00 187.00,436.00
             195.10,436.15 196.89,439.31 197.00,447.00
             197.00,447.00 197.00,461.00 197.00,461.00
             197.00,461.00 223.00,461.00 223.00,461.00 Z
           M 441.23,379.74
           C 446.00,378.47 457.57,378.90 463.00,379.00
             465.14,379.04 467.77,378.96 469.40,380.60
             471.19,382.39 470.98,385.65 471.00,388.00
             471.00,388.00 471.00,414.00 471.00,414.00
             470.98,416.35 471.19,419.61 469.40,421.40
             467.48,423.32 463.54,422.99 461.00,423.00
             456.66,423.01 442.54,424.06 439.74,421.26
             437.94,419.46 438.04,416.36 438.00,414.00
             438.00,414.00 438.00,388.00 438.00,388.00
             438.06,383.88 437.75,382.25 441.23,379.74 Z
           M 460.00,390.00
           C 460.00,390.00 450.00,390.00 450.00,390.00
             450.00,390.00 450.00,412.00 450.00,412.00
             450.00,412.00 460.00,412.00 460.00,412.00
             460.00,412.00 460.00,390.00 460.00,390.00 Z
           M 159.00,490.00
           C 151.10,484.35 144.83,476.57 140.32,468.00
             136.35,460.46 134.93,453.95 128.54,447.30
             125.70,444.35 122.10,441.86 118.00,441.21
             114.69,440.69 111.10,441.62 108.23,439.40
             105.03,436.94 105.18,432.94 103.16,429.00
             99.95,422.71 93.85,419.76 87.00,419.19
             80.93,418.68 71.64,422.04 68.00,421.69
             63.35,421.25 60.26,417.31 53.00,415.68
             41.28,413.04 28.03,421.81 27.09,434.00
             26.31,444.15 31.44,448.91 32.30,453.00
             33.49,458.69 28.13,460.02 24.33,468.00
             20.40,476.23 21.00,482.29 21.00,491.00
             21.00,491.00 117.00,491.00 117.00,491.00
             117.00,491.00 145.00,491.00 145.00,491.00
             145.00,491.00 159.00,490.00 159.00,490.00 Z
           M 326.00,419.00
           C 326.00,419.00 306.00,419.00 306.00,419.00
             306.00,419.00 306.00,491.00 306.00,491.00
             306.00,491.00 326.00,491.00 326.00,491.00
             326.00,484.33 325.06,473.84 328.00,468.00
             335.58,452.90 355.00,452.54 364.35,466.00
             369.12,472.87 368.00,482.96 368.00,491.00
             368.00,491.00 388.00,491.00 388.00,491.00
             388.00,491.00 388.00,419.00 388.00,419.00
             388.00,419.00 368.00,419.00 368.00,419.00
             368.00,419.00 368.00,431.00 368.00,431.00
             367.95,433.73 367.97,436.47 365.69,438.40
             363.44,440.29 359.77,439.99 357.00,440.00
             357.00,440.00 341.00,440.00 341.00,440.00
             337.59,440.00 330.94,440.61 328.31,438.40
             324.78,435.43 326.00,423.58 326.00,419.00 Z
           M 185.00,447.00
           C 185.00,447.00 158.00,447.00 158.00,447.00
             158.00,447.00 158.00,466.00 158.00,466.00
             158.00,468.09 157.88,471.06 158.60,473.00
             161.37,480.53 176.28,488.84 184.00,490.48
             186.75,491.07 189.22,491.00 192.00,491.00
             192.00,491.00 294.00,491.00 294.00,491.00
             294.00,491.00 294.00,472.00 294.00,472.00
             294.00,472.00 272.00,472.00 272.00,472.00
             269.07,471.96 265.70,471.99 263.60,469.57
             261.04,466.62 262.00,451.52 262.00,447.00
             262.00,447.00 235.00,447.00 235.00,447.00
             235.00,447.00 235.00,460.00 235.00,460.00
             234.98,468.06 234.13,471.83 225.00,472.00
             225.00,472.00 195.00,472.00 195.00,472.00
             191.64,471.93 188.81,471.82 186.60,468.85
             184.01,465.39 185.00,451.80 185.00,447.00 Z
           M 415.00,447.00
           C 415.00,447.00 399.00,447.00 399.00,447.00
             399.00,447.00 399.00,491.00 399.00,491.00
             399.00,491.00 491.00,491.00 491.00,491.00
             491.00,491.00 491.00,447.00 491.00,447.00
             491.00,447.00 464.00,447.00 464.00,447.00
             464.00,462.51 466.96,471.78 455.00,472.00
             455.00,472.00 425.00,472.00 425.00,472.00
             421.71,471.95 417.97,471.96 416.02,468.77
             414.28,465.92 415.00,451.16 415.00,447.00 Z
           M 356.00,491.00
           C 356.00,487.12 356.48,476.11 355.15,473.09
             352.32,466.72 342.77,466.35 339.09,472.11
             336.24,476.55 337.00,485.68 337.00,491.00
             337.00,491.00 356.00,491.00 356.00,491.00 Z" />
</svg>
