<?xml version="1.0" encoding="UTF-8" standalone="no"?>
<!DOCTYPE svg PUBLIC "-//W3C//DTD SVG 20010904//EN"
              "http://www.w3.org/TR/2001/REC-SVG-20010904/DTD/svg10.dtd">

<svg xmlns="http://www.w3.org/2000/svg"
     width="168.255mm" height="168.255mm"
     viewBox="0 0 512 512">
  <path id="Selection"
        fill="none" stroke="black" stroke-width="5"
        d="M 326.00,0.42
           C 335.99,-0.79 336.65,0.90 345.00,1.00
             345.00,1.00 360.00,1.00 360.00,1.00
             360.00,1.00 372.00,1.91 372.00,1.91
             405.39,4.21 438.43,9.22 471.00,17.13
             476.60,18.49 482.78,19.88 488.00,22.32
             503.19,29.43 511.97,43.37 512.00,60.00
             512.00,60.00 512.00,173.00 512.00,173.00
             511.95,208.07 497.29,254.31 480.69,285.00
             463.06,317.59 439.21,345.81 410.00,368.58
             410.00,368.58 377.00,392.00 377.00,392.00
             377.00,392.00 361.64,401.39 361.64,401.39
             359.38,403.87 357.38,409.71 355.73,413.00
             355.73,413.00 343.31,435.00 343.31,435.00
             333.00,451.18 326.25,459.43 314.08,474.00
             299.63,491.29 289.38,503.16 267.00,509.96
             257.46,512.86 244.15,512.12 234.00,512.00
             224.92,511.89 214.51,507.63 206.00,504.42
             206.00,504.42 176.00,492.85 176.00,492.85
             115.38,466.82 67.70,418.82 40.31,359.00
             29.77,335.99 25.23,314.92 18.58,291.00
             18.58,291.00 6.58,246.00 6.58,246.00
             4.41,238.21 0.09,224.54 0.00,217.00
             -0.07,210.87 -0.34,205.97 1.44,200.00
             7.57,179.41 27.40,171.55 45.00,162.75
             64.37,153.07 83.75,144.13 104.00,136.42
             104.00,136.42 136.00,125.34 136.00,125.34
             139.21,124.32 147.32,122.50 149.40,120.30
             151.35,118.25 150.99,114.65 151.00,112.00
             151.00,112.00 151.00,67.00 151.00,67.00
             151.11,58.22 152.49,47.69 156.88,40.00
             167.66,21.10 187.50,18.04 207.00,14.00
             233.27,8.56 259.31,4.72 286.00,2.17
             286.00,2.17 304.00,1.00 304.00,1.00
             311.00,0.99 319.19,1.39 326.00,0.42 Z
           M 300.00,19.09
           C 300.00,19.09 268.00,22.16 268.00,22.16
             249.03,24.20 221.50,29.02 203.00,33.63
             190.06,36.85 175.16,38.86 170.79,54.00
             169.90,57.07 170.00,59.85 170.00,63.00
             170.00,63.00 170.00,137.00 170.00,137.00
             170.00,163.69 169.08,180.15 174.45,207.00
             182.94,249.48 202.72,289.43 231.29,322.00
             231.29,322.00 247.00,338.00 247.00,338.00
             259.37,350.35 273.64,360.46 288.00,370.34
             302.08,380.02 316.99,389.53 335.00,387.83
             356.09,385.85 364.38,378.36 381.00,366.72
             394.55,357.24 405.13,349.85 417.00,338.00
             417.00,338.00 432.71,322.00 432.71,322.00
             461.39,289.30 480.88,249.61 489.40,207.00
             491.54,196.30 493.98,180.78 494.00,170.00
             494.00,170.00 494.00,63.00 494.00,63.00
             493.99,59.44 494.12,56.42 492.87,53.00
             490.95,47.77 485.87,42.07 481.00,39.41
             476.06,36.72 455.65,32.41 449.00,30.88
             422.75,24.84 395.80,21.75 369.00,19.91
             369.00,19.91 357.00,19.09 357.00,19.09
             357.00,19.09 336.00,19.09 336.00,19.09
             336.00,19.09 300.00,19.09 300.00,19.09 Z
           M 253.00,128.44
           C 269.07,126.38 283.75,129.20 298.00,136.78
             301.34,138.56 309.57,143.54 310.83,147.04
             312.28,151.03 303.77,159.67 300.00,159.84
             297.38,159.96 290.78,154.48 288.00,152.87
             281.08,148.88 273.03,146.20 265.00,146.01
             255.29,145.79 247.49,148.17 239.00,152.79
             235.75,154.56 229.13,160.49 226.00,159.67
             223.65,159.05 215.20,151.43 215.20,148.92
             215.20,146.47 218.27,144.06 220.00,142.67
             230.10,134.56 240.43,130.76 253.00,128.44 Z
           M 351.00,150.00
           C 354.72,142.20 363.52,137.87 371.00,134.26
             391.30,124.45 417.84,126.00 437.00,137.81
             442.37,141.12 446.24,143.86 450.00,149.00
             447.54,151.46 440.28,160.43 436.96,160.10
             434.90,159.90 427.80,154.31 425.00,152.79
             416.51,148.17 408.71,145.79 399.00,146.01
             390.91,146.20 382.99,148.88 376.00,152.87
             373.41,154.35 366.30,159.88 364.00,159.82
             361.15,159.74 354.09,152.21 351.00,150.00 Z
           M 151.00,140.00
           C 116.79,149.99 85.83,162.84 54.00,178.75
             43.66,183.92 25.57,191.64 20.38,202.00
             15.16,212.42 19.67,224.54 22.58,235.00
             22.58,235.00 39.63,299.00 39.63,299.00
             46.20,324.24 52.77,344.88 65.31,368.00
             91.84,416.94 134.91,455.38 186.00,477.15
             186.00,477.15 212.00,487.05 212.00,487.05
             233.12,494.78 249.49,499.48 271.00,488.73
             285.77,481.35 299.62,463.03 310.00,450.00
             320.24,437.14 331.49,421.11 338.00,406.00
             325.79,406.00 314.40,405.01 303.00,400.13
             299.55,398.65 287.92,391.37 285.18,392.30
             282.82,393.10 278.59,399.77 277.00,402.00
             271.89,409.18 265.76,418.71 258.99,424.24
             238.61,440.62 221.96,433.91 201.00,424.24
             201.00,424.24 178.00,414.00 178.00,414.00
             178.00,414.00 132.00,393.22 132.00,393.22
             126.70,390.64 120.34,385.59 124.74,379.11
             129.36,372.30 147.05,373.62 155.00,372.58
             155.00,372.58 201.00,368.72 201.00,368.72
             216.29,366.86 226.54,363.82 241.00,359.00
             237.64,351.89 225.01,341.36 219.09,335.00
             209.50,324.71 200.31,311.84 192.69,300.00
             160.38,249.81 151.00,198.58 151.00,140.00 Z
           M 235.02,240.65
           C 241.52,239.44 255.90,243.06 263.00,244.39
             275.49,246.73 312.52,253.95 323.00,254.00
             323.00,254.00 340.00,254.00 340.00,254.00
             351.01,253.98 372.34,249.68 384.00,247.58
             384.00,247.58 418.00,241.25 418.00,241.25
             422.78,240.42 428.58,238.88 432.57,242.65
             435.71,245.61 435.53,251.50 433.26,254.91
             431.33,257.82 417.65,268.58 414.00,271.58
             414.00,271.58 375.00,303.42 375.00,303.42
             358.82,316.68 352.06,325.25 330.00,325.00
             312.46,324.79 302.73,314.76 290.00,304.25
             290.00,304.25 247.00,269.08 247.00,269.08
             243.46,266.14 232.82,258.05 230.74,254.91
             227.00,249.28 229.04,243.30 235.02,240.65 Z
           M 392.00,265.00
           C 392.00,265.00 358.00,270.57 358.00,270.57
             346.56,272.27 335.49,272.13 324.00,272.00
             312.50,271.87 301.28,269.97 290.00,267.80
             285.23,266.89 276.35,264.41 272.00,266.00
             272.00,266.00 306.00,293.58 306.00,293.58
             311.55,298.13 318.97,304.85 326.00,306.47
             343.16,310.43 356.86,294.38 369.00,284.42
             369.00,284.42 392.00,265.00 392.00,265.00 Z
           M 75.00,302.00
           C 82.94,281.26 110.31,266.10 132.00,266.00
             132.00,266.00 140.00,266.00 140.00,266.00
             147.48,266.09 155.06,268.08 162.00,270.81
             164.49,271.79 168.50,273.08 169.01,276.11
             169.44,278.60 164.28,288.04 163.00,291.00
             157.30,289.93 154.40,287.69 149.00,285.89
             140.29,283.38 131.77,283.28 123.00,285.89
             115.39,287.88 106.75,292.68 101.01,298.09
             98.37,300.58 92.94,308.49 89.91,308.77
             87.29,309.00 78.17,303.41 75.00,302.00 Z
           M 170.00,389.00
           C 172.76,393.26 181.28,395.76 186.00,397.86
             186.00,397.86 214.00,410.58 214.00,410.58
             219.18,412.83 224.26,415.55 230.00,415.91
             246.02,416.89 253.30,404.36 261.42,393.00
             263.57,389.99 270.09,382.88 268.18,379.18
             267.44,377.76 265.30,376.23 263.99,375.31
             256.32,369.92 255.22,372.83 244.00,376.95
             221.77,385.10 193.64,389.00 170.00,389.00 Z
           M 339.00,405.00
           C 339.00,405.00 338.00,405.00 338.00,405.00
             338.00,405.00 339.00,406.00 339.00,406.00
             339.00,406.00 339.00,405.00 339.00,405.00 Z" />
</svg>
