<svg width="120" height="109" viewBox="0 0 120 109" fill="none" xmlns="http://www.w3.org/2000/svg">
<path d="M50.625 80.3577C47.4937 79.8053 45.1008 77.6228 41.7188 77.6183H10.5469C4.57969 77.6091 0.009375 73.4611 0 67.5735V10.0447C0.00703125 5.84191 2.71406 2.13679 6.79688 0.705413C8.16562 0.226006 10.4836 0.00228289 11.9531 0H56.9531H82.0312C83.2945 0.0159802 85.7812 0.294493 86.9531 0.705413C91.1977 2.19386 93.743 5.94921 93.75 10.273V43.1466H109.688C115.505 43.174 119.991 47.5275 120 53.1913V90.859C119.991 96.9429 115.01 100.895 108.984 100.904H89.7656C87.0445 100.908 85.432 101.945 82.9688 102.913L72.6562 107.022L67.9688 108.828C64.8727 109.602 63.0844 107.684 63.0469 104.785V100.904C61.0406 100.904 59.8781 100.981 57.8906 100.399C56.8312 100.091 55.9828 99.687 55.0781 99.0683C50.3367 95.822 50.625 92.3703 50.625 87.4347V80.3577ZM68.9062 80.1294C68.9062 77.4196 68.1891 72.6096 71.0156 71.0915C72.0563 70.5344 72.9211 70.5436 74.0625 70.5413H82.7344C85.5961 70.5025 86.4797 69.0003 86.4844 66.4321V21.0026V12.5559C86.4844 11.1839 86.7 9.64521 85.7836 8.48778C84.7031 7.12718 82.943 7.07924 81.3281 7.07696H24.375H14.7656C13.3641 7.07696 10.8516 6.94455 9.60938 7.36232C7.57734 8.0449 7.26797 9.31647 7.26562 11.1862V56.844V64.8341C7.26562 65.8591 7.13438 67.8452 7.57266 68.715C8.40234 70.3495 9.82969 70.539 11.4844 70.5778H42.8906C43.5445 70.5413 44.1164 70.5299 44.7656 70.5778L52.9688 73.7716L68.9062 80.1294ZM46.6406 13.832C51.0023 13.8663 54.8953 14.5831 58.8281 16.4984C61.2469 17.6764 64.4883 19.9547 66.2602 21.9157C70.1672 26.235 73.1156 32.0358 73.125 37.896V41.5486C73.057 47.1485 69.8602 53.2416 66.0539 57.3005C64.4531 59.0059 61.8375 60.8413 59.7656 61.9964C55.8141 64.1994 51.593 64.987 47.1094 65.2062C45.293 65.2952 41.8805 64.7884 40.0781 64.3478C28.9641 61.6289 21.3938 52.3307 20.6039 41.3203L20.4094 39.494L20.6039 37.6677C20.8313 34.5036 21.3727 31.9194 22.7016 28.9927C25.6312 22.5367 31.4977 17.2153 38.4375 15.0739C41.9062 14.0032 43.2094 14.1037 46.6406 13.832ZM44.2969 21.0688C41.257 21.5208 38.9109 22.3038 36.3281 23.9703C34.4461 25.1871 32.3578 27.171 31.0945 28.9927C23.8852 39.3913 28.9125 53.4881 41.25 57.2937C43.7672 58.0699 46.8375 58.2342 49.4531 57.9192C51.7336 57.6453 54.2672 56.828 56.25 55.7002C67.275 49.4268 69.3094 35.0309 60.2344 26.2532C58.7273 24.7968 57.0023 23.5617 55.0781 22.6737C51.6984 21.1144 47.9883 20.7309 44.2969 21.0688ZM37.7344 38.7269C39.0703 38.4644 40.4086 38.5626 41.4352 39.5442C42.1734 40.2519 42.2953 40.9779 42.7992 41.7769C43.6359 43.101 45.2273 44.2104 46.875 44.2104C51.5086 44.2104 50.6836 38.7909 54.6094 38.59C55.1109 38.5649 55.7742 38.5831 56.25 38.7406C59.4937 39.8136 58.6336 43.4845 57.3117 45.6578C55.0102 49.4383 50.8617 51.4609 46.4062 51.3627C42.2437 51.2691 38.332 48.9452 36.2977 45.4295C34.8492 42.9229 34.432 39.9666 37.7344 38.7269ZM70.3125 100.219L81.5625 95.7444C83.9977 94.7947 85.4484 93.8313 88.125 93.8268H108.75C111.698 93.7903 112.73 92.4525 112.734 89.7176V59.3551C112.734 58.1224 112.854 53.3511 112.582 52.5065C112.263 51.5157 111.408 50.6824 110.391 50.372C109.826 50.1985 109.109 50.2236 108.516 50.2236H93.75V67.3453C93.7406 73.226 88.9383 77.6091 82.9688 77.6183H76.4062V84.2386C76.3758 86.7156 74.9672 89.5395 71.9531 88.9117L57.8906 83.5538V90.1742C57.907 91.2722 58.0148 92.0324 58.8773 92.836C61.6758 95.4453 68.243 91.706 70.0758 96.1097C70.3289 96.7146 70.3102 97.299 70.3125 97.936V100.219Z" fill="#FF511A"/>
</svg>
