<?xml version="1.0" encoding="UTF-8" standalone="no"?>
<!DOCTYPE svg PUBLIC "-//W3C//DTD SVG 20010904//EN"
              "http://www.w3.org/TR/2001/REC-SVG-20010904/DTD/svg10.dtd">

<svg xmlns="http://www.w3.org/2000/svg"
     width="135.45mm" height="135.45mm"
     viewBox="0 0 512 512">
  <path id="Selection"
        fill="none" stroke="black" stroke-width="5"
        d="M 44.00,168.00
           C 44.00,168.00 26.88,104.00 26.88,104.00
             26.88,104.00 12.85,51.00 12.85,51.00
             10.71,43.08 6.54,31.05 8.39,23.00
             9.28,19.13 11.65,16.26 15.02,14.22
             18.07,12.38 22.51,11.50 26.00,10.63
             34.99,8.38 46.52,4.86 53.61,13.10
             58.28,18.53 61.50,37.22 63.71,45.00
             63.71,45.00 85.63,131.00 85.63,131.00
             85.63,131.00 91.87,156.00 91.87,156.00
             92.55,158.70 93.62,164.59 95.56,166.40
             97.62,168.33 101.35,167.99 104.00,168.00
             104.00,168.00 142.00,168.00 142.00,168.00
             132.11,143.12 133.55,113.60 148.75,91.00
             161.48,72.06 185.68,56.28 209.00,56.00
             209.00,56.00 223.00,56.00 223.00,56.00
             238.49,56.18 257.74,64.65 269.00,75.09
             277.83,83.27 282.86,89.23 288.24,100.00
             296.14,115.81 296.20,125.98 296.00,143.00
             295.74,165.33 280.92,189.19 263.00,201.79
             258.65,204.85 251.93,208.55 247.00,210.55
             243.62,211.92 238.96,212.77 237.02,216.13
             235.73,218.38 234.26,236.99 233.84,241.00
             233.84,241.00 229.17,284.00 229.17,284.00
             229.17,284.00 227.00,303.00 227.00,303.00
             233.50,299.21 232.00,295.53 234.38,289.00
             236.13,284.22 239.64,278.74 243.17,275.09
             256.45,261.40 271.82,264.00 289.00,264.00
             296.10,264.00 305.26,263.36 312.00,265.00
             314.23,260.43 316.97,255.73 321.04,252.55
             328.19,246.97 341.27,246.19 349.00,250.99
             352.76,253.32 355.37,256.53 358.00,260.00
             365.95,240.01 372.31,219.05 376.79,198.00
             378.32,190.81 381.93,166.56 384.41,162.00
             391.80,148.48 411.78,148.43 420.15,161.00
             424.63,167.74 421.91,172.64 424.00,180.00
             424.00,180.00 432.98,154.00 432.98,154.00
             432.98,154.00 440.00,126.00 440.00,126.00
             442.92,126.53 453.45,127.72 454.99,129.74
             457.04,132.41 453.48,144.59 452.63,148.00
             448.79,163.36 440.44,187.90 432.00,201.00
             436.07,198.27 440.36,194.23 445.00,192.80
             457.78,188.86 471.59,195.76 471.98,210.00
             472.26,219.95 470.11,222.55 463.72,230.00
             462.06,231.93 457.60,236.49 456.78,238.58
             456.04,240.46 457.85,246.93 458.00,250.00
             470.01,242.41 479.90,233.36 495.00,232.00
             495.00,232.00 498.00,249.00 498.00,249.00
             485.75,250.92 472.80,260.70 465.00,270.00
             473.79,265.77 474.61,263.76 485.00,264.01
             498.11,264.34 504.12,273.85 504.00,286.00
             503.95,290.18 503.63,293.23 501.59,297.00
             496.06,307.17 485.51,309.76 476.00,314.78
             464.92,320.63 454.87,328.17 446.00,337.00
             442.80,340.19 432.51,349.53 432.65,354.00
             432.71,355.84 435.29,360.16 436.24,362.00
             437.78,364.99 438.87,367.38 441.21,369.91
             447.20,376.40 465.77,384.17 473.96,392.09
             484.68,402.45 483.11,414.95 486.43,420.85
             488.96,425.36 492.64,422.78 497.96,426.65
             504.90,431.71 504.09,438.42 504.00,446.00
             503.91,453.68 501.62,461.15 498.24,468.00
             487.57,489.66 467.50,503.96 443.00,504.00
             443.00,504.00 149.00,504.00 149.00,504.00
             138.55,503.98 130.27,501.51 121.00,496.74
             113.00,492.63 111.20,488.13 102.00,488.00
             102.00,488.00 69.00,488.00 69.00,488.00
             63.42,487.99 60.38,487.85 55.00,485.91
             24.14,474.80 29.35,441.88 26.28,416.00
             26.28,416.00 24.91,396.00 24.91,396.00
             24.91,396.00 21.91,358.00 21.91,358.00
             21.91,358.00 14.91,269.00 14.91,269.00
             14.91,269.00 8.91,193.00 8.91,193.00
             8.91,193.00 7.00,168.00 7.00,168.00
             7.00,168.00 44.00,168.00 44.00,168.00 Z
           M 41.00,25.00
           C 41.00,25.00 25.00,28.00 25.00,28.00
             25.00,28.00 36.58,73.00 36.58,73.00
             36.58,73.00 53.00,135.00 53.00,135.00
             53.00,135.00 59.13,158.00 59.13,158.00
             59.13,158.00 62.70,167.01 62.70,167.01
             62.70,167.01 77.00,168.00 77.00,168.00
             77.00,168.00 67.87,131.00 67.87,131.00
             67.87,131.00 48.13,53.00 48.13,53.00
             48.13,53.00 41.00,25.00 41.00,25.00 Z
           M 239.00,195.00
           C 274.11,182.72 289.64,138.23 272.10,106.00
             258.72,81.42 233.30,69.68 206.00,73.29
             177.15,77.10 153.05,103.87 153.00,133.00
             152.98,143.99 152.69,148.40 157.01,159.00
             158.05,161.55 159.78,166.21 162.39,167.43
             164.41,168.37 176.01,168.00 179.00,168.00
             170.43,152.68 167.79,151.32 168.00,133.00
             168.39,99.90 205.30,78.96 235.00,91.46
             249.12,97.41 260.82,111.93 263.77,127.00
             264.16,130.45 264.04,135.41 263.77,139.00
             263.87,149.96 259.30,160.00 251.91,168.00
             251.91,168.00 241.02,178.32 241.02,178.32
             239.32,181.15 239.00,191.42 239.00,195.00 Z
           M 233.00,109.00
           C 223.53,105.00 223.20,105.00 213.00,105.00
             213.00,105.00 219.00,122.00 219.00,122.00
             224.01,118.64 230.21,114.42 233.00,109.00 Z
           M 197.00,112.00
           C 190.62,115.16 186.74,122.04 186.00,129.00
             186.00,129.00 203.00,128.00 203.00,128.00
             203.00,128.00 197.00,112.00 197.00,112.00 Z
           M 245.00,124.00
           C 245.00,124.00 231.00,134.00 231.00,134.00
             231.00,134.00 231.00,136.00 231.00,136.00
             231.00,136.00 246.00,144.00 246.00,144.00
             247.94,137.17 247.16,130.66 245.00,124.00 Z
           M 186.00,129.00
           C 186.00,129.00 185.00,129.00 185.00,129.00
             185.00,129.00 186.00,130.00 186.00,130.00
             186.00,130.00 186.00,129.00 186.00,129.00 Z
           M 205.00,145.00
           C 205.00,145.00 187.00,146.00 187.00,146.00
             188.48,153.28 193.70,160.01 201.00,162.00
             201.00,162.00 205.00,145.00 205.00,145.00 Z
           M 222.00,150.00
           C 222.00,150.00 217.00,167.00 217.00,167.00
             225.37,166.82 230.92,164.96 237.00,159.00
             237.00,159.00 222.00,150.00 222.00,150.00 Z
           M 400.00,248.00
           C 400.00,248.00 402.28,216.00 402.28,216.00
             402.28,216.00 405.83,179.00 405.83,179.00
             406.10,176.20 406.67,167.55 401.29,169.66
             398.82,170.62 398.47,174.73 398.08,177.00
             398.08,177.00 394.00,199.00 394.00,199.00
             390.61,215.97 385.80,232.59 380.33,249.00
             380.33,249.00 372.34,273.00 372.34,273.00
             372.25,277.62 375.57,279.01 375.96,286.00
             376.61,297.69 372.12,300.91 364.00,308.00
             364.00,308.00 380.00,314.00 380.00,314.00
             383.50,306.81 391.04,295.94 395.67,289.00
             407.68,270.99 420.87,253.60 434.75,237.00
             434.75,237.00 450.27,219.00 450.27,219.00
             451.78,217.20 455.01,213.91 454.26,211.32
             453.54,208.88 450.68,209.54 449.00,210.33
             446.80,211.36 441.19,216.04 439.00,217.80
             434.35,221.52 420.57,231.49 418.31,236.01
             416.60,239.45 417.00,245.13 417.00,249.00
             417.00,249.00 400.00,248.00 400.00,248.00 Z
           M 223.00,184.00
           C 223.00,184.00 25.00,184.00 25.00,184.00
             25.00,184.00 29.09,236.00 29.09,236.00
             29.09,236.00 31.00,264.00 31.00,264.00
             31.00,264.00 64.00,264.00 64.00,264.00
             60.23,256.27 56.24,253.24 56.01,244.00
             55.57,225.78 66.17,220.90 80.00,212.60
             85.06,209.56 96.90,202.08 102.00,200.63
             111.56,197.92 122.37,201.67 128.79,209.02
             131.70,212.35 133.27,216.00 135.00,220.00
             141.02,218.87 144.47,216.30 151.00,216.04
             165.38,215.46 172.66,224.66 182.00,234.00
             191.84,243.84 199.86,249.14 200.00,264.00
             200.00,264.00 214.00,264.00 214.00,264.00
             214.00,264.00 216.16,245.00 216.16,245.00
             216.16,245.00 220.72,203.00 220.72,203.00
             220.72,203.00 223.00,184.00 223.00,184.00 Z
           M 104.00,264.00
           C 104.18,255.90 106.83,250.11 112.18,244.00
             114.68,241.15 121.47,235.58 121.77,232.00
             122.00,229.18 117.00,217.31 109.00,217.10
             103.04,216.95 86.79,228.06 81.00,231.60
             77.85,233.53 74.68,235.27 73.51,239.04
             71.57,245.32 76.07,251.11 79.33,256.00
             84.21,263.29 84.28,263.98 93.00,264.00
             93.00,264.00 104.00,264.00 104.00,264.00 Z
           M 183.00,264.00
           C 182.77,262.03 182.76,260.86 181.83,259.00
             180.08,255.51 164.68,240.37 161.00,237.11
             157.64,234.12 154.63,232.45 150.00,233.23
             144.27,234.19 136.22,243.78 132.00,248.00
             126.83,253.17 121.88,256.41 121.00,264.00
             121.00,264.00 183.00,264.00 183.00,264.00 Z
           M 442.00,256.00
           C 436.60,260.47 430.46,269.21 426.13,275.00
             426.13,275.00 401.05,311.00 401.05,311.00
             398.30,315.34 390.17,326.11 391.18,331.00
             391.58,332.97 393.14,335.43 394.39,336.98
             401.00,345.19 407.15,342.85 416.00,345.00
             431.62,323.75 452.66,305.56 477.00,295.00
             481.33,293.12 487.02,290.75 486.75,285.06
             486.69,283.90 486.37,282.77 485.40,282.04
             481.95,279.45 473.19,285.59 470.00,287.42
             470.00,287.42 441.00,304.00 441.00,304.00
             438.63,305.36 431.49,309.94 429.10,309.76
             426.15,309.53 422.33,302.60 421.56,300.02
             419.65,293.61 429.05,293.46 433.16,287.79
             434.63,285.77 436.14,280.57 437.00,278.00
             440.01,268.98 441.97,265.74 442.00,256.00 Z
           M 320.00,309.00
           C 322.36,309.48 324.74,309.96 327.00,310.81
             332.15,312.76 334.39,315.94 337.96,314.18
             343.92,311.24 342.92,302.51 345.01,299.39
             346.85,296.63 352.12,295.06 354.94,293.04
             356.92,291.62 358.87,289.73 358.26,287.04
             357.15,282.21 348.40,280.49 345.59,277.37
             342.63,274.06 344.55,266.75 337.98,265.33
             332.69,264.19 327.14,270.39 326.05,275.00
             325.11,278.95 327.99,280.22 327.99,289.00
             327.99,298.54 324.77,301.36 320.00,309.00 Z
           M 465.00,270.00
           C 465.00,270.00 464.00,270.00 464.00,270.00
             464.00,270.00 465.00,271.00 465.00,271.00
             465.00,271.00 465.00,270.00 465.00,270.00 Z
           M 212.00,280.00
           C 212.00,280.00 201.00,280.00 201.00,280.00
             192.16,280.06 189.79,284.37 183.00,289.80
             176.33,295.14 161.17,308.43 154.00,310.89
             150.67,312.04 147.48,312.07 144.00,311.99
             130.50,311.66 124.72,302.79 117.37,293.00
             110.68,284.08 110.56,280.02 100.00,280.00
             100.00,280.00 33.00,280.00 33.00,280.00
             33.00,280.00 33.91,293.00 33.91,293.00
             33.91,293.00 35.83,318.00 35.83,318.00
             35.83,318.00 40.09,375.00 40.09,375.00
             40.09,375.00 42.96,408.00 42.96,408.00
             42.96,408.00 45.83,444.00 45.83,444.00
             46.63,452.29 46.16,457.04 52.33,463.91
             61.94,474.62 82.66,472.00 96.00,472.00
             90.57,459.37 79.39,432.55 98.00,425.01
             100.42,424.03 102.47,424.06 105.00,424.00
             107.96,408.27 108.76,394.78 123.00,384.64
             130.80,379.08 137.85,380.73 143.47,374.67
             147.48,370.35 147.65,365.13 149.88,360.00
             152.19,354.69 156.47,349.94 161.00,346.39
             170.70,338.79 182.46,340.82 189.98,336.01
             195.75,332.32 196.15,327.37 199.47,322.00
             203.22,315.92 206.92,313.92 208.60,310.72
             210.02,307.99 209.91,304.05 210.28,301.00
             210.28,301.00 212.00,280.00 212.00,280.00 Z
           M 168.00,280.00
           C 168.00,280.00 129.00,280.00 129.00,280.00
             131.30,284.00 136.16,291.32 140.17,293.55
             149.27,298.60 162.06,286.10 168.00,280.00 Z
           M 278.00,320.00
           C 278.96,316.71 279.75,307.40 281.60,305.60
             285.32,301.97 293.59,307.54 299.00,304.36
             300.71,303.36 303.53,300.48 305.00,299.00
             306.35,297.63 308.39,295.60 309.40,294.00
             312.62,288.90 310.66,283.15 305.00,281.03
             300.90,279.49 288.95,280.00 284.00,280.00
             284.00,280.00 288.00,294.00 288.00,294.00
             288.00,294.00 272.00,299.00 272.00,299.00
             270.99,295.96 267.86,284.46 265.49,283.13
             262.82,281.62 258.93,284.55 257.02,286.21
             249.18,293.02 249.00,298.48 249.00,308.00
             249.00,308.00 262.00,304.00 262.00,304.00
             262.00,304.00 267.00,320.00 267.00,320.00
             267.00,320.00 255.00,324.00 255.00,324.00
             258.74,332.77 266.26,337.89 275.00,341.00
             275.00,341.00 280.00,325.00 280.00,325.00
             280.00,325.00 296.00,330.00 296.00,330.00
             296.00,330.00 292.00,344.00 292.00,344.00
             298.29,344.00 317.25,344.86 321.98,342.57
             328.24,339.54 328.58,331.57 322.94,327.74
             320.05,325.77 312.68,325.26 309.00,324.73
             309.00,324.73 278.00,320.00 278.00,320.00 Z
           M 73.00,296.53
           C 83.94,294.74 93.57,296.34 100.35,306.00
             109.30,318.74 102.76,339.83 87.00,343.47
             76.70,345.85 65.84,342.82 59.65,334.00
             56.67,329.77 56.06,326.02 56.00,321.00
             55.88,308.78 60.75,300.19 73.00,296.53 Z
           M 78.04,313.45
           C 69.02,317.34 73.59,328.72 81.96,326.55
             87.53,325.12 87.80,318.42 85.26,315.43
             83.22,313.02 80.84,313.17 78.04,313.45 Z
           M 234.00,319.00
           C 228.97,320.36 219.95,323.66 216.34,327.33
             213.14,330.57 211.94,335.15 209.65,339.00
             207.38,342.82 203.53,346.78 200.00,349.47
             190.26,356.89 178.49,354.92 171.04,359.97
             162.29,365.90 165.95,374.13 156.68,384.99
             152.96,389.33 148.30,392.44 143.00,394.54
             137.96,396.53 133.40,396.95 129.34,401.21
             124.45,406.35 123.84,417.06 122.00,424.00
             122.00,424.00 469.00,424.00 469.00,424.00
             468.29,418.95 466.41,410.11 463.35,406.09
             458.55,399.78 437.02,390.52 429.09,382.83
             420.40,374.39 422.57,366.90 414.00,362.45
             408.92,359.82 403.74,360.57 399.00,359.47
             394.72,358.48 389.35,355.50 386.01,352.67
             373.80,342.33 377.23,329.50 362.00,325.16
             360.14,324.63 356.87,323.72 355.00,324.06
             352.73,324.46 350.79,326.13 349.02,327.51
             340.73,333.96 346.09,335.02 342.52,344.00
             338.49,354.17 329.79,359.87 319.00,360.00
             319.00,360.00 286.00,360.00 286.00,360.00
             262.72,359.96 239.34,341.75 234.00,319.00 Z
           M 113.01,323.54
           C 114.29,323.39 113.87,322.73 116.00,323.54
             118.88,325.12 125.42,331.53 124.66,335.00
             124.36,336.51 117.00,344.85 124.66,347.47
             127.39,348.42 128.69,345.43 133.00,348.37
             135.12,349.81 140.80,355.25 140.80,357.91
             140.80,363.29 128.18,365.80 124.00,365.48
             117.46,364.99 111.58,362.37 107.64,356.98
             100.99,347.92 102.62,329.27 113.01,323.54 Z
           M 216.00,344.00
           C 216.00,344.00 232.00,344.00 232.00,344.00
             232.00,344.00 232.00,360.00 232.00,360.00
             232.00,360.00 216.00,360.00 216.00,360.00
             216.00,360.00 216.00,344.00 216.00,344.00 Z
           M 360.00,344.00
           C 360.00,344.00 376.00,344.00 376.00,344.00
             376.00,344.00 376.00,360.00 376.00,360.00
             376.00,360.00 360.00,360.00 360.00,360.00
             360.00,360.00 360.00,344.00 360.00,344.00 Z
           M 72.00,360.00
           C 72.00,360.00 88.00,360.00 88.00,360.00
             88.00,360.00 88.00,376.00 88.00,376.00
             88.00,376.00 72.00,376.00 72.00,376.00
             72.00,376.00 72.00,360.00 72.00,360.00 Z
           M 242.00,360.47
           C 249.42,359.43 257.18,359.58 264.00,362.99
             272.53,367.25 277.45,373.68 288.00,374.83
             311.42,377.37 311.07,359.71 336.00,360.00
             341.78,360.07 347.03,361.42 352.00,364.48
             353.85,365.62 356.80,367.58 356.80,370.04
             356.80,372.43 353.61,375.41 352.00,376.98
             350.98,377.97 349.25,379.64 348.00,380.26
             343.06,382.69 340.83,376.24 333.00,377.23
             327.81,377.88 321.59,383.20 317.00,385.91
             310.13,389.96 302.93,391.96 295.00,392.00
             284.58,392.05 279.74,392.26 270.00,387.39
             264.53,384.66 256.20,377.88 251.00,377.23
             243.80,376.32 241.10,381.83 237.00,380.68
             235.26,380.19 233.28,378.22 232.00,376.98
             230.39,375.41 227.20,372.43 227.20,370.04
             227.20,365.17 238.11,361.39 242.00,360.47 Z
           M 184.00,376.00
           C 184.00,376.00 200.00,376.00 200.00,376.00
             200.00,376.00 200.00,392.00 200.00,392.00
             200.00,392.00 184.00,392.00 184.00,392.00
             184.00,392.00 184.00,376.00 184.00,376.00 Z
           M 392.00,376.00
           C 392.00,376.00 408.00,376.00 408.00,376.00
             408.00,376.00 408.00,392.00 408.00,392.00
             408.00,392.00 392.00,392.00 392.00,392.00
             392.00,392.00 392.00,376.00 392.00,376.00 Z
           M 328.00,392.00
           C 328.00,392.00 344.00,392.00 344.00,392.00
             344.00,392.00 344.00,408.00 344.00,408.00
             344.00,408.00 328.00,408.00 328.00,408.00
             328.00,408.00 328.00,392.00 328.00,392.00 Z
           M 487.00,440.00
           C 487.00,440.00 105.00,440.00 105.00,440.00
             105.02,471.27 128.67,487.65 158.00,488.00
             158.00,488.00 256.00,488.00 256.00,488.00
             256.00,488.00 432.00,488.00 432.00,488.00
             440.63,487.99 452.14,486.71 460.00,483.10
             477.34,475.14 486.99,458.67 487.00,440.00 Z" />
</svg>
