<?xml version="1.0" encoding="UTF-8" standalone="no"?>
<!DOCTYPE svg PUBLIC "-//W3C//DTD SVG 20010904//EN"
              "http://www.w3.org/TR/2001/REC-SVG-20010904/DTD/svg10.dtd">

<svg xmlns="http://www.w3.org/2000/svg"
     width="180.6mm" height="180.6mm"
     viewBox="0 0 512 512">
  <path id="Selection"
        fill="none" stroke="black" stroke-width="5"
        d="M 253.00,0.74
           C 261.80,-1.16 267.30,7.30 273.00,13.00
             273.00,13.00 317.00,57.00 317.00,57.00
             321.78,61.78 333.33,70.68 331.55,78.00
             330.54,82.18 325.04,86.95 322.00,90.00
             322.00,90.00 296.00,115.98 296.00,115.98
             291.03,120.80 286.59,124.36 280.00,119.57
             278.39,118.40 275.46,115.51 274.11,114.00
             266.39,105.36 271.25,100.79 278.00,94.00
             278.00,94.00 288.00,84.00 288.00,84.00
             289.58,82.41 293.13,79.12 293.66,77.00
             294.57,73.37 288.36,68.36 286.00,66.00
             286.00,66.00 267.00,47.00 267.00,47.00
             265.19,45.19 259.95,39.67 258.00,38.74
             253.79,36.74 249.66,42.35 247.00,45.00
             247.00,45.00 228.00,64.00 228.00,64.00
             226.06,65.94 219.71,71.98 218.74,74.00
             217.12,77.41 219.83,79.70 222.02,82.00
             222.02,82.00 237.00,97.00 237.00,97.00
             237.00,97.00 282.00,142.00 282.00,142.00
             286.08,146.08 299.63,158.57 301.26,163.00
             303.67,169.55 296.03,177.16 291.00,180.26
             288.52,181.79 285.78,182.28 283.00,181.26
             278.57,179.63 266.08,166.08 262.00,162.00
             262.00,162.00 205.00,105.00 205.00,105.00
             205.00,105.00 189.00,89.00 189.00,89.00
             186.40,86.39 182.00,82.42 180.74,79.00
             177.84,71.11 189.95,62.05 195.00,57.00
             195.00,57.00 233.00,19.00 233.00,19.00
             238.26,13.74 246.80,3.96 253.00,0.74 Z
           M 133.00,120.74
           C 142.21,118.75 149.12,129.12 155.00,135.00
             155.00,135.00 175.00,155.00 175.00,155.00
             177.99,158.03 181.79,161.39 181.79,166.00
             181.79,170.95 175.75,176.85 172.00,179.57
             163.93,185.44 158.48,178.47 153.00,173.00
             153.00,173.00 144.00,164.00 144.00,164.00
             140.81,160.84 137.70,156.25 133.00,159.37
             133.00,159.37 106.00,186.00 106.00,186.00
             103.91,188.09 98.20,193.04 98.20,196.00
             98.20,198.49 101.37,201.33 103.00,203.00
             103.00,203.00 116.00,216.00 116.00,216.00
             116.00,216.00 160.00,260.00 160.00,260.00
             164.01,264.01 178.93,278.17 180.82,282.00
             184.33,289.08 175.80,297.96 170.00,300.82
             165.26,303.17 161.58,301.08 158.00,297.89
             158.00,297.89 141.00,281.00 141.00,281.00
             141.00,281.00 83.00,223.00 83.00,223.00
             83.00,223.00 68.00,208.00 68.00,208.00
             65.31,205.30 61.36,201.79 60.45,198.00
             58.67,190.68 70.22,181.78 75.00,177.00
             75.00,177.00 113.00,139.00 113.00,139.00
             118.26,133.74 126.80,123.96 133.00,120.74 Z
           M 373.00,120.74
           C 380.38,119.15 383.09,123.12 388.00,128.00
             388.00,128.00 410.00,150.00 410.00,150.00
             410.00,150.00 442.00,182.00 442.00,182.00
             445.82,185.82 452.44,191.03 451.73,197.00
             451.24,201.07 447.73,204.23 445.00,207.00
             445.00,207.00 427.00,225.00 427.00,225.00
             423.02,228.98 412.92,240.37 408.00,241.55
             400.74,243.31 388.69,231.26 390.45,224.00
             391.66,219.00 403.89,208.14 408.00,204.00
             409.58,202.41 413.13,199.12 413.66,197.00
             414.54,193.50 409.23,189.24 407.00,187.00
             407.00,187.00 385.00,165.00 385.00,165.00
             383.04,163.05 378.84,158.20 376.00,158.20
             373.51,158.20 370.67,161.37 369.00,163.00
             369.00,163.00 355.00,177.00 355.00,177.00
             355.00,177.00 307.00,225.00 307.00,225.00
             302.75,229.25 292.64,241.06 287.00,241.73
             280.96,242.45 264.91,230.35 272.43,220.00
             272.43,220.00 295.00,197.00 295.00,197.00
             295.00,197.00 338.00,154.00 338.00,154.00
             338.00,154.00 359.00,133.00 359.00,133.00
             363.36,128.64 367.48,123.61 373.00,120.74 Z
           M 223.00,150.59
           C 225.01,150.31 225.85,149.92 228.00,150.59
             232.41,151.51 245.88,161.89 240.26,171.00
             238.40,174.02 227.25,184.75 224.00,188.00
             224.00,188.00 190.00,222.00 190.00,222.00
             185.92,226.08 173.43,239.63 169.00,241.26
             160.95,244.22 146.07,230.19 151.74,221.00
             153.57,218.03 163.87,208.13 167.00,205.00
             167.00,205.00 198.00,174.00 198.00,174.00
             203.88,168.12 216.47,154.14 223.00,150.59 Z
           M 223.00,210.74
           C 225.37,210.23 226.56,209.85 229.00,210.74
             233.24,212.30 243.28,223.28 247.00,227.00
             247.00,227.00 284.00,264.00 284.00,264.00
             287.56,267.56 299.01,278.34 300.82,282.00
             304.42,289.27 294.92,299.08 289.00,301.04
             286.68,302.11 284.20,301.92 282.00,301.04
             278.30,299.00 266.67,286.67 263.00,283.00
             263.00,283.00 225.00,245.00 225.00,245.00
             221.27,241.27 211.59,232.75 210.45,228.00
             208.79,221.15 217.65,213.52 223.00,210.74 Z
           M 343.00,210.74
           C 351.37,208.93 355.57,215.57 361.00,221.00
             361.00,221.00 397.00,257.00 397.00,257.00
             397.00,257.00 436.00,296.00 436.00,296.00
             439.85,299.85 450.39,309.19 451.55,314.00
             453.33,321.32 441.78,330.22 437.00,335.00
             437.00,335.00 396.00,376.00 396.00,376.00
             392.15,379.85 382.81,390.39 378.00,391.55
             370.68,393.33 361.78,381.78 357.00,377.00
             357.00,377.00 337.00,357.00 337.00,357.00
             334.01,353.97 330.21,350.61 330.21,346.00
             330.21,341.05 336.25,335.15 340.00,332.43
             348.07,326.56 353.52,333.53 359.00,339.00
             359.00,339.00 368.00,348.00 368.00,348.00
             371.19,351.16 374.30,355.75 379.00,352.63
             379.00,352.63 406.00,326.00 406.00,326.00
             408.09,323.91 413.80,318.96 413.80,316.00
             413.80,313.51 410.63,310.67 409.00,309.00
             409.00,309.00 396.00,296.00 396.00,296.00
             396.00,296.00 350.00,250.00 350.00,250.00
             345.92,245.92 332.37,233.43 330.74,229.00
             328.06,221.70 337.34,213.68 343.00,210.74 Z
           M 103.00,270.74
           C 105.37,270.23 106.56,269.85 109.00,270.74
             114.32,272.70 123.07,281.75 121.55,288.00
             120.34,293.00 108.11,303.86 104.00,308.00
             102.42,309.59 98.87,312.88 98.34,315.00
             97.43,318.63 103.64,323.64 106.00,326.00
             106.00,326.00 125.00,345.00 125.00,345.00
             126.81,346.81 132.05,352.33 134.00,353.26
             137.41,354.88 139.70,352.17 142.00,349.98
             142.00,349.98 157.00,335.00 157.00,335.00
             157.00,335.00 207.00,285.00 207.00,285.00
             211.78,280.22 220.68,268.67 228.00,270.45
             232.82,271.61 244.89,281.78 240.82,290.00
             238.86,293.97 221.35,310.65 217.00,315.00
             217.00,315.00 164.00,368.00 164.00,368.00
             164.00,368.00 147.00,385.00 147.00,385.00
             144.23,387.73 141.07,391.24 137.00,391.73
             131.56,392.38 127.48,387.46 124.00,384.00
             124.00,384.00 99.00,359.00 99.00,359.00
             99.00,359.00 72.00,332.00 72.00,332.00
             68.66,328.66 61.52,322.46 60.45,318.00
             58.94,311.77 65.10,306.91 69.00,303.00
             69.00,303.00 90.00,282.00 90.00,282.00
             94.07,277.93 97.85,273.42 103.00,270.74 Z
           M 343.00,270.59
           C 345.01,270.31 345.85,269.92 348.00,270.59
             352.41,271.51 365.88,281.89 360.26,291.00
             358.40,294.02 347.25,304.75 344.00,308.00
             344.00,308.00 310.00,342.00 310.00,342.00
             305.92,346.08 293.43,359.63 289.00,361.26
             280.95,364.22 266.07,350.19 271.74,341.00
             273.57,338.03 283.87,328.13 287.00,325.00
             287.00,325.00 318.00,294.00 318.00,294.00
             323.88,288.12 336.47,274.14 343.00,270.59 Z
           M 223.00,330.74
           C 231.10,328.99 234.71,334.71 240.00,340.00
             240.00,340.00 273.00,373.00 273.00,373.00
             273.00,373.00 315.00,415.00 315.00,415.00
             318.98,418.98 330.37,429.08 331.55,434.00
             333.30,441.20 322.65,449.35 318.00,454.00
             318.00,454.00 275.00,497.00 275.00,497.00
             271.00,501.00 262.43,511.08 257.00,511.73
             250.40,512.52 242.40,502.40 238.00,498.00
             238.00,498.00 194.00,454.00 194.00,454.00
             189.08,449.08 177.89,440.76 180.74,433.00
             182.30,428.76 193.28,418.72 197.00,415.00
             197.00,415.00 215.00,397.00 215.00,397.00
             218.03,394.01 221.39,390.21 226.00,390.21
             230.95,390.21 236.85,396.25 239.57,400.00
             245.44,408.07 238.47,413.52 233.00,419.00
             233.00,419.00 224.00,428.00 224.00,428.00
             222.42,429.59 218.87,432.88 218.34,435.00
             217.43,438.63 223.64,443.64 226.00,446.00
             226.00,446.00 253.00,472.63 253.00,472.63
             257.95,475.91 261.70,470.29 265.00,467.00
             265.00,467.00 292.63,439.00 292.63,439.00
             295.28,435.00 292.77,432.93 289.98,430.00
             289.98,430.00 275.00,415.00 275.00,415.00
             275.00,415.00 230.00,370.00 230.00,370.00
             225.92,365.92 212.37,353.43 210.74,349.00
             208.06,341.70 217.34,333.68 223.00,330.74 Z" />
</svg>
