<?xml version="1.0" encoding="UTF-8" standalone="no"?>
<!DOCTYPE svg PUBLIC "-//W3C//DTD SVG 20010904//EN"
              "http://www.w3.org/TR/2001/REC-SVG-20010904/DTD/svg10.dtd">

<svg xmlns="http://www.w3.org/2000/svg"
     width="121.385mm" height="121.385mm"
     viewBox="0 0 512 512">
  <path id="Selection"
        fill="none" stroke="black" stroke-width="5"
        d="M 265.00,113.00
           C 265.00,113.00 260.00,88.00 260.00,88.00
             260.00,88.00 248.58,34.00 248.58,34.00
             248.58,34.00 243.48,10.00 243.48,10.00
             242.35,-1.35 255.55,-2.66 259.43,4.19
             259.43,4.19 266.88,36.00 266.88,36.00
             266.88,36.00 278.00,88.00 278.00,88.00
             278.00,88.00 283.00,113.00 283.00,113.00
             283.00,113.00 453.00,113.00 453.00,113.00
             453.00,113.00 491.00,113.00 491.00,113.00
             494.46,113.05 498.73,113.20 501.43,115.70
             504.33,118.39 503.99,122.39 504.00,126.00
             504.00,126.00 504.00,152.00 504.00,152.00
             503.95,155.55 503.90,158.90 500.77,161.26
             497.73,163.56 491.74,163.00 488.00,163.00
             488.00,163.00 487.00,175.00 487.00,175.00
             487.00,175.00 486.00,203.00 486.00,203.00
             486.00,203.00 485.00,225.00 485.00,225.00
             485.00,225.00 484.04,237.00 484.04,237.00
             484.04,237.00 484.04,248.00 484.04,248.00
             484.04,248.00 482.96,261.00 482.96,261.00
             482.96,261.00 482.96,273.00 482.96,273.00
             482.96,273.00 482.00,285.00 482.00,285.00
             482.00,285.00 481.00,305.00 481.00,305.00
             481.00,305.00 480.00,334.00 480.00,334.00
             480.00,334.00 479.00,349.00 479.00,349.00
             479.00,349.00 478.00,369.00 478.00,369.00
             478.00,369.00 477.00,398.00 477.00,398.00
             477.00,398.00 476.00,413.00 476.00,413.00
             476.00,413.00 475.00,434.00 475.00,434.00
             475.00,434.00 474.00,463.00 474.00,463.00
             474.00,463.00 473.04,473.00 473.04,473.00
             473.04,473.00 473.04,484.00 473.04,484.00
             473.04,484.00 472.04,495.00 472.04,495.00
             471.84,499.46 472.81,506.12 469.49,509.57
             466.79,512.38 462.57,511.99 459.00,512.00
             459.00,512.00 87.00,512.00 87.00,512.00
             66.71,511.97 48.80,500.61 38.87,483.00
             34.03,474.40 33.74,466.81 32.02,464.27
             29.89,461.15 25.70,461.19 20.00,456.62
             10.58,449.08 7.87,440.60 8.00,429.00
             8.11,419.87 11.92,411.38 19.04,405.52
             22.99,402.26 30.50,399.67 32.11,395.89
             32.11,395.89 35.87,374.00 35.87,374.00
             40.09,357.09 45.62,343.60 55.35,329.00
             75.73,298.45 107.06,277.68 143.00,270.45
             159.29,267.17 171.66,268.00 188.00,268.00
             208.99,268.00 220.16,266.96 241.00,273.00
             241.00,273.00 240.00,256.00 240.00,256.00
             240.00,256.00 239.00,235.00 239.00,235.00
             239.00,235.00 238.00,220.00 238.00,220.00
             238.00,220.00 236.00,163.00 236.00,163.00
             230.03,163.00 216.60,164.63 212.74,159.66
             210.19,156.38 211.00,147.25 211.16,143.00
             211.16,143.00 211.16,120.00 211.16,120.00
             211.81,118.07 212.60,116.79 214.15,115.51
             217.26,112.93 221.20,113.02 225.00,113.00
             225.00,113.00 265.00,113.00 265.00,113.00 Z
           M 487.00,131.00
           C 487.00,131.00 228.00,131.00 228.00,131.00
             228.00,131.00 228.00,146.00 228.00,146.00
             228.00,146.00 487.00,146.00 487.00,146.00
             487.00,146.00 487.00,131.00 487.00,131.00 Z
           M 470.00,163.00
           C 470.00,163.00 253.00,163.00 253.00,163.00
             253.00,163.00 254.00,186.00 254.00,186.00
             254.00,186.00 255.00,208.00 255.00,208.00
             255.00,208.00 257.00,256.00 257.00,256.00
             257.00,256.00 258.00,270.00 258.00,270.00
             258.00,270.00 259.02,278.61 259.02,278.61
             259.02,278.61 268.00,284.12 268.00,284.12
             268.00,284.12 283.00,292.00 283.00,292.00
             287.43,281.77 295.42,270.71 304.00,263.61
             318.61,251.53 332.21,245.71 351.00,243.83
             354.12,243.52 355.66,242.95 359.00,243.18
             373.83,244.24 388.38,247.99 401.00,256.09
             438.25,279.98 450.05,327.69 428.13,366.00
             421.28,377.97 412.41,386.45 401.00,394.00
             388.44,402.30 372.04,406.86 357.00,407.00
             357.00,407.00 364.19,420.00 364.19,420.00
             368.46,431.55 365.25,444.17 356.91,452.98
             349.52,460.80 344.44,460.23 341.98,463.49
             341.98,463.49 337.13,477.00 337.13,477.00
             333.14,486.31 331.13,487.34 326.00,495.00
             326.00,495.00 455.00,495.00 455.00,495.00
             455.00,495.00 456.00,478.00 456.00,478.00
             456.00,478.00 457.00,450.00 457.00,450.00
             457.00,450.00 458.00,433.00 458.00,433.00
             458.00,433.00 459.00,413.00 459.00,413.00
             459.00,413.00 460.00,384.00 460.00,384.00
             460.00,384.00 461.00,369.00 461.00,369.00
             461.00,369.00 462.00,348.00 462.00,348.00
             462.00,348.00 463.00,319.00 463.00,319.00
             463.00,319.00 464.00,306.00 464.00,306.00
             464.00,306.00 465.00,276.00 465.00,276.00
             465.00,276.00 466.00,263.00 466.00,263.00
             466.00,263.00 467.00,235.00 467.00,235.00
             467.00,235.00 468.00,218.00 468.00,218.00
             468.00,218.00 469.00,197.00 469.00,197.00
             469.00,197.00 470.00,177.00 470.00,177.00
             470.00,177.00 470.00,163.00 470.00,163.00 Z
           M 348.00,261.30
           C 330.43,264.58 315.10,273.09 304.77,288.00
             302.61,291.12 296.98,300.26 297.80,303.96
             298.46,306.93 306.48,314.36 308.83,317.00
             314.03,322.85 320.89,333.08 324.69,340.00
             330.00,349.68 334.30,360.32 337.12,371.00
             337.94,374.12 339.62,385.22 341.57,386.86
             345.39,390.08 362.86,389.44 368.00,388.70
             377.74,387.29 387.05,383.28 395.00,377.57
             426.02,355.30 431.04,312.19 406.68,283.00
             391.89,265.29 370.29,259.08 348.00,261.30 Z
           M 324.00,398.00
           C 323.88,384.81 319.58,370.06 314.42,358.00
             299.14,322.26 266.20,295.13 228.00,287.45
             210.16,283.86 183.74,284.78 165.00,285.00
             136.52,285.34 103.76,300.89 84.04,321.01
             74.41,330.83 67.32,341.76 61.25,354.00
             54.97,366.64 50.04,383.84 50.00,398.00
             50.00,398.00 324.00,398.00 324.00,398.00 Z
           M 195.00,308.00
           C 195.00,308.00 212.00,308.00 212.00,308.00
             212.00,308.00 212.00,326.00 212.00,326.00
             212.00,326.00 195.00,326.00 195.00,326.00
             195.00,326.00 195.00,308.00 195.00,308.00 Z
           M 105.00,316.00
           C 105.00,316.00 122.00,316.00 122.00,316.00
             122.00,316.00 122.00,334.00 122.00,334.00
             122.00,334.00 105.00,334.00 105.00,334.00
             105.00,334.00 105.00,316.00 105.00,316.00 Z
           M 97.00,349.00
           C 97.00,349.00 114.00,349.00 114.00,349.00
             114.00,349.00 114.00,366.00 114.00,366.00
             114.00,366.00 97.00,366.00 97.00,366.00
             97.00,366.00 97.00,349.00 97.00,349.00 Z
           M 243.00,349.00
           C 243.00,349.00 261.00,349.00 261.00,349.00
             261.00,349.00 261.00,366.00 261.00,366.00
             261.00,366.00 243.00,366.00 243.00,366.00
             243.00,366.00 243.00,349.00 243.00,349.00 Z
           M 170.00,357.00
           C 170.00,357.00 187.00,357.00 187.00,357.00
             187.00,357.00 187.00,374.00 187.00,374.00
             187.00,374.00 170.00,374.00 170.00,374.00
             170.00,374.00 170.00,357.00 170.00,357.00 Z
           M 38.00,415.08
           C 20.88,419.60 21.67,440.27 35.00,445.16
             41.69,447.61 51.78,447.00 59.00,447.00
             59.00,447.00 102.00,447.00 102.00,447.00
             102.00,447.00 293.00,447.00 293.00,447.00
             302.17,447.00 328.77,447.78 336.00,445.96
             343.82,443.98 349.69,437.34 348.80,429.00
             347.61,417.96 338.46,415.01 329.00,415.08
             329.00,415.08 136.00,415.08 136.00,415.08
             136.00,415.08 72.00,415.08 72.00,415.08
             72.00,415.08 38.00,415.08 38.00,415.08 Z
           M 323.00,464.00
           C 323.00,464.00 51.00,464.00 51.00,464.00
             52.86,481.55 71.02,494.80 88.00,495.00
             88.00,495.00 188.00,495.00 188.00,495.00
             188.00,495.00 286.00,495.00 286.00,495.00
             303.28,494.79 320.28,481.31 323.00,464.00 Z" />
</svg>
