<?xml version="1.0" encoding="UTF-8" standalone="no"?>
<!DOCTYPE svg PUBLIC "-//W3C//DTD SVG 20010904//EN"
              "http://www.w3.org/TR/2001/REC-SVG-20010904/DTD/svg10.dtd">

<svg xmlns="http://www.w3.org/2000/svg"
     width="83.8245mm" height="83.8245mm"
     viewBox="0 0 512 512">
  <path id="Selection"
        fill="none" stroke="black" stroke-width="5"
        d="M 164.00,208.00
           C 164.00,208.00 181.32,160.00 181.32,160.00
             181.32,160.00 220.58,56.00 220.58,56.00
             226.94,39.27 233.28,14.69 256.00,16.09
             277.51,17.42 283.28,42.44 289.58,59.00
             289.58,59.00 326.42,157.00 326.42,157.00
             326.42,157.00 339.68,192.00 339.68,192.00
             341.89,197.99 345.03,204.79 346.00,211.00
             350.17,206.62 353.45,195.05 355.68,189.00
             355.68,189.00 371.58,147.00 371.58,147.00
             375.63,136.27 381.02,124.16 393.00,120.52
             421.97,111.71 429.64,146.44 437.40,166.00
             437.40,166.00 443.05,181.00 443.05,181.00
             443.05,181.00 492.05,311.00 492.05,311.00
             492.05,311.00 504.81,345.00 504.81,345.00
             508.03,353.48 511.89,361.79 512.00,371.00
             512.06,376.02 512.29,381.15 510.78,386.00
             501.39,416.16 468.77,412.00 444.00,412.00
             444.00,412.00 444.00,461.00 444.00,461.00
             444.00,468.06 444.71,479.71 442.01,486.00
             438.23,494.79 431.47,495.99 423.00,496.00
             423.00,496.00 385.00,496.00 385.00,496.00
             378.68,496.00 371.67,496.82 366.04,493.47
             358.78,489.14 358.01,482.62 358.00,475.00
             358.00,475.00 358.00,412.00 358.00,412.00
             358.00,412.00 297.00,412.00 297.00,412.00
             297.00,412.00 297.00,477.00 297.00,477.00
             296.93,490.76 290.33,495.98 277.00,496.00
             277.00,496.00 240.00,496.00 240.00,496.00
             234.50,496.00 225.80,496.73 221.00,494.31
             212.80,490.19 212.01,484.19 212.00,476.00
             212.00,476.00 212.00,412.00 212.00,412.00
             212.00,412.00 154.00,412.00 154.00,412.00
             154.00,412.00 154.00,477.00 154.00,477.00
             153.82,491.21 146.27,495.98 133.00,496.00
             133.00,496.00 89.00,496.00 89.00,496.00
             80.53,495.99 73.77,494.79 69.99,486.00
             67.29,479.71 68.00,468.06 68.00,461.00
             68.00,461.00 68.00,412.00 68.00,412.00
             43.23,412.00 10.61,416.16 1.22,386.00
             -0.29,381.15 -0.06,376.02 0.00,371.00
             0.11,361.79 3.97,353.48 7.19,345.00
             7.19,345.00 19.95,311.00 19.95,311.00
             19.95,311.00 68.95,181.00 68.95,181.00
             68.95,181.00 74.60,166.00 74.60,166.00
             82.36,146.44 90.03,111.71 119.00,120.52
             130.98,124.16 136.37,136.27 140.42,147.00
             140.42,147.00 164.00,208.00 164.00,208.00 Z
           M 255.00,63.00
           C 255.00,63.00 243.32,92.00 243.32,92.00
             243.32,92.00 224.58,142.00 224.58,142.00
             224.58,142.00 163.05,305.00 163.05,305.00
             163.05,305.00 143.81,356.00 143.81,356.00
             142.26,360.06 136.58,373.32 137.36,376.89
             138.39,381.62 144.31,380.99 148.00,381.00
             148.00,381.00 361.00,381.00 361.00,381.00
             364.62,380.99 370.69,381.62 371.59,376.89
             372.26,373.41 366.55,360.03 365.05,356.00
             365.05,356.00 345.81,305.00 345.81,305.00
             345.81,305.00 288.58,153.00 288.58,153.00
             288.58,153.00 265.95,93.00 265.95,93.00
             265.95,93.00 255.00,63.00 255.00,63.00 Z
           M 112.00,167.00
           C 108.30,171.20 106.30,178.65 104.32,184.00
             104.32,184.00 92.58,215.00 92.58,215.00
             92.58,215.00 49.20,330.00 49.20,330.00
             49.20,330.00 36.81,363.00 36.81,363.00
             35.63,366.10 32.91,372.45 35.03,375.49
             37.04,378.37 42.87,378.00 46.00,378.00
             46.00,378.00 103.00,378.00 103.00,378.00
             103.04,365.37 108.02,355.63 112.32,344.00
             112.32,344.00 133.42,288.00 133.42,288.00
             133.42,288.00 141.68,266.00 141.68,266.00
             142.96,262.53 144.92,258.75 144.38,255.00
             144.38,255.00 136.05,232.00 136.05,232.00
             136.05,232.00 122.19,195.00 122.19,195.00
             122.19,195.00 112.00,167.00 112.00,167.00 Z
           M 401.00,167.00
           C 401.00,167.00 392.19,189.00 392.19,189.00
             392.19,189.00 374.81,235.00 374.81,235.00
             374.81,235.00 368.40,252.00 368.40,252.00
             367.13,255.21 365.43,258.46 365.97,262.00
             365.97,262.00 376.19,290.00 376.19,290.00
             376.19,290.00 396.19,343.00 396.19,343.00
             400.49,354.29 405.96,365.74 406.00,378.00
             406.00,378.00 466.00,378.00 466.00,378.00
             469.13,378.00 474.96,378.37 476.97,375.49
             479.20,372.29 476.05,365.27 474.81,362.00
             474.81,362.00 462.00,328.00 462.00,328.00
             462.00,328.00 419.42,215.00 419.42,215.00
             419.42,215.00 408.42,186.00 408.42,186.00
             408.42,186.00 401.00,167.00 401.00,167.00 Z
           M 120.00,412.00
           C 120.00,412.00 102.00,412.00 102.00,412.00
             102.00,412.00 102.00,462.00 102.00,462.00
             102.00,462.00 120.00,462.00 120.00,462.00
             120.00,462.00 120.00,412.00 120.00,412.00 Z
           M 263.00,412.00
           C 263.00,412.00 246.00,412.00 246.00,412.00
             246.00,412.00 246.00,462.00 246.00,462.00
             246.00,462.00 263.00,462.00 263.00,462.00
             263.00,462.00 263.00,412.00 263.00,412.00 Z
           M 410.00,412.00
           C 410.00,412.00 392.00,412.00 392.00,412.00
             392.00,412.00 392.00,462.00 392.00,462.00
             392.00,462.00 410.00,462.00 410.00,462.00
             410.00,462.00 410.00,412.00 410.00,412.00 Z" />
</svg>
