<?xml version="1.0" encoding="UTF-8" standalone="no"?>
<!DOCTYPE svg PUBLIC "-//W3C//DTD SVG 20010904//EN"
              "http://www.w3.org/TR/2001/REC-SVG-20010904/DTD/svg10.dtd">

<svg xmlns="http://www.w3.org/2000/svg"
     width="180.6mm" height="180.6mm"
     viewBox="0 0 512 512">
  <path id="Selection"
        fill="none" stroke="black" stroke-width="5"
        d="M 123.00,297.00
           C 117.60,296.17 112.10,294.17 107.00,292.19
             82.69,282.77 64.06,264.56 55.05,240.00
             51.98,231.62 50.02,222.89 48.92,214.00
             48.92,214.00 48.92,205.00 48.92,205.00
             47.63,199.03 41.18,189.31 41.00,174.00
             41.00,174.00 41.00,157.00 41.00,157.00
             40.89,149.23 38.09,147.05 35.42,140.00
             32.83,133.14 30.75,123.33 31.04,116.00
             31.27,110.09 32.63,101.57 34.59,96.00
             35.77,92.65 39.28,84.96 38.77,81.83
             38.21,78.33 34.99,71.85 33.43,61.00
             31.46,47.31 33.08,33.33 36.37,20.00
             37.93,13.68 39.00,2.67 46.02,0.51
             53.01,-1.64 57.40,2.47 62.00,7.00
             62.00,7.00 79.00,24.00 79.00,24.00
             94.06,39.06 108.05,53.15 126.00,64.92
             140.46,74.40 151.61,78.75 167.00,85.70
             195.71,98.64 220.93,116.72 241.25,141.00
             246.47,147.25 257.24,160.79 260.00,168.00
             272.24,153.53 275.00,146.46 291.00,132.17
             310.22,115.01 343.03,101.04 369.00,101.00
             369.00,101.00 385.00,101.00 385.00,101.00
             388.71,101.00 392.75,101.65 396.00,99.52
             404.14,94.19 408.79,82.41 420.00,83.06
             422.13,83.18 423.93,83.54 425.66,84.89
             427.72,86.49 428.55,88.48 428.87,91.00
             430.02,100.19 422.79,105.10 417.00,111.00
             415.69,112.35 413.59,114.39 412.69,116.00
             411.12,118.77 411.99,124.58 412.00,128.00
             412.00,128.00 412.00,143.00 412.00,143.00
             411.99,150.80 410.63,158.42 408.88,166.00
             402.70,192.84 391.49,211.60 372.00,231.00
             365.37,237.60 354.35,246.91 346.00,251.00
             346.00,251.00 346.00,253.00 346.00,253.00
             352.98,256.42 363.87,264.82 370.00,269.92
             390.33,286.83 407.13,307.77 419.69,331.00
             419.69,331.00 440.43,375.00 440.43,375.00
             450.12,391.94 456.86,399.53 469.42,414.00
             469.42,414.00 504.00,449.00 504.00,449.00
             508.97,453.99 515.04,460.32 510.69,467.89
             507.82,472.89 497.38,474.30 492.00,475.63
             478.67,478.92 464.69,480.54 451.00,478.57
             445.15,477.73 441.63,476.85 436.00,475.12
             433.44,474.33 430.35,472.78 427.72,473.26
             427.72,473.26 414.00,478.11 414.00,478.11
             409.30,479.63 397.92,481.15 393.00,480.96
             386.20,480.70 378.36,478.98 372.00,476.58
             362.31,472.92 363.81,471.02 353.00,471.00
             343.81,470.99 335.03,471.57 326.00,469.50
             326.00,469.50 308.00,463.53 308.00,463.53
             308.00,463.53 289.00,461.57 289.00,461.57
             276.36,459.44 265.82,455.45 255.00,448.56
             241.72,440.11 230.09,427.26 223.32,413.00
             223.32,413.00 217.33,398.00 217.33,398.00
             216.50,395.67 215.69,392.62 212.87,392.11
             210.35,391.66 195.35,396.88 192.00,398.00
             181.81,401.40 170.57,403.21 164.33,413.00
             161.01,418.21 157.76,432.45 156.13,439.00
             156.13,439.00 144.87,483.00 144.87,483.00
             143.43,488.74 139.85,506.05 135.78,509.30
             131.24,512.92 120.76,512.06 115.00,512.00
             98.17,511.80 86.97,503.33 82.00,501.69
             77.91,500.35 68.41,500.89 55.00,495.13
             36.59,487.22 22.97,472.96 16.34,454.00
             12.10,441.86 12.45,434.46 11.31,431.00
             9.67,426.03 1.20,414.83 1.00,398.00
             1.00,398.00 1.00,388.00 1.00,388.00
             1.14,376.30 4.56,374.75 15.00,372.13
             15.00,372.13 26.00,369.15 26.00,369.15
             26.00,369.15 74.00,356.87 74.00,356.87
             80.55,355.24 94.79,351.99 100.00,348.67
             108.42,343.31 110.28,335.83 113.02,327.00
             113.02,327.00 123.00,297.00 123.00,297.00 Z
           M 56.00,31.00
           C 54.04,35.60 53.56,44.92 53.74,50.00
             54.36,66.69 60.30,81.37 71.29,94.00
             75.61,98.97 89.71,111.74 91.83,116.00
             95.71,123.80 87.71,132.87 80.00,129.98
             71.57,126.82 62.59,111.54 53.00,107.00
             53.00,107.00 52.08,117.00 52.08,117.00
             52.08,124.77 55.35,134.52 59.55,141.00
             65.27,149.85 73.72,154.80 75.31,161.00
             76.48,165.56 73.21,170.60 68.98,172.26
             66.92,173.08 64.20,172.98 62.00,173.00
             62.53,184.41 67.26,195.21 74.46,204.00
             77.97,208.28 85.20,214.31 86.98,219.00
             90.07,227.16 82.12,232.33 75.00,233.00
             82.40,251.21 94.95,263.93 113.00,271.71
             115.98,273.00 126.86,277.34 129.61,276.33
             132.40,275.32 137.18,264.08 139.06,261.00
             146.52,248.77 155.18,237.37 165.17,227.09
             179.32,212.52 198.45,200.06 217.00,191.86
             217.00,191.86 244.00,182.00 244.00,182.00
             231.52,156.41 199.95,126.86 175.00,113.31
             175.00,113.31 120.00,86.40 120.00,86.40
             94.63,71.27 76.63,51.63 56.00,31.00 Z
           M 390.92,122.08
           C 390.92,122.08 365.00,122.08 365.00,122.08
             344.36,124.17 319.18,135.02 304.00,149.09
             299.92,152.87 294.12,158.73 290.62,163.00
             281.48,174.15 274.18,187.61 262.00,195.91
             252.25,202.55 245.51,203.46 235.00,207.08
             235.00,207.08 219.00,213.78 219.00,213.78
             195.81,224.93 175.95,242.71 161.67,264.00
             146.62,286.44 143.85,301.46 135.67,326.00
             130.75,340.74 128.77,353.09 116.00,363.67
             106.36,371.66 91.01,374.37 79.00,377.37
             79.00,377.37 39.00,387.63 39.00,387.63
             39.00,387.63 22.00,392.00 22.00,392.00
             22.00,401.60 22.36,405.12 26.64,414.00
             28.12,417.06 30.00,421.07 34.01,420.73
             38.83,420.33 51.49,411.42 58.00,413.75
             64.84,416.20 67.49,424.22 62.58,429.79
             58.68,434.22 41.58,440.27 35.00,444.00
             42.58,462.94 50.06,470.42 69.00,478.00
             72.73,471.42 78.78,454.32 83.21,450.42
             88.78,445.51 96.80,448.16 99.25,455.00
             101.58,461.51 92.68,474.18 92.27,478.96
             91.94,482.80 96.08,484.87 99.00,486.33
             107.56,490.63 111.71,491.00 121.00,491.00
             121.00,491.00 125.37,474.00 125.37,474.00
             125.37,474.00 135.63,434.00 135.63,434.00
             138.63,421.99 141.34,406.64 149.33,397.00
             159.91,384.23 172.26,382.25 187.00,377.33
             211.54,369.15 226.56,366.38 249.00,351.33
             270.29,337.05 288.07,317.19 299.22,294.00
             305.65,280.62 309.24,263.16 316.54,252.00
             326.27,237.15 348.34,225.80 363.91,209.00
             378.11,193.68 388.82,168.82 390.92,148.00
             390.92,148.00 390.92,122.08 390.92,122.08 Z
           M 279.00,224.65
           C 282.78,223.90 285.69,223.74 288.86,226.43
             295.12,231.74 292.96,242.22 285.00,244.43
             272.95,247.76 265.69,230.38 279.00,224.65 Z
           M 271.00,260.83
           C 273.04,260.52 273.95,260.33 276.00,260.83
             289.98,265.90 278.90,285.76 274.75,294.00
             266.19,311.01 251.83,325.30 235.00,334.22
             230.62,336.54 221.78,340.57 217.00,341.24
             208.18,342.48 201.17,334.12 205.94,326.04
             208.54,321.64 213.59,320.26 218.00,318.39
             222.17,316.61 228.30,313.16 232.00,310.56
             242.31,303.32 250.99,293.19 256.74,282.00
             260.94,273.82 261.31,263.41 271.00,260.83 Z
           M 481.00,457.00
           C 476.14,450.21 461.69,436.84 455.01,430.00
             445.85,420.61 435.81,408.05 428.69,397.00
             421.94,386.52 416.31,375.45 411.42,364.00
             411.42,364.00 403.52,346.00 403.52,346.00
             391.05,322.18 376.82,303.23 356.00,285.92
             350.08,281.00 337.92,271.65 331.00,269.00
             331.00,269.00 325.56,285.00 325.56,285.00
             322.36,293.81 317.22,304.88 312.57,313.00
             300.05,334.87 281.81,354.11 261.00,368.25
             261.00,368.25 235.00,383.00 235.00,383.00
             240.71,408.05 254.87,427.19 279.00,437.00
             279.67,429.88 284.84,421.93 293.00,425.02
             297.69,426.80 303.72,434.03 308.00,437.54
             317.01,444.92 327.30,449.46 339.00,450.00
             339.02,447.80 338.92,445.08 339.74,443.02
             341.40,438.79 346.44,435.52 351.00,436.69
             357.20,438.28 362.15,446.73 371.00,452.45
             377.48,456.65 387.23,459.92 395.00,459.92
             395.00,459.92 405.00,459.00 405.00,459.00
             401.91,452.46 393.24,445.38 388.02,440.00
             385.24,437.14 381.42,433.28 381.42,429.00
             381.42,421.87 389.75,417.06 396.00,420.17
             399.04,421.69 403.48,426.48 406.00,429.00
             411.91,434.90 417.20,440.57 424.00,445.51
             435.33,453.75 450.97,458.77 465.00,458.26
             465.00,458.26 481.00,457.00 481.00,457.00 Z" />
</svg>
