<?xml version="1.0" encoding="UTF-8" standalone="no"?>
<!DOCTYPE svg PUBLIC "-//W3C//DTD SVG 20010904//EN"
              "http://www.w3.org/TR/2001/REC-SVG-20010904/DTD/svg10.dtd">

<svg xmlns="http://www.w3.org/2000/svg"
     width="76.2359mm" height="76.2359mm"
     viewBox="0 0 512 512">
  <path id="Selection"
        fill="none" stroke="black" stroke-width="5"
        d="M 24.09,38.85
           C 30.03,37.16 53.28,38.00 61.00,38.00
             61.00,38.00 138.00,38.00 138.00,38.00
             138.00,38.00 388.00,38.00 388.00,38.00
             388.00,38.00 467.00,38.00 467.00,38.00
             473.87,38.00 488.88,35.73 492.15,43.09
             493.15,45.36 493.00,48.54 493.00,51.00
             493.00,51.00 493.00,65.00 493.00,65.00
             492.85,73.59 488.77,76.22 483.00,82.00
             483.00,82.00 464.00,101.00 464.00,101.00
             455.93,109.07 453.82,113.98 442.00,114.00
             442.00,114.00 70.00,114.00 70.00,114.00
             58.18,113.98 56.07,109.07 48.00,101.00
             48.00,101.00 29.00,82.00 29.00,82.00
             23.23,76.22 19.15,73.59 19.00,65.00
             18.93,60.78 18.48,46.19 19.85,43.09
             20.94,40.65 21.99,40.16 24.09,38.85 Z
           M 473.00,57.00
           C 473.00,57.00 39.00,57.00 39.00,57.00
             39.31,65.91 45.99,69.99 52.00,76.00
             55.38,79.38 66.70,91.33 70.00,92.98
             73.09,94.52 81.25,94.00 85.00,94.00
             85.00,94.00 118.00,94.00 118.00,94.00
             118.00,94.00 386.00,94.00 386.00,94.00
             386.00,94.00 434.00,94.00 434.00,94.00
             436.09,94.00 439.06,94.12 441.00,93.40
             445.04,91.91 455.37,80.63 459.00,77.00
             465.08,70.92 472.69,66.05 473.00,57.00 Z
           M 56.00,210.00
           C 53.75,200.63 57.58,193.08 68.00,193.03
             71.15,193.02 74.14,193.46 76.83,195.23
             82.89,199.20 84.81,207.24 83.53,214.00
             80.32,231.02 60.95,235.67 47.00,228.62
             36.85,223.50 31.27,213.16 31.01,202.00
             30.58,183.36 43.34,167.44 62.00,164.16
             64.54,163.90 68.34,163.99 71.00,164.16
             94.24,164.11 110.33,180.74 114.08,203.00
             114.77,207.10 115.23,209.77 114.83,214.00
             114.13,221.32 112.16,228.51 108.68,235.00
             105.21,241.46 101.60,245.44 96.00,250.08
             68.03,273.24 27.51,264.33 8.81,234.00
             3.47,225.34 0.05,215.22 0.00,205.00
             -0.06,192.48 -0.44,187.07 4.45,175.00
             15.40,147.99 42.45,132.04 71.00,132.00
             71.00,132.00 441.00,132.00 441.00,132.00
             469.55,132.04 496.60,147.99 507.55,175.00
             512.48,187.18 512.15,193.29 512.00,206.00
             511.89,215.09 508.44,225.25 503.79,233.00
             491.71,253.18 473.34,263.27 450.00,263.00
             431.31,262.78 412.17,251.50 403.32,235.00
             390.37,210.86 398.62,177.91 425.00,167.02
             432.45,163.94 437.15,163.91 445.00,164.00
             465.74,164.25 481.46,181.63 480.99,202.00
             480.62,218.02 467.82,232.88 451.00,231.91
             427.32,230.54 422.83,206.44 433.48,196.56
             440.96,189.62 460.38,191.76 456.00,210.00
             458.47,206.95 460.79,204.17 460.79,200.00
             460.79,188.77 445.95,181.80 436.00,184.80
             425.70,187.90 416.38,201.17 417.33,212.00
             417.66,215.75 419.01,219.65 420.67,223.00
             427.46,236.67 443.83,245.79 459.00,242.10
             487.83,235.10 500.66,203.32 485.80,178.00
             475.92,161.15 458.19,152.03 439.00,152.00
             439.00,152.00 73.00,152.00 73.00,152.00
             51.75,152.03 32.54,163.24 23.73,183.00
             21.08,188.94 19.81,192.85 19.82,199.42
             19.87,220.29 34.81,239.65 56.00,242.70
             74.26,245.33 96.31,227.68 94.67,209.00
             93.50,195.64 81.13,182.08 67.00,184.21
             59.65,185.32 50.70,193.03 51.30,201.00
             51.58,204.63 53.81,207.30 56.00,210.00 Z
           M 140.00,189.57
           C 145.59,188.56 155.90,189.00 162.00,189.00
             162.00,189.00 202.00,189.00 202.00,189.00
             202.00,189.00 325.00,189.00 325.00,189.00
             325.00,189.00 364.00,189.00 364.00,189.00
             368.10,189.01 372.47,188.75 375.86,191.51
             380.21,195.07 379.99,200.91 380.00,206.00
             380.00,206.00 380.00,326.00 380.00,326.00
             379.99,330.25 380.26,334.33 377.49,337.90
             374.62,341.59 366.39,345.05 362.00,347.25
             356.89,349.80 338.16,359.69 334.00,360.43
             328.63,361.40 323.66,358.35 322.13,352.99
             321.93,351.04 322.00,348.05 322.13,346.00
             322.13,346.00 322.13,264.00 322.13,264.00
             321.99,261.08 322.29,257.67 320.40,255.23
             317.14,250.99 308.86,250.99 305.60,255.23
             303.71,257.67 304.01,261.08 304.00,264.00
             304.00,264.00 304.00,365.00 304.00,365.00
             303.98,378.26 298.30,379.13 288.00,386.00
             288.00,386.00 257.00,406.67 257.00,406.67
             252.30,409.80 244.20,416.38 239.00,417.23
             228.51,418.94 227.01,409.83 227.00,402.00
             227.00,402.00 227.00,326.00 227.00,326.00
             227.00,326.00 227.00,262.00 227.00,262.00
             226.76,249.41 214.92,250.94 211.31,254.43
             208.64,257.02 209.01,260.60 209.00,264.00
             209.00,264.00 209.00,286.00 209.00,286.00
             209.00,286.00 208.00,301.00 208.00,301.00
             208.00,301.00 208.00,344.00 208.00,344.00
             208.00,344.00 207.00,359.00 207.00,359.00
             207.00,359.00 207.00,401.00 207.00,401.00
             207.00,401.00 206.00,424.00 206.00,424.00
             205.98,437.85 200.17,438.22 189.00,445.67
             189.00,445.67 162.00,463.67 162.00,463.67
             158.05,466.30 149.18,472.90 145.00,473.72
             133.47,475.99 132.01,466.73 132.00,458.00
             132.00,458.00 132.00,255.00 132.00,255.00
             132.00,255.00 132.00,204.00 132.00,204.00
             132.09,196.82 132.74,192.45 140.00,189.57 Z
           M 360.00,209.00
           C 360.00,209.00 152.00,209.00 152.00,209.00
             152.00,209.00 152.00,446.00 152.00,446.00
             152.00,446.00 175.00,431.00 175.00,431.00
             177.35,429.43 183.66,425.60 185.01,423.48
             186.13,421.71 186.99,408.75 187.00,406.00
             187.00,406.00 187.00,363.00 187.00,363.00
             187.00,363.00 188.00,346.00 188.00,346.00
             188.00,346.00 188.00,304.00 188.00,304.00
             188.00,304.00 189.00,288.00 189.00,288.00
             189.00,288.00 189.00,262.00 189.00,262.00
             189.01,253.97 189.69,247.37 195.33,241.09
             207.16,227.91 233.32,229.10 243.30,244.00
             248.15,251.24 247.00,261.61 247.00,270.00
             247.00,270.00 247.00,322.00 247.00,322.00
             247.00,322.00 247.00,389.00 247.00,389.00
             247.00,389.00 272.00,372.67 272.00,372.67
             274.48,371.02 281.63,366.66 283.01,364.48
             284.25,362.53 284.00,359.26 284.00,357.00
             284.00,357.00 284.00,260.00 284.00,260.00
             284.01,252.40 284.78,246.93 290.19,241.04
             302.27,227.90 328.92,228.89 338.52,245.00
             343.17,252.81 342.00,265.03 342.00,274.00
             342.00,274.00 342.00,334.00 342.00,334.00
             345.41,333.03 357.15,328.03 359.01,325.37
             360.25,323.58 360.00,320.13 360.00,318.00
             360.00,318.00 360.00,209.00 360.00,209.00 Z" />
</svg>
