<?xml version="1.0" encoding="UTF-8" standalone="no"?>
<!DOCTYPE svg PUBLIC "-//W3C//DTD SVG 20010904//EN"
              "http://www.w3.org/TR/2001/REC-SVG-20010904/DTD/svg10.dtd">

<svg xmlns="http://www.w3.org/2000/svg"
     width="144.51mm" height="144.51mm"
     viewBox="0 0 512 512">
  <path id="Selection"
        fill="none" stroke="black" stroke-width="5"
        d="M 170.00,0.00
           C 170.00,0.00 186.00,0.00 186.00,0.00
             186.00,0.00 179.73,45.00 179.73,45.00
             179.26,48.21 176.95,60.64 177.40,62.94
             179.08,71.46 199.48,66.56 198.49,76.04
             198.49,76.04 189.42,110.00 189.42,110.00
             189.42,110.00 172.12,175.00 172.12,175.00
             172.12,175.00 165.37,200.00 165.37,200.00
             164.72,202.50 162.79,208.17 163.07,210.42
             163.41,213.10 167.87,220.32 169.42,223.00
             169.42,223.00 184.58,249.00 184.58,249.00
             184.58,249.00 196.60,270.00 196.60,270.00
             198.27,272.80 200.48,277.12 203.21,278.86
             206.01,280.66 218.03,283.32 222.00,284.42
             222.00,284.42 265.00,296.00 265.00,296.00
             265.00,296.00 261.00,312.00 261.00,312.00
             261.00,312.00 213.00,299.00 213.00,299.00
             213.00,299.00 221.00,314.00 221.00,314.00
             221.00,314.00 209.00,320.00 209.00,320.00
             209.00,320.00 252.00,332.00 252.00,332.00
             252.00,332.00 252.00,402.00 252.00,402.00
             252.00,402.00 236.00,402.00 236.00,402.00
             236.00,402.00 236.00,354.00 236.00,354.00
             236.00,354.00 234.40,345.56 234.40,345.56
             234.40,345.56 224.00,341.71 224.00,341.71
             224.00,341.71 200.00,335.37 200.00,335.37
             200.00,335.37 189.58,333.08 189.58,333.08
             189.58,333.08 172.00,342.00 172.00,342.00
             172.00,342.00 194.15,381.00 194.15,381.00
             196.25,384.67 203.02,395.56 203.52,399.00
             204.01,402.41 200.23,414.02 199.15,418.00
             199.15,418.00 188.00,460.00 188.00,460.00
             188.00,460.00 180.71,487.00 180.71,487.00
             180.00,489.50 179.13,495.33 176.57,496.34
             174.15,497.30 164.85,494.22 162.00,493.42
             162.00,493.42 125.00,484.00 125.00,484.00
             125.00,484.00 129.12,468.00 129.12,468.00
             129.12,468.00 138.71,432.00 138.71,432.00
             138.71,432.00 144.52,407.00 144.52,407.00
             144.52,407.00 133.28,386.00 133.28,386.00
             133.28,386.00 105.00,337.00 105.00,337.00
             105.00,337.00 103.00,346.00 103.00,346.00
             103.00,346.00 85.00,341.00 85.00,341.00
             85.00,341.00 85.00,512.00 85.00,512.00
             85.00,512.00 70.00,512.00 70.00,512.00
             70.00,512.00 70.00,346.00 70.00,346.00
             69.99,342.93 70.48,339.17 67.69,337.14
             65.75,335.73 51.31,332.22 48.00,331.37
             48.00,331.37 8.00,321.00 8.00,321.00
             8.00,321.00 25.13,256.00 25.13,256.00
             25.13,256.00 31.29,233.00 31.29,233.00
             31.29,233.00 34.27,223.39 34.27,223.39
             34.27,223.39 50.00,213.00 50.00,213.00
             23.38,210.60 0.31,182.13 0.00,156.00
             -0.15,142.77 0.03,135.39 5.89,123.00
             15.41,102.88 37.67,88.26 60.00,88.00
             77.73,87.80 93.87,92.63 106.99,105.09
             116.79,114.41 121.30,124.33 125.00,137.00
             125.00,137.00 147.00,58.00 147.00,58.00
             147.00,58.00 161.00,62.00 161.00,62.00
             161.00,62.00 170.00,0.00 170.00,0.00 Z
           M 275.00,0.00
           C 275.00,0.00 512.00,0.00 512.00,0.00
             512.00,0.00 512.00,512.00 512.00,512.00
             512.00,512.00 275.00,512.00 275.00,512.00
             275.00,512.00 275.00,481.00 275.00,481.00
             274.95,472.07 273.32,471.76 269.86,464.00
             269.86,464.00 257.22,437.00 257.22,437.00
             255.82,434.04 250.60,424.73 250.70,422.09
             250.84,418.37 257.13,415.52 260.00,413.80
             271.55,406.87 274.98,407.24 275.00,396.00
             275.00,396.00 275.00,0.00 275.00,0.00 Z
           M 442.00,15.00
           C 442.00,15.00 291.00,15.00 291.00,15.00
             291.00,15.00 291.00,321.00 291.00,321.00
             291.00,321.00 291.00,406.00 291.00,406.00
             291.00,407.88 291.12,411.11 290.40,412.79
             288.80,416.52 275.06,423.83 271.00,426.00
             273.67,440.26 290.82,462.56 291.00,476.00
             291.00,476.00 291.00,497.00 291.00,497.00
             291.00,497.00 322.00,497.00 322.00,497.00
             322.00,497.00 322.00,426.00 322.00,426.00
             322.00,426.00 338.00,426.00 338.00,426.00
             338.00,426.00 338.00,497.00 338.00,497.00
             338.00,497.00 497.00,497.00 497.00,497.00
             497.00,497.00 497.00,15.00 497.00,15.00
             497.00,15.00 457.00,15.00 457.00,15.00
             457.00,15.00 457.00,68.00 457.00,68.00
             457.00,68.00 442.00,68.00 442.00,68.00
             442.00,68.00 442.00,15.00 442.00,15.00 Z
           M 378.00,45.00
           C 378.00,45.00 394.00,45.00 394.00,45.00
             394.00,45.00 394.00,240.00 394.00,240.00
             394.00,240.00 393.37,248.00 393.37,248.00
             393.37,248.00 376.86,280.00 376.86,280.00
             376.86,280.00 369.48,295.42 369.48,295.42
             369.48,295.42 377.00,309.00 377.00,309.00
             377.00,309.00 394.83,338.00 394.83,338.00
             394.83,338.00 394.83,345.00 394.83,345.00
             394.83,345.00 394.83,479.00 394.83,479.00
             394.83,479.00 379.00,479.00 379.00,479.00
             379.00,479.00 379.00,351.00 379.00,351.00
             378.99,348.22 379.14,345.67 378.19,343.00
             378.19,343.00 359.00,312.00 359.00,312.00
             356.74,308.53 350.43,299.85 350.61,296.00
             350.76,292.68 356.70,282.33 358.58,279.00
             358.58,279.00 371.25,255.00 371.25,255.00
             375.95,245.69 377.98,245.77 378.00,235.00
             378.00,235.00 378.00,45.00 378.00,45.00 Z
           M 322.00,67.00
           C 322.00,67.00 338.00,67.00 338.00,67.00
             338.00,67.00 338.00,83.00 338.00,83.00
             338.00,83.00 322.00,83.00 322.00,83.00
             322.00,83.00 322.00,67.00 322.00,67.00 Z
           M 179.00,83.00
           C 179.00,83.00 174.00,82.00 174.00,82.00
             174.00,82.00 169.58,111.00 169.58,111.00
             168.92,115.44 167.36,120.74 169.00,125.00
             169.00,125.00 179.00,83.00 179.00,83.00 Z
           M 157.00,84.00
           C 154.96,87.97 153.10,96.36 151.85,101.00
             151.85,101.00 144.12,130.00 144.12,130.00
             144.12,130.00 135.64,162.00 135.64,162.00
             135.27,166.69 140.14,174.57 144.00,177.00
             144.00,177.00 157.00,84.00 157.00,84.00 Z
           M 322.00,92.00
           C 322.00,92.00 338.00,92.00 338.00,92.00
             338.00,92.00 338.00,108.00 338.00,108.00
             338.00,108.00 322.00,108.00 322.00,108.00
             322.00,108.00 322.00,92.00 322.00,92.00 Z
           M 447.00,97.00
           C 447.00,97.00 463.00,97.00 463.00,97.00
             463.00,97.00 463.00,113.00 463.00,113.00
             463.00,113.00 447.00,113.00 447.00,113.00
             447.00,113.00 447.00,97.00 447.00,97.00 Z
           M 99.00,120.00
           C 93.41,114.54 88.32,110.43 81.00,107.45
             58.03,98.10 30.66,108.23 20.18,131.00
             16.27,139.49 15.90,144.88 16.00,154.00
             16.12,164.31 20.30,174.00 26.67,182.00
             28.96,184.88 32.93,189.49 37.00,189.23
             40.52,189.00 49.41,183.79 49.45,178.00
             49.47,173.86 45.00,168.04 44.37,163.00
             43.29,154.47 50.62,149.42 57.00,145.60
             57.00,145.60 85.00,129.42 85.00,129.42
             89.89,126.59 95.23,124.29 99.00,120.00 Z
           M 49.00,113.00
           C 56.44,110.28 61.27,111.00 69.00,111.00
             69.00,111.00 67.00,127.00 67.00,127.00
             67.00,127.00 54.00,128.00 54.00,128.00
             54.00,128.00 49.00,113.00 49.00,113.00 Z
           M 322.00,117.00
           C 322.00,117.00 338.00,117.00 338.00,117.00
             338.00,117.00 338.00,133.00 338.00,133.00
             338.00,133.00 322.00,133.00 322.00,133.00
             322.00,133.00 322.00,117.00 322.00,117.00 Z
           M 27.00,134.00
           C 28.43,126.98 33.57,121.04 40.00,118.00
             41.39,120.22 46.45,127.22 46.92,129.00
             47.60,131.51 46.50,133.06 45.02,134.98
             39.54,142.10 37.52,138.53 27.00,134.00 Z
           M 447.00,122.00
           C 447.00,122.00 463.00,122.00 463.00,122.00
             463.00,122.00 463.00,138.00 463.00,138.00
             463.00,138.00 447.00,138.00 447.00,138.00
             447.00,138.00 447.00,122.00 447.00,122.00 Z
           M 167.00,132.00
           C 167.00,132.00 166.00,132.00 166.00,132.00
             166.00,132.00 167.00,133.00 167.00,133.00
             167.00,133.00 167.00,132.00 167.00,132.00 Z
           M 108.00,135.00
           C 108.00,135.00 74.00,154.00 74.00,154.00
             71.27,155.57 63.32,159.46 62.28,162.21
             61.06,165.45 65.49,170.46 65.74,177.00
             66.10,186.31 60.88,191.09 56.00,198.00
             79.66,201.12 102.15,187.61 108.51,164.00
             111.63,152.44 109.56,146.06 108.00,135.00 Z
           M 322.00,142.00
           C 322.00,142.00 338.00,142.00 338.00,142.00
             338.00,142.00 338.00,158.00 338.00,158.00
             338.00,158.00 322.00,158.00 322.00,158.00
             322.00,158.00 322.00,142.00 322.00,142.00 Z
           M 23.00,144.00
           C 23.00,144.00 38.17,146.00 38.17,146.00
             38.17,146.00 38.17,157.57 38.17,157.57
             37.24,160.32 26.16,163.69 23.98,161.36
             20.97,158.13 22.28,148.03 23.00,144.00 Z
           M 447.00,147.00
           C 447.00,147.00 463.00,147.00 463.00,147.00
             463.00,147.00 463.00,328.00 463.00,328.00
             463.00,328.00 447.00,328.00 447.00,328.00
             447.00,328.00 447.00,147.00 447.00,147.00 Z
           M 137.00,212.00
           C 141.32,205.33 137.48,200.00 134.00,194.00
             133.04,192.34 131.34,188.99 129.61,188.15
             127.68,187.22 125.78,188.30 124.00,189.00
             124.00,189.00 137.00,212.00 137.00,212.00 Z
           M 111.00,198.00
           C 111.00,198.00 79.00,215.00 79.00,215.00
             79.00,215.00 107.72,265.00 107.72,265.00
             107.72,265.00 126.00,295.00 126.00,295.00
             126.00,295.00 131.41,258.00 131.41,258.00
             131.41,258.00 133.57,239.00 133.57,239.00
             133.57,239.00 126.40,225.00 126.40,225.00
             126.40,225.00 111.00,198.00 111.00,198.00 Z
           M 66.00,224.00
           C 66.00,224.00 60.00,226.00 60.00,226.00
             60.00,226.00 85.72,271.00 85.72,271.00
             85.72,271.00 96.21,287.02 96.21,287.02
             96.21,287.02 103.00,289.00 103.00,289.00
             103.00,289.00 66.00,224.00 66.00,224.00 Z
           M 153.00,227.00
           C 148.95,235.79 153.37,240.57 157.80,248.00
             157.80,248.00 177.00,282.00 177.00,282.00
             177.00,282.00 183.00,280.00 183.00,280.00
             183.00,280.00 153.00,227.00 153.00,227.00 Z
           M 48.00,237.00
           C 45.20,241.13 43.17,250.85 41.87,256.00
             41.87,256.00 33.00,289.00 33.00,289.00
             32.16,291.95 28.11,305.61 28.78,307.70
             29.73,310.66 40.88,312.71 44.00,313.58
             44.00,313.58 91.00,326.00 91.00,326.00
             91.00,326.00 97.00,304.00 97.00,304.00
             97.00,304.00 55.00,293.00 55.00,293.00
             55.00,293.00 60.63,273.00 60.63,273.00
             60.63,273.00 62.26,263.00 62.26,263.00
             62.26,263.00 48.00,237.00 48.00,237.00 Z
           M 148.00,262.00
           C 148.00,262.00 144.58,277.00 144.58,277.00
             144.58,277.00 141.00,304.00 141.00,304.00
             141.00,304.00 164.00,291.00 164.00,291.00
             164.00,291.00 148.00,262.00 148.00,262.00 Z
           M 192.00,294.00
           C 192.00,294.00 170.00,305.72 170.00,305.72
             170.00,305.72 122.00,333.00 122.00,333.00
             123.31,336.03 127.05,344.57 130.21,345.59
             132.21,346.23 134.31,344.90 136.00,343.99
             136.00,343.99 149.00,336.58 149.00,336.58
             149.00,336.58 199.00,308.00 199.00,308.00
             199.00,308.00 192.00,294.00 192.00,294.00 Z
           M 114.00,307.00
           C 110.48,311.41 111.17,314.00 113.00,319.00
             113.00,319.00 119.00,317.00 119.00,317.00
             119.00,317.00 114.00,307.00 114.00,307.00 Z
           M 166.00,478.00
           C 166.00,478.00 180.88,424.00 180.88,424.00
             182.03,419.62 186.80,404.49 186.17,401.00
             185.69,398.32 181.02,390.78 179.42,388.00
             179.42,388.00 165.00,363.00 165.00,363.00
             163.45,360.30 159.79,352.52 156.79,351.82
             153.54,351.06 141.38,359.06 138.00,361.00
             138.00,361.00 154.40,390.00 154.40,390.00
             154.40,390.00 161.90,405.00 161.90,405.00
             161.90,405.00 156.71,427.00 156.71,427.00
             156.71,427.00 145.00,472.00 145.00,472.00
             145.00,472.00 166.00,478.00 166.00,478.00 Z
           M 447.00,411.00
           C 447.00,411.00 463.00,411.00 463.00,411.00
             463.00,411.00 463.00,427.00 463.00,427.00
             463.00,427.00 447.00,427.00 447.00,427.00
             447.00,427.00 447.00,411.00 447.00,411.00 Z
           M 447.00,436.00
           C 447.00,436.00 463.00,436.00 463.00,436.00
             463.00,436.00 463.00,452.00 463.00,452.00
             463.00,452.00 447.00,452.00 447.00,452.00
             447.00,452.00 447.00,436.00 447.00,436.00 Z
           M 447.00,461.00
           C 447.00,461.00 463.00,461.00 463.00,461.00
             463.00,461.00 463.00,477.00 463.00,477.00
             463.00,477.00 447.00,477.00 447.00,477.00
             447.00,477.00 447.00,461.00 447.00,461.00 Z" />
</svg>
