<svg width="122" height="117" viewBox="0 0 122 117" fill="none" xmlns="http://www.w3.org/2000/svg">
<path d="M30.1201 32.0339C28.8623 33.4571 26.2571 34.5334 24.3916 35.0405C18.7254 36.5833 11.6121 35.4232 7.20609 31.534C-0.447688 24.7745 -1.15254 13.9296 5.8188 6.45018C7.34557 4.81173 9.58467 3.34071 11.6893 2.47723C17.8238 -0.0438255 25.0815 0.649825 30.3692 4.65147C34.2546 7.59111 37.069 12.3917 37.094 17.2041V19.8352C37.0541 23.0691 35.5124 26.7095 33.358 29.1636L38.0902 33.4691L45.8112 40.8839C48.7652 37.2793 56.6008 35.3969 61.2533 35.5596C64.013 35.6576 64.9893 35.6552 67.729 36.3752C68.4911 36.5761 69.9582 37.2506 70.6356 36.8632C71.2309 36.5259 71.8261 35.2654 72.1574 34.665L74.8971 29.8812C75.1611 29.4052 75.7888 28.47 75.8037 27.9677C75.8286 27.2406 74.7078 26.0398 74.2894 25.3366C73.2906 23.6623 72.9693 22.7103 72.9594 20.792V19.3569C73.0217 14.3937 77.6543 10.6193 82.6729 10.5092C84.3193 10.4733 85.6318 10.7197 87.1561 11.3344C96.7327 15.2069 94.1499 29.7592 83.4201 29.9027C82.8049 29.8884 80.6605 29.7401 80.2645 29.9027C79.6119 30.2328 79.0789 31.424 78.7427 32.0339L75.871 37.0569C75.5995 37.5401 74.6979 38.7743 74.8473 39.2885C74.9818 39.7645 76.0353 40.4295 76.4463 40.7548C77.3529 41.4747 78.8249 42.8812 79.5696 43.7542C81.3853 45.883 82.8025 48.3323 83.7464 50.9299C84.0652 51.8101 84.6754 54.9244 85.0964 55.331C85.8211 56.027 88.11 55.4865 89.1486 55.4745H92.8846L96.1225 55.2258H100.108L102.598 54.9961C103.956 54.9818 107.186 55.1325 108.302 54.7211C109.213 54.3862 109.51 53.5179 110.122 52.8482C111.049 51.8316 112.145 51.1428 113.557 50.973C115.552 50.7338 117.721 51.0304 119.206 52.444C122.237 55.3286 121.477 60.9878 116.546 62.3393C114.571 62.8798 112.386 62.4708 110.822 61.1648C110.11 60.5716 109.261 59.3231 108.773 59.0767C108.329 58.8758 106.486 59.0624 105.836 59.0767L90.1449 59.5407L84.9145 59.7799C84.8996 64.547 82.7701 69.8929 79.4351 73.4137L84.1673 77.7192L91.8884 85.134C93.2109 83.6798 95.9307 82.558 97.8659 82.0605C103.619 80.587 110.314 81.8069 114.802 85.6531C122.005 91.829 123.104 102.533 116.929 109.771C115.238 111.751 113.44 113.117 111.066 114.255C107.383 116.025 105.333 116.033 101.353 115.99C99.1362 115.963 96.8547 115.31 94.8772 114.373C84.5609 109.488 81.6866 96.6702 88.6505 88.0043L79.9332 79.8719C79.2981 79.2619 77.1885 77.0303 76.4463 76.9011C75.7365 76.7791 74.3292 77.8914 73.7066 78.2717C72.0652 79.2715 69.8486 80.2115 67.9781 80.7258C64.4438 81.6993 62.6032 81.5845 59.0117 81.5462C56.4837 81.5175 54.409 80.7114 52.0379 80.1111L48.2396 87.7651C47.9682 88.289 46.668 90.6043 46.678 91.0133C46.6904 91.5802 47.4177 92.159 47.7963 92.5489C48.6008 93.3789 49.2583 94.1658 49.8013 95.18C51.8312 98.9712 51.5572 104.147 48.9271 107.618C44.5086 113.447 35.3156 114.074 30.1425 108.811C27.7565 106.384 26.7403 103.26 26.8922 99.9638C27.1264 94.8117 31.1014 90.3651 36.3468 89.3223C36.9968 89.1931 38.942 89.0161 39.5846 89.1142C40.2446 89.1285 41.7042 89.4155 42.272 89.1142C42.9545 88.8415 43.5398 87.4638 43.881 86.8084L46.8698 81.0678C47.1363 80.5536 47.9233 79.1974 47.9134 78.6855C47.8934 77.8244 44.8349 75.8104 44.0678 75.0857C41.8984 73.0263 39.1413 69.4073 38.5883 66.4772L26.8823 69.558L17.1687 71.9786C17.1612 74.3753 16.5984 76.2194 14.6556 77.8794C11.0566 80.9554 4.73287 80.0465 2.31445 76.0448C-0.228511 71.8351 1.7142 66.1041 6.70796 64.669C8.95952 64.0208 11.6868 64.2791 13.6818 65.5133C15.3057 66.5155 15.6967 67.7976 16.9296 67.7665L22.6482 66.3385L37.343 62.6502C36.6058 58.6988 37.0989 53.7093 38.6382 49.9731C39.3405 48.2725 39.9408 47.189 40.9968 45.6677C41.3355 45.1798 42.0454 44.3618 41.9308 43.7542C41.7963 43.0414 39.4725 41.0155 38.8374 40.4056L30.1201 32.0339ZM17.9159 7.23711C11.9832 8.60528 12.0604 16.19 17.1687 17.8954C18.0554 18.192 19.4825 18.2374 20.4066 18.082C24.1924 17.4433 26.1425 12.8796 24.145 9.78927C22.6581 7.48826 20.551 6.95487 17.9159 7.23711ZM28.8748 27.9677C28.8698 26.2407 28.6855 24.9682 27.7914 23.4231C23.9682 16.8167 13.632 16.9697 10.2746 23.9015C9.56474 25.3701 9.45267 26.3843 9.44768 27.9677H28.8748ZM59.5099 43.5868C58.1724 43.8379 57.1089 44.2541 56.0254 45.0769C50.5933 49.203 53.4576 58.0769 60.5061 58.4046C69.2633 58.8136 71.7265 47.9089 64.7402 44.3091C62.9744 43.4002 61.4575 43.4002 59.5099 43.5868ZM72.7103 71.9786C72.7078 70.144 72.5534 68.9002 71.739 67.1948C67.6194 58.5768 54.7701 58.5385 50.3866 66.9556C49.4949 68.6706 49.3007 70.101 49.2982 71.9786H72.7103ZM101.602 87.6049C95.6692 88.973 95.7464 96.5577 100.855 98.2632C101.741 98.5598 103.169 98.6052 104.093 98.4497C107.878 97.8111 109.829 93.2474 107.831 90.157C106.344 87.856 104.237 87.3226 101.602 87.6049ZM112.561 108.335C112.556 106.608 112.372 105.336 111.477 103.791C107.654 97.1844 97.318 97.3375 93.9606 104.269C93.2508 105.738 93.1387 106.752 93.1337 108.335H112.561Z" fill="#FF511A" stroke="#FF511A" stroke-width="0.999877"/>
</svg>
