<svg width="120" height="109" viewBox="0 0 120 109" fill="none" xmlns="http://www.w3.org/2000/svg">
<path d="M28.7942 63.2279C27.1583 62.5275 23.1772 59.8707 21.4804 58.7892L10.0223 51.5511C7.2626 49.7948 3.1523 47.6745 1.46039 45.1326C-2.61822 39.0079 2.30878 31.3057 10.5099 31.2951H38.5458C39.1918 31.293 40.0695 31.3696 40.5692 30.9545C41.0227 30.5798 41.4981 29.1002 41.715 28.5276L43.9896 22.3539L48.4607 10.2194L50.7109 4.68442C52.8026 1.35277 56.2815 -0.0416325 60.4869 0.000944537C64.1096 0.0392639 67.3106 1.76151 69.1488 4.47154C69.8899 5.56577 71.0845 9.02728 71.6208 10.4323L76.1699 22.7797L78.2836 28.5276C78.503 29.1024 78.9735 30.5777 79.4294 30.9545C79.9292 31.3696 80.8068 31.293 81.4529 31.2951H109.489C117.685 31.3057 122.622 39.0122 118.538 45.1326C116.927 47.551 112.205 50.1929 109.489 51.8832L97.543 59.4258C95.8462 60.4881 92.9183 62.4934 91.2045 63.2279L97.7868 80.8974C98.7254 83.3562 100.924 88.3228 100.956 90.6901C100.985 92.9595 100.812 94.273 99.3105 96.2251C96.936 99.3077 96.0876 97.8707 96.0803 100.696V106.231C96.0632 107.263 95.9242 108.01 94.8516 108.628C94.1104 109.056 93.2694 108.996 92.4234 108.998H71.945C71.0966 108.996 70.2799 109.051 69.5535 108.596C68.1297 107.704 68.2419 105.771 69.7729 105.019C70.4335 104.696 71.2161 104.743 71.945 104.741H91.2045C91.2045 98.2241 91.9407 91.9248 84.3783 88.1078C83.3008 87.5649 81.6918 86.9923 80.4777 86.7539C77.9593 86.2621 73.4565 86.4281 70.7261 86.4324C68.2833 86.4367 68.5807 86.6006 66.9937 89.6257L63.4465 96.438C62.7566 97.792 62.0423 99.7995 59.9993 99.7995C57.9563 99.7995 57.242 97.792 56.5521 96.438L53.005 89.6257C51.4179 86.6006 51.7153 86.4367 49.2725 86.4324H42.6902C36.3175 86.4984 30.7591 90.1089 29.2574 95.5865C28.6503 97.8005 28.7942 102.318 28.7942 104.741H48.0536C48.902 104.743 49.7187 104.687 50.4427 105.143C51.8031 105.992 51.7178 107.783 50.4427 108.57C49.6675 109.047 48.7069 108.996 47.8098 108.968H27.5752C27.0925 108.998 26.3197 109.015 25.8687 108.968C24.0476 108.47 23.9208 107.18 23.9184 105.805V100.696C23.911 97.8707 23.0626 99.3077 20.6881 96.2251C19.1108 94.1793 19.0109 92.8424 19.0425 90.4772C19.0742 88.3207 21.3342 83.1944 22.2118 80.8974L28.7942 63.2279ZM95.1051 93.4576C96.1046 92.8679 96.1193 91.8865 96.0705 90.903C96.0218 89.9067 94.7175 86.5388 94.2908 85.368L87.9547 68.55L86.3287 64.2923C86.0507 63.5494 85.6924 62.7276 86.0215 61.9506C86.3969 61.0714 87.4428 60.471 88.279 59.9452L92.1796 57.48L108.026 47.4744C110.722 45.7947 114.701 44.0107 115.015 40.8749C115.098 40.0596 114.811 39.0526 114.408 38.3203C113.15 36.0403 111.205 35.5571 108.514 35.5528H78.7712C77.9228 35.5507 77.089 35.6103 76.343 35.1824C75.2338 34.548 74.99 33.5943 74.6218 32.5724L72.9202 28.1018L66.5012 10.6452C65.4553 7.89899 64.9799 5.15703 61.2183 4.40341C59.051 3.96913 56.5863 4.74403 55.36 6.38751C54.8139 7.11983 54.4653 8.11188 54.1483 8.94213L46.8346 28.7405C46.23 30.3243 45.15 34.3266 43.6556 35.1824C42.9096 35.6103 42.0759 35.5507 41.2275 35.5528H10.9975C7.57221 35.589 4.66136 37.688 4.98316 40.8749C5.29765 44.0065 9.27874 45.7968 11.9726 47.4744L27.819 57.48L31.7196 59.9452C32.5583 60.4753 33.5993 61.065 33.9771 61.9506C34.3063 62.7276 33.9479 63.5494 33.67 64.2923L32.0439 68.55L25.7078 85.368C25.1129 86.9987 23.8501 89.9663 23.9281 91.5416C23.9695 92.3825 24.0671 92.9701 24.8935 93.4576C25.2885 91.993 26.3538 90.2026 27.3704 88.987C28.2091 87.9843 29.6742 86.6538 30.7445 85.8321C36.5516 81.3764 43.385 82.1747 50.4915 82.1747V80.0458C50.4525 78.2086 48.98 77.7701 47.6075 76.4268C46.1959 75.0473 45.0452 73.2952 44.404 71.5304C43.424 68.8417 43.6654 67.0407 43.6654 64.2923V54.9254C43.6678 53.3692 43.8872 52.3388 44.5479 50.8805C45.0355 49.7991 45.5937 49.0327 46.4056 48.113C48.9629 45.205 52.8709 43.4743 57.0738 43.4296H60.2431H66.8254H74.8705C75.8579 43.4338 76.7063 43.4125 77.54 43.9639C78.8029 44.7984 78.7687 45.8054 78.7712 47.0486V50.6677C78.7517 52.028 78.3982 53.6544 77.8423 54.9254C76.8842 57.1032 76.3381 56.6774 76.3333 59.1831C76.3259 63.313 76.8428 67.8198 75.2752 71.7433C74.5243 73.6188 73.4663 75.1239 72.006 76.6397C71.3867 77.2783 69.9216 78.364 69.6534 78.9835C69.4267 79.5094 69.5071 81.4977 69.5071 82.1747C76.6258 82.1747 83.4422 81.3721 89.2541 85.8321C90.3244 86.6538 91.7896 87.9843 92.6282 88.987C93.6448 90.2026 94.7102 91.993 95.1051 93.4576ZM91.2045 11.4968C91.2045 10.7368 91.0972 9.62549 91.5238 8.96129C92.3844 7.62437 94.598 7.52644 95.6195 8.76969C96.2241 9.50415 96.0803 10.6239 96.0803 11.4968C96.9506 11.4968 98.2232 11.4031 98.9838 11.7756C100.59 12.5654 100.52 14.5133 99.1983 15.3266C98.3402 15.8566 97.0871 15.7545 96.0803 15.7545C96.0803 16.6337 96.1973 17.7279 95.5902 18.4773C94.659 19.6311 92.4283 19.6928 91.5238 18.2899C91.0972 17.6257 91.2045 16.5145 91.2045 15.7545C90.2049 15.7545 88.9226 15.8801 88.0815 15.3521C86.6578 14.4601 86.7699 12.5271 88.3009 11.7756C89.0615 11.4031 90.3341 11.4968 91.2045 11.4968ZM73.6516 47.6873H58.049C54.2995 47.7256 51.0254 48.8028 49.3506 51.945C48.2584 53.9972 48.5412 56.1303 48.5412 58.3315H60.2431C62.681 58.3315 65.4505 58.4869 67.8006 57.9207C71.2356 57.0968 73.6101 54.3995 73.6516 51.3063V47.6873ZM71.4575 61.3119C68.8367 62.106 67.764 62.585 64.8751 62.5892H48.5412C48.5412 66.0444 48.0633 69.5336 50.3087 72.5948C54.4043 78.1831 64.1998 78.8792 68.8343 73.4464C72.0182 69.7124 71.4575 65.6718 71.4575 61.3119ZM8.07198 68.3371C8.07198 67.3941 7.97203 66.3807 8.6839 65.593C9.85897 64.2881 12.0263 64.5308 12.8722 65.9997C13.2574 66.6702 13.1916 67.5984 13.1916 68.3371C13.9985 68.3371 15.1541 68.2626 15.8684 68.5862C17.5798 69.3633 17.709 71.2877 16.1049 72.2244C15.2931 72.697 14.1326 72.5948 13.1916 72.5948C13.1916 73.5379 13.2915 74.5513 12.5797 75.3389C11.4046 76.6439 9.2373 76.4012 8.39135 74.9323C8.00616 74.2617 8.07198 73.3336 8.07198 72.5948C7.26504 72.5948 6.10947 72.6694 5.39517 72.3458C3.68376 71.5687 3.55455 69.6443 5.15869 68.7076C5.97051 68.235 7.13095 68.3371 8.07198 68.3371ZM110.951 71.9562C110.951 71.2303 110.854 70.0402 111.237 69.4101C112.102 67.9944 114.413 68.0923 115.337 69.2334C115.944 69.9827 115.827 71.077 115.827 71.9562C116.732 71.9562 117.921 71.8753 118.728 72.2649C120.223 72.9908 120.333 74.9302 118.945 75.786C118.087 76.3161 116.834 76.2139 115.827 76.2139C115.827 77.0931 115.944 78.1874 115.337 78.9367C114.413 80.0778 112.102 80.1757 111.237 78.76C110.854 78.1299 110.951 76.9398 110.951 76.2139C109.993 76.2139 108.614 76.3331 107.809 75.8435C106.397 74.9877 106.502 72.9206 108.036 72.2053C108.757 71.871 110.12 71.9562 110.951 71.9562ZM64.3412 81.1103L59.9993 81.5339L55.6111 81.1103V83.0262C55.6355 84.6144 56.3717 85.666 57.1275 87.0711L59.7555 92.1803H60.2431L64.3412 84.0907V81.1103ZM59.0339 104.921C62.5859 104.087 63.4563 107.861 60.9647 108.783C58.2733 109.78 56.0255 106.478 59.0339 104.921Z" fill="#FF511A"/>
</svg>
