<?xml version="1.0" encoding="UTF-8" standalone="no"?>
<!DOCTYPE svg PUBLIC "-//W3C//DTD SVG 20010904//EN"
              "http://www.w3.org/TR/2001/REC-SVG-20010904/DTD/svg10.dtd">

<svg xmlns="http://www.w3.org/2000/svg"
     width="4.87396mm" height="4.87396mm"
     viewBox="0 0 512 512">
  <path id="Selection"
        fill="none" stroke="black" stroke-width="5"
        d="M 253.33,1.03
           C 259.64,-1.11 261.24,3.04 263.75,8.00
             267.27,14.95 271.27,25.21 277.09,30.18
             284.81,36.76 293.48,36.90 303.00,38.27
             306.49,38.77 313.02,38.99 314.96,42.28
             317.83,47.13 311.00,52.98 308.00,56.00
             300.48,63.56 291.13,70.32 291.08,82.00
             291.08,82.00 294.71,105.00 294.71,105.00
             295.06,107.77 295.31,112.08 292.57,113.79
             289.61,115.63 284.76,113.08 282.00,111.74
             275.38,108.53 266.03,102.05 259.00,101.18
             248.78,99.93 241.55,105.72 233.00,110.22
             229.99,111.80 223.59,115.40 220.23,114.17
             216.97,112.98 216.92,108.88 217.17,106.00
             217.17,106.00 220.92,82.00 220.92,82.00
             220.87,70.93 213.16,65.16 206.00,58.00
             202.87,54.87 195.69,48.90 196.42,44.05
             197.06,39.81 201.61,39.37 205.00,38.87
             212.67,37.75 224.62,36.99 231.00,33.05
             244.55,24.67 244.63,8.61 253.33,1.03 Z
           M 404.04,89.00
           C 412.49,90.87 415.84,107.10 420.79,114.00
             429.13,125.63 437.33,125.00 450.00,127.08
             454.01,127.74 463.65,127.84 464.10,133.11
             464.45,137.17 459.61,141.37 457.00,144.00
             451.24,149.80 443.31,156.27 440.55,164.00
             437.31,173.04 441.93,184.48 442.83,194.00
             443.16,197.50 443.48,202.65 438.94,203.39
             435.54,203.94 430.87,201.03 428.00,199.42
             424.25,197.32 413.76,191.85 410.00,190.79
             398.82,187.61 391.34,194.05 382.00,198.75
             378.49,200.52 370.25,205.61 366.74,202.25
             364.07,199.69 365.39,194.17 366.00,191.00
             367.26,184.41 369.92,172.25 368.47,166.00
             366.26,156.43 358.46,151.45 352.00,145.00
             349.41,142.41 344.63,137.87 344.42,134.02
             344.09,127.94 352.78,127.88 357.00,127.27
             368.94,125.55 379.15,125.79 387.06,114.99
             391.99,108.26 395.92,91.12 404.04,89.00 Z
           M 105.18,90.03
           C 111.50,87.97 113.13,91.97 115.74,97.00
             119.73,104.70 122.28,113.58 129.09,119.33
             137.12,126.12 145.09,125.84 155.00,127.27
             158.47,127.77 165.05,128.00 166.96,131.28
             169.67,135.93 162.91,142.08 160.00,145.00
             152.02,152.98 143.05,158.28 143.03,171.00
             143.03,171.00 146.39,193.00 146.39,193.00
             146.92,196.09 147.54,200.14 144.69,202.36
             141.61,204.75 136.97,202.18 134.00,200.74
             127.42,197.57 116.59,190.60 110.00,190.09
             101.14,189.41 92.50,194.75 85.00,199.00
             81.88,200.77 75.79,204.46 72.15,203.17
             68.50,201.88 68.87,197.11 69.17,194.00
             69.17,194.00 72.74,170.00 72.74,170.00
             72.33,159.64 63.74,152.74 57.00,146.00
             53.77,142.77 47.06,137.38 48.31,132.22
             49.26,128.35 54.81,128.19 58.00,127.73
             64.89,126.72 77.31,125.54 83.00,122.01
             96.33,113.74 96.93,96.74 105.18,90.03 Z
           M 233.00,467.00
           C 233.00,467.00 233.00,216.00 233.00,216.00
             233.00,216.00 233.00,181.00 233.00,181.00
             233.00,173.40 232.42,165.37 234.49,158.00
             237.38,147.74 247.45,141.30 258.00,142.19
             273.93,143.53 278.98,155.94 279.00,170.00
             279.00,170.00 279.00,467.00 279.00,467.00
             279.00,467.00 318.00,467.00 318.00,467.00
             320.65,466.99 324.38,467.33 326.44,465.40
             328.38,463.59 329.45,457.70 330.13,455.00
             330.13,455.00 336.63,429.00 336.63,429.00
             336.63,429.00 368.13,304.00 368.13,304.00
             368.13,304.00 378.13,264.00 378.13,264.00
             379.34,259.16 382.07,246.79 384.00,243.00
             387.60,235.90 395.12,231.49 403.00,231.10
             405.94,230.96 409.21,231.54 412.00,232.47
             436.32,240.50 423.89,269.96 419.63,287.00
             419.63,287.00 376.13,460.00 376.13,460.00
             376.13,460.00 370.37,483.00 370.37,483.00
             367.45,494.70 365.75,507.70 352.00,511.39
             349.37,512.09 346.70,512.00 344.00,512.00
             344.00,512.00 168.00,512.00 168.00,512.00
             165.35,512.00 162.57,512.11 160.00,511.36
             146.12,507.35 144.58,493.81 141.63,482.00
             141.63,482.00 134.63,455.00 134.63,455.00
             134.63,455.00 101.13,321.00 101.13,321.00
             101.13,321.00 90.63,279.00 90.63,279.00
             88.98,272.43 85.45,261.23 85.09,255.00
             83.70,230.95 116.11,222.26 127.47,242.00
             129.88,246.19 131.56,254.98 132.88,260.00
             132.88,260.00 142.37,297.00 142.37,297.00
             142.37,297.00 171.63,414.00 171.63,414.00
             171.63,414.00 180.63,450.00 180.63,450.00
             181.49,453.47 183.38,463.20 185.70,465.40
             187.74,467.35 191.36,466.99 194.00,467.00
             194.00,467.00 233.00,467.00 233.00,467.00 Z" />
</svg>
