<?xml version="1.0" encoding="UTF-8" standalone="no"?>
<!DOCTYPE svg PUBLIC "-//W3C//DTD SVG 20010904//EN"
              "http://www.w3.org/TR/2001/REC-SVG-20010904/DTD/svg10.dtd">

<svg xmlns="http://www.w3.org/2000/svg"
     width="180.6mm" height="180.6mm"
     viewBox="0 0 512 512">
  <path id="Selection"
        fill="none" stroke="black" stroke-width="5"
        d="M 201.00,68.00
           C 202.27,70.24 203.65,72.50 204.36,75.00
             207.85,87.21 197.53,89.95 188.00,90.00
             188.00,90.00 121.00,90.00 121.00,90.00
             111.51,89.99 102.02,86.84 105.85,75.00
             105.85,75.00 116.15,56.00 116.15,56.00
             116.15,56.00 136.15,21.00 136.15,21.00
             139.29,15.50 145.24,2.96 151.00,0.74
             156.19,-1.26 160.94,0.77 164.10,5.04
             167.15,9.16 167.83,13.89 174.00,12.79
             174.00,12.79 188.00,8.43 188.00,8.43
             188.00,8.43 211.00,3.43 211.00,3.43
             235.75,-0.72 245.58,-0.04 270.00,0.00
             287.37,0.03 311.22,4.79 328.00,9.58
             397.84,29.51 458.33,80.88 488.69,147.00
             501.07,173.96 511.95,212.25 512.00,242.00
             512.00,242.00 512.00,272.00 512.00,272.00
             512.00,272.00 511.08,282.00 511.08,282.00
             508.97,308.43 501.77,334.68 491.28,359.00
             480.39,384.24 462.37,412.54 443.00,432.00
             418.92,456.19 396.24,474.35 365.00,488.69
             296.46,520.16 215.54,520.16 147.00,488.69
             115.59,474.27 88.56,453.20 65.09,428.00
             32.49,392.99 9.00,342.36 2.28,295.00
             0.53,282.63 -0.02,271.46 0.00,259.00
             0.01,255.69 -0.27,252.12 1.89,249.34
             4.74,245.67 8.85,246.01 13.00,246.00
             13.00,246.00 48.00,246.00 48.00,246.00
             51.95,246.03 55.41,245.92 58.11,249.34
             61.68,253.84 60.94,263.45 61.00,269.00
             61.11,277.95 64.86,295.98 67.13,305.00
             81.67,362.90 126.83,414.03 182.00,436.55
             198.91,443.45 226.82,450.97 245.00,451.00
             245.00,451.00 267.00,451.00 267.00,451.00
             277.73,450.98 294.42,447.53 305.00,444.87
             362.90,430.33 414.03,385.17 436.55,330.00
             443.45,313.09 450.97,285.18 451.00,267.00
             451.00,267.00 451.00,243.00 451.00,243.00
             450.93,237.53 450.04,234.25 449.27,229.00
             446.34,209.08 441.23,191.08 432.25,173.00
             428.14,164.74 424.00,156.73 418.92,149.00
             392.34,108.54 349.95,78.37 303.00,66.63
             293.27,64.19 276.83,61.02 267.00,61.00
             254.60,60.98 242.31,60.63 230.00,62.29
             230.00,62.29 201.00,68.00 201.00,68.00 Z
           M 21.00,266.00
           C 21.00,283.10 24.40,301.50 28.85,318.00
             47.85,388.48 100.15,447.41 168.00,474.55
             188.80,482.87 220.63,490.97 243.00,491.00
             243.00,491.00 269.00,491.00 269.00,491.00
             290.94,490.97 321.61,483.35 342.00,475.20
             406.43,449.43 455.00,399.45 478.31,334.00
             484.57,316.42 490.97,287.56 491.00,269.00
             491.00,269.00 491.00,243.00 491.00,243.00
             490.98,231.08 488.02,214.75 485.42,203.00
             475.43,157.75 448.79,111.90 414.00,81.28
             381.97,53.10 348.51,35.67 307.00,26.12
             296.84,23.78 279.26,21.02 269.00,21.00
             269.00,21.00 241.00,21.00 241.00,21.00
             226.22,21.18 203.36,26.03 189.00,30.14
             183.84,31.62 167.82,38.08 164.00,37.52
             160.62,37.01 156.87,33.90 154.00,32.00
             154.00,32.00 134.00,69.00 134.00,69.00
             134.00,69.00 175.93,69.00 175.93,69.00
             175.57,65.76 174.59,62.15 175.93,59.02
             179.10,51.02 199.02,47.17 207.00,45.35
             241.10,37.59 276.06,37.78 310.00,46.37
             382.53,64.74 443.03,123.01 463.71,195.00
             467.41,207.89 471.84,228.75 472.00,242.00
             472.00,242.00 472.00,268.00 472.00,268.00
             471.98,283.55 466.45,310.23 461.31,325.00
             438.29,391.02 384.60,444.29 317.00,463.71
             302.99,467.73 282.48,471.98 268.00,472.00
             268.00,472.00 244.00,472.00 244.00,472.00
             222.59,471.97 191.70,464.00 172.00,455.57
             107.47,427.98 57.94,369.10 44.20,300.00
             41.98,288.86 40.03,277.38 40.00,266.00
             40.00,266.00 21.00,266.00 21.00,266.00 Z
           M 238.00,82.14
           C 238.00,82.14 255.00,82.14 255.00,82.14
             255.00,82.14 266.00,82.14 266.00,82.14
             283.17,82.03 308.11,88.42 324.00,95.01
             328.20,96.75 340.65,102.50 343.35,105.53
             347.25,109.90 346.84,117.67 341.89,121.11
             335.60,125.49 328.80,121.07 323.00,118.26
             323.00,118.26 313.00,113.85 313.00,113.85
             291.27,104.62 271.24,102.73 248.00,103.00
             238.34,103.12 224.36,105.91 215.00,108.58
             172.93,120.58 135.71,150.94 117.31,191.00
             109.91,207.11 103.03,230.23 103.00,248.00
             103.00,248.00 103.00,264.00 103.00,264.00
             103.01,272.38 105.08,283.81 107.13,292.00
             118.16,336.14 149.35,375.56 191.00,394.69
             207.11,402.09 230.23,408.97 248.00,409.00
             248.00,409.00 266.00,409.00 266.00,409.00
             285.39,408.77 314.37,399.24 331.00,389.40
             352.82,376.48 372.56,358.80 385.80,337.00
             398.02,316.88 408.96,288.83 409.00,265.00
             409.00,265.00 409.00,246.00 409.00,246.00
             408.92,229.76 401.75,206.84 395.14,192.00
             391.79,184.49 383.78,175.22 387.65,167.04
             390.42,161.19 397.89,160.07 402.96,163.58
             407.44,166.70 412.22,177.79 414.74,183.00
             422.58,199.20 429.97,226.99 430.00,245.00
             430.00,245.00 430.00,269.00 430.00,269.00
             429.85,281.24 425.56,299.31 421.67,311.00
             405.80,358.59 369.82,398.58 323.00,417.55
             308.38,423.47 282.68,429.98 267.00,430.00
             267.00,430.00 243.00,430.00 243.00,430.00
             230.33,429.85 209.14,424.54 197.00,420.34
             145.88,402.66 105.00,359.66 89.20,308.00
             81.82,283.85 81.71,267.69 82.00,243.00
             82.17,228.67 89.01,202.43 94.45,189.00
             111.29,147.44 145.89,112.95 187.00,95.43
             205.63,87.48 218.37,85.27 238.00,82.14 Z
           M 252.02,119.74
           C 255.61,118.87 259.51,118.46 262.66,120.89
             269.54,126.21 268.27,142.58 259.98,145.99
             245.62,151.92 243.54,130.86 247.17,124.04
             248.52,121.52 249.69,121.02 252.02,119.74 Z
           M 368.00,130.74
           C 371.95,129.80 375.54,129.59 378.86,132.43
             384.19,136.99 383.38,146.75 375.96,149.64
             363.76,154.40 355.61,137.43 368.00,130.74 Z
           M 174.02,168.74
           C 183.91,166.34 187.50,171.51 194.00,178.00
             194.00,178.00 216.00,200.00 216.00,200.00
             216.00,200.00 249.00,233.00 249.00,233.00
             256.72,240.72 258.78,245.98 270.00,246.00
             270.00,246.00 303.00,246.00 303.00,246.00
             306.31,246.01 309.88,245.73 312.66,247.89
             317.48,251.64 317.16,261.50 311.81,264.69
             309.24,266.22 305.89,265.99 303.00,266.00
             303.00,266.00 259.00,266.00 259.00,266.00
             246.62,265.98 243.37,259.37 235.00,251.00
             235.00,251.00 197.00,213.00 197.00,213.00
             192.06,208.06 172.56,189.28 170.01,185.00
             166.28,178.74 167.59,172.28 174.02,168.74 Z
           M 128.00,245.48
           C 132.92,244.77 139.76,244.74 143.61,248.43
             148.84,253.44 149.17,265.91 134.00,266.00
             129.96,266.02 125.47,266.45 122.23,263.57
             117.48,259.36 116.36,248.62 128.00,245.48 Z
           M 371.04,246.85
           C 375.74,245.54 385.94,245.02 389.77,248.43
             394.46,252.60 396.11,265.96 381.00,266.91
             377.43,267.13 372.12,266.49 369.21,264.28
             362.73,259.33 364.43,250.77 371.04,246.85 Z
           M 253.00,365.65
           C 264.88,363.49 266.12,371.80 266.00,381.00
             265.93,385.98 265.24,390.19 259.98,392.26
             246.08,397.73 241.06,377.96 247.72,369.21
             249.34,367.09 250.70,366.64 253.00,365.65 Z" />
</svg>
