<?xml version="1.0" encoding="UTF-8" standalone="no"?>
<!DOCTYPE svg PUBLIC "-//W3C//DTD SVG 20010904//EN"
              "http://www.w3.org/TR/2001/REC-SVG-20010904/DTD/svg10.dtd">

<svg xmlns="http://www.w3.org/2000/svg"
     width="117.485mm" height="117.485mm"
     viewBox="0 0 512 512">
  <path id="Selection"
        fill="none" stroke="black" stroke-width="5"
        d="M 192.00,81.00
           C 197.08,59.33 217.72,28.55 234.04,13.72
             240.01,8.29 249.43,-0.68 258.00,0.11
             265.06,0.76 274.80,9.84 279.91,14.58
             295.80,29.30 316.01,59.71 321.00,81.00
             334.78,69.16 350.30,60.01 368.00,55.48
             377.82,52.97 385.56,50.87 391.65,61.00
             397.87,71.36 401.13,84.19 403.08,96.00
             403.64,99.40 403.74,110.66 405.60,112.33
             407.60,114.09 411.65,112.87 414.00,112.33
             420.34,110.94 428.50,110.01 435.00,110.00
             443.99,109.99 453.11,109.45 462.00,110.92
             465.68,111.53 469.93,111.95 472.87,114.43
             476.69,117.64 477.05,122.39 477.73,127.00
             479.24,137.22 479.12,144.76 479.00,155.00
             478.94,160.15 477.93,165.89 477.08,171.00
             471.22,206.38 452.88,241.59 430.08,269.00
             421.77,278.99 415.65,285.45 406.00,294.17
             401.93,297.85 398.69,302.18 393.00,303.28
             384.58,304.90 378.93,296.63 382.01,289.00
             383.94,284.21 388.36,281.31 392.00,277.91
             397.54,272.74 404.51,265.73 409.42,260.00
             421.74,245.61 432.85,230.03 441.24,213.00
             446.54,202.25 451.40,189.61 454.37,178.00
             456.75,168.71 459.28,152.37 458.28,143.00
             457.97,140.09 458.46,134.66 456.40,132.60
             454.19,130.38 443.32,129.94 440.00,130.01
             396.56,131.00 350.40,157.35 320.00,187.01
             320.00,187.01 296.99,211.15 296.99,211.15
             292.04,214.16 285.07,213.40 282.17,207.96
             278.80,201.63 282.91,195.68 286.87,191.00
             295.79,180.48 305.53,170.70 316.00,161.73
             329.76,149.94 345.77,138.72 362.00,130.60
             362.00,130.60 376.00,124.00 376.00,124.00
             378.67,122.84 382.15,121.66 383.34,118.79
             384.70,115.81 383.70,109.24 383.34,106.00
             381.48,92.17 380.16,87.91 375.00,75.00
             360.50,80.44 351.31,83.86 339.00,94.14
             336.63,96.12 331.17,100.48 329.95,103.01
             328.59,105.62 329.46,108.31 329.95,111.00
             331.74,119.72 337.88,138.54 324.00,139.89
             313.85,140.88 312.86,133.84 311.39,126.00
             311.39,126.00 308.63,112.00 308.63,112.00
             302.24,86.01 292.36,61.78 275.08,41.00
             270.78,35.84 267.29,31.87 262.00,27.60
             260.36,26.28 258.27,24.33 256.00,24.60
             251.55,25.13 241.12,37.37 238.00,41.00
             221.55,60.16 211.20,84.70 205.13,109.00
             203.54,115.34 201.31,133.77 197.44,137.57
             195.19,139.79 192.03,140.18 189.00,139.89
             175.16,138.54 181.28,119.74 183.05,111.00
             183.54,108.30 184.42,105.64 183.05,103.01
             181.83,100.48 176.37,96.12 174.00,94.14
             161.69,83.86 152.50,80.44 138.00,75.00
             132.84,87.91 131.52,92.17 129.66,106.00
             129.30,109.24 128.30,115.81 129.66,118.79
             130.85,121.66 134.33,122.84 137.00,124.00
             137.00,124.00 151.00,130.60 151.00,130.60
             166.98,138.59 183.36,150.08 197.00,161.59
             206.90,169.94 217.74,181.11 226.13,191.00
             230.09,195.68 234.20,201.63 230.83,207.96
             227.93,213.40 220.96,214.16 216.01,211.15
             216.01,211.15 193.00,187.01 193.00,187.01
             162.60,157.35 116.44,131.00 73.00,130.01
             69.68,129.94 58.81,130.38 56.60,132.60
             54.54,134.66 55.03,140.09 54.72,143.00
             53.72,152.37 56.25,168.71 58.63,178.00
             61.67,189.86 66.77,203.05 72.25,214.00
             80.78,231.06 92.05,246.55 104.43,261.00
             104.43,261.00 121.00,277.91 121.00,277.91
             124.64,281.31 129.06,284.21 130.99,289.00
             134.33,297.26 127.72,305.24 119.00,303.02
             113.99,301.75 110.68,297.49 107.00,294.17
             97.82,285.88 89.95,277.67 82.20,268.00
             57.36,237.01 34.06,192.68 34.00,152.00
             34.00,152.00 34.00,140.00 34.00,140.00
             34.08,133.66 35.15,118.55 40.13,114.51
             47.11,108.86 68.89,109.99 78.00,110.00
             84.50,110.01 92.66,110.94 99.00,112.33
             101.35,112.87 105.40,114.09 107.40,112.33
             109.53,110.42 109.01,101.43 109.61,98.00
             111.87,85.14 113.87,74.70 120.31,63.00
             127.11,50.66 134.10,52.69 146.00,55.66
             162.76,59.86 179.05,69.80 192.00,81.00 Z
           M 170.00,295.00
           C 164.08,283.74 162.85,279.69 163.00,267.00
             163.24,246.87 177.72,229.73 197.00,224.76
             206.27,222.37 218.33,223.00 228.00,223.00
             228.00,223.00 276.00,223.00 276.00,223.00
             295.92,223.00 317.47,220.24 333.96,233.82
             365.60,259.86 348.35,314.93 306.00,315.00
             306.00,315.00 205.00,315.00 205.00,315.00
             196.38,314.89 194.90,312.52 190.00,312.27
             185.62,312.05 177.89,314.44 174.00,316.49
             168.91,319.17 164.65,322.58 161.02,327.04
             145.52,346.03 151.26,372.00 172.00,384.52
             178.89,388.68 187.09,389.99 195.00,390.00
             195.00,390.00 317.00,390.00 317.00,390.00
             323.72,389.99 330.80,389.25 337.00,386.49
             352.06,379.77 363.89,361.75 360.33,345.00
             359.11,339.22 356.92,333.77 353.39,329.00
             350.47,325.06 346.05,321.60 344.24,317.00
             341.46,309.93 346.36,302.85 354.00,303.15
             360.69,303.41 366.35,310.05 370.10,315.00
             380.45,328.68 383.38,345.34 380.87,362.00
             379.76,369.32 376.69,376.75 372.77,383.00
             359.80,403.70 339.39,410.96 316.00,411.00
             316.00,411.00 197.00,411.00 197.00,411.00
             184.80,410.98 172.84,408.97 162.00,403.22
             158.56,401.39 148.69,392.99 145.83,393.73
             143.00,394.47 137.15,399.87 135.01,402.01
             125.44,411.60 118.50,426.25 119.04,440.00
             120.21,470.01 145.59,491.95 175.00,492.00
             175.00,492.00 338.00,492.00 338.00,492.00
             367.30,491.95 393.97,469.22 393.97,439.00
             393.97,431.90 391.71,423.39 388.68,417.00
             386.85,413.14 383.15,407.91 382.40,404.00
             381.25,397.99 384.72,392.64 391.00,392.12
             398.62,391.50 401.59,396.14 404.99,402.00
             411.85,413.87 413.68,424.62 414.68,438.00
             414.91,441.14 414.33,442.95 414.08,446.00
             411.27,481.35 381.19,511.94 345.00,512.00
             345.00,512.00 168.00,512.00 168.00,512.00
             159.01,511.99 150.16,510.05 142.00,506.22
             115.92,493.99 101.66,473.42 98.83,445.00
             98.83,445.00 98.18,439.00 98.18,439.00
             98.18,439.00 98.92,432.00 98.92,432.00
             100.05,417.89 104.72,405.22 113.42,394.00
             119.12,386.67 127.20,378.37 136.00,375.00
             123.33,342.04 136.61,308.38 170.00,295.00 Z
           M 205.00,244.10
           C 183.79,248.45 177.43,271.63 189.68,285.83
             195.64,292.74 204.21,294.89 213.00,295.00
             213.00,295.00 298.00,295.00 298.00,295.00
             306.38,294.99 315.39,293.78 321.70,287.67
             333.01,276.73 331.82,257.88 319.00,248.64
             313.26,244.50 307.78,244.01 301.00,244.10
             301.00,244.10 239.00,244.10 239.00,244.10
             239.00,244.10 205.00,244.10 205.00,244.10 Z
           M 297.00,263.53
           C 301.17,262.94 305.40,263.23 308.58,266.42
             313.73,271.57 312.16,281.34 303.00,283.47
             288.82,286.75 282.16,268.32 297.00,263.53 Z
           M 73.00,287.82
           C 78.77,287.85 83.34,289.61 84.38,296.00
             86.64,310.00 53.86,316.71 58.87,333.00
             62.67,345.38 82.78,355.37 94.00,360.15
             100.42,362.88 110.36,364.89 111.62,373.00
             112.61,379.40 107.39,384.94 101.00,384.72
             95.86,384.55 81.98,378.24 77.00,375.75
             61.90,368.21 47.72,360.01 40.32,344.00
             31.70,325.34 42.19,307.82 57.00,296.43
             61.78,292.75 67.02,289.03 73.00,287.82 Z
           M 437.04,289.57
           C 445.08,288.11 448.68,291.03 455.00,295.64
             466.53,304.06 474.75,314.31 475.82,329.00
             477.54,352.68 452.07,367.78 434.00,376.75
             429.05,379.21 414.09,385.56 409.00,385.37
             402.97,385.16 398.52,380.01 399.38,374.00
             400.65,365.10 411.05,363.49 418.00,360.58
             429.39,355.80 448.96,345.87 453.77,334.00
             456.95,326.16 448.60,317.94 443.00,313.52
             437.49,309.16 429.35,305.54 430.72,297.00
             431.38,292.91 433.46,291.10 437.04,289.57 Z
           M 333.00,336.74
           C 343.32,334.34 348.28,341.29 346.68,351.00
             345.05,360.85 339.02,368.98 330.00,373.20
             323.33,376.33 311.67,378.53 307.87,369.96
             307.00,367.60 306.81,364.42 307.87,362.00
             310.73,354.20 317.81,356.80 322.66,352.43
             328.51,347.16 323.72,341.75 333.00,336.74 Z
           M 10.00,341.66
           C 16.54,340.61 20.15,343.19 23.10,349.00
             23.10,349.00 27.11,357.00 27.11,357.00
             33.81,367.19 47.36,375.94 58.00,381.69
             62.98,384.39 77.81,390.27 80.57,393.34
             85.35,398.65 82.71,407.73 76.00,409.93
             70.54,411.72 62.07,407.18 57.00,405.00
             41.37,398.28 20.68,384.87 10.78,371.00
             4.93,362.81 -3.06,347.20 10.00,341.66 Z
           M 497.00,341.62
           C 499.06,341.32 499.86,341.04 502.00,341.62
             515.57,345.61 506.29,363.90 501.22,371.00
             492.05,383.85 478.52,392.32 465.00,399.86
             459.28,403.05 448.24,408.69 442.00,410.04
             432.65,412.06 425.09,402.10 430.74,394.19
             433.61,390.16 443.32,387.01 448.00,384.74
             458.45,379.68 469.63,373.04 478.00,364.96
             491.43,351.98 486.18,345.79 497.00,341.62 Z
           M 359.09,428.85
           C 371.17,425.43 375.12,433.22 373.82,444.00
             372.49,454.92 364.58,465.99 355.00,471.20
             349.49,474.20 340.28,477.05 334.00,475.61
             327.76,474.18 324.31,468.12 326.60,462.00
             330.16,452.46 340.31,458.24 348.78,448.91
             355.84,441.13 350.78,434.01 359.09,428.85 Z" />
</svg>
