<?xml version="1.0" encoding="UTF-8" standalone="no"?>
<!DOCTYPE svg PUBLIC "-//W3C//DTD SVG 20010904//EN"
              "http://www.w3.org/TR/2001/REC-SVG-20010904/DTD/svg10.dtd">

<svg xmlns="http://www.w3.org/2000/svg"
     width="120.019mm" height="120.019mm"
     viewBox="0 0 512 512">
  <path id="Selection"
        fill="none" stroke="black" stroke-width="5"
        d="M 57.00,0.00
           C 57.00,0.00 455.00,0.00 455.00,0.00
             455.00,0.00 455.00,397.00 455.00,397.00
             455.00,397.00 339.00,397.00 339.00,397.00
             339.00,397.00 331.18,398.02 331.18,398.02
             331.18,398.02 324.95,406.00 324.95,406.00
             324.95,406.00 313.34,424.00 313.34,424.00
             313.34,424.00 257.00,512.00 257.00,512.00
             257.00,512.00 255.00,512.00 255.00,512.00
             255.00,512.00 198.66,424.00 198.66,424.00
             198.66,424.00 187.05,406.00 187.05,406.00
             187.05,406.00 180.82,398.02 180.82,398.02
             180.82,398.02 173.00,397.00 173.00,397.00
             173.00,397.00 57.00,397.00 57.00,397.00
             57.00,397.00 57.00,0.00 57.00,0.00 Z
           M 257.00,59.00
           C 257.00,59.00 255.00,59.00 255.00,59.00
             255.00,59.00 226.75,117.00 226.75,117.00
             226.75,117.00 214.61,138.99 214.61,138.99
             214.61,138.99 190.00,143.42 190.00,143.42
             190.00,143.42 127.00,153.00 127.00,153.00
             127.00,153.00 173.00,199.00 173.00,199.00
             173.00,199.00 189.69,217.00 189.69,217.00
             189.69,217.00 186.41,242.00 186.41,242.00
             186.41,242.00 176.00,305.00 176.00,305.00
             176.00,305.00 194.00,296.25 194.00,296.25
             194.00,296.25 235.00,274.75 235.00,274.75
             235.00,274.75 256.00,264.78 256.00,264.78
             256.00,264.78 277.00,274.75 277.00,274.75
             277.00,274.75 318.00,296.25 318.00,296.25
             318.00,296.25 336.00,305.00 336.00,305.00
             336.00,305.00 325.59,242.00 325.59,242.00
             324.80,237.29 320.99,220.49 322.31,217.00
             323.61,213.55 335.67,202.33 339.00,199.00
             349.38,188.62 378.29,162.37 385.00,153.00
             385.00,153.00 322.00,143.42 322.00,143.42
             322.00,143.42 297.27,138.99 297.27,138.99
             297.27,138.99 292.74,132.00 292.74,132.00
             292.74,132.00 285.25,117.00 285.25,117.00
             285.25,117.00 257.00,59.00 257.00,59.00 Z" />
</svg>
