<?xml version="1.0" encoding="UTF-8" standalone="no"?>
<!DOCTYPE svg PUBLIC "-//W3C//DTD SVG 20010904//EN"
              "http://www.w3.org/TR/2001/REC-SVG-20010904/DTD/svg10.dtd">

<svg xmlns="http://www.w3.org/2000/svg"
     width="6.4in" height="3.6in"
     viewBox="0 0 1920 1080">
  <path id="Wandero O"
        fill="white" stroke="none" stroke-width="5"
        d="M 1838.00,119.46
           C 1846.58,119.03 1858.90,120.48 1867.00,123.44
             1891.86,132.50 1912.96,159.08 1913.00,186.00
             1913.00,186.00 1913.00,198.00 1913.00,198.00
             1912.97,219.92 1899.61,243.55 1882.00,256.22
             1866.94,267.05 1852.98,269.21 1835.00,269.00
             1829.37,268.93 1819.38,266.81 1814.00,265.00
             1767.61,249.36 1749.55,193.97 1774.66,153.00
             1784.02,137.73 1800.46,125.36 1818.00,121.24
             1818.00,121.24 1838.00,119.46 1838.00,119.46 Z
           M 1839.00,154.45
           C 1827.42,155.42 1818.57,157.43 1810.29,166.51
             1786.70,192.41 1805.44,234.51 1841.00,232.96
             1873.79,231.53 1889.56,189.64 1867.70,166.09
             1860.63,158.47 1849.15,154.83 1839.00,154.45 Z
           M 1390.50,373.50M 1793.65,319.01
           C 1796.12,313.11 1797.77,311.13 1802.19,306.62
             1813.96,294.63 1824.78,293.56 1840.78,294.58
             1848.25,295.05 1857.40,296.56 1863.73,300.84
             1873.19,307.27 1881.00,317.37 1882.67,328.93
             1883.60,335.30 1882.38,352.46 1881.95,359.70
             1881.95,359.70 1878.92,411.10 1878.92,411.10
             1877.94,427.33 1878.97,451.90 1872.72,466.43
             1867.60,478.33 1853.99,487.55 1841.36,489.26
             1836.83,489.88 1831.08,489.35 1826.46,489.05
             1819.00,488.57 1809.82,487.07 1803.51,482.78
             1796.58,478.07 1791.05,472.08 1787.54,464.46
             1782.09,452.59 1784.63,434.77 1785.43,421.70
             1785.43,421.70 1789.01,355.61 1789.01,355.61
             1789.75,343.28 1789.50,330.76 1793.65,319.01 Z
           M 1776.28,539.25
           C 1779.26,533.60 1781.08,531.77 1785.89,527.67
             1798.68,516.78 1809.55,516.67 1825.40,519.12
             1832.79,520.24 1841.78,522.57 1847.70,527.39
             1856.55,534.64 1863.43,545.40 1864.06,557.06
             1864.41,563.49 1861.68,580.47 1860.61,587.64
             1860.61,587.64 1853.01,638.57 1853.01,638.57
             1850.58,654.65 1849.42,679.22 1841.90,693.13
             1835.74,704.53 1821.36,712.50 1808.63,713.08
             1804.06,713.29 1798.39,712.24 1793.81,711.53
             1786.42,710.40 1777.41,708.08 1771.51,703.25
             1765.02,697.94 1760.05,691.48 1757.23,683.58
             1752.86,671.27 1756.98,653.75 1758.94,640.79
             1758.94,640.79 1768.39,575.29 1768.39,575.29
             1770.24,563.08 1771.10,550.58 1776.28,539.25 Z
           M 1861.50,870.00M 1742.00,747.88
           C 1748.10,745.97 1750.68,745.96 1756.98,746.44
             1773.73,747.72 1781.52,755.31 1791.04,768.21
             1795.49,774.22 1800.23,782.20 1801.03,789.80
             1802.20,801.18 1799.50,813.66 1791.73,822.38
             1787.45,827.19 1773.54,837.31 1767.73,841.64
             1767.73,841.64 1726.45,872.42 1726.45,872.42
             1713.40,882.12 1695.26,898.73 1680.12,903.30
             1667.72,907.05 1651.90,902.57 1642.46,894.01
             1639.07,890.94 1635.78,886.20 1633.03,882.47
             1628.59,876.46 1623.83,868.46 1623.05,860.88
             1622.19,852.54 1623.21,844.45 1626.78,836.86
             1632.35,825.05 1647.62,815.52 1658.14,807.71
             1658.14,807.71 1711.01,767.89 1711.01,767.89
             1720.92,760.53 1730.34,752.27 1742.00,747.88 Z
           M 1185.98,939.94
           C 1196.91,936.52 1211.52,938.00 1223.20,937.90
             1223.20,937.90 1291.17,937.53 1291.17,937.53
             1305.52,937.67 1319.55,935.57 1332.69,942.67
             1339.26,946.22 1345.93,953.64 1349.11,960.40
             1353.16,969.01 1354.35,989.16 1352.25,998.43
             1351.31,1002.57 1349.01,1007.99 1346.73,1011.55
             1341.62,1019.54 1334.21,1024.71 1325.44,1027.93
             1316.70,1031.16 1300.22,1030.04 1290.28,1030.12
             1290.28,1030.12 1220.25,1030.32 1220.25,1030.32
             1206.91,1030.45 1191.78,1032.34 1179.80,1025.55
             1173.68,1022.09 1168.22,1017.36 1164.56,1011.32
             1156.34,997.76 1156.12,971.25 1164.05,957.60
             1168.99,949.12 1176.96,943.39 1185.98,939.94 Z
           M 1542.73,880.44
           C 1557.72,875.89 1575.40,881.58 1585.08,893.84
             1589.11,898.97 1591.44,904.58 1593.76,910.58
             1593.76,910.58 1597.82,923.07 1597.82,923.07
             1599.56,932.89 1596.83,945.46 1591.13,953.61
             1581.94,966.74 1567.37,969.72 1553.40,975.20
             1553.40,975.20 1493.49,998.19 1493.49,998.19
             1482.39,1002.44 1468.57,1009.02 1457.15,1010.91
             1441.39,1013.50 1425.88,1005.99 1417.43,992.55
             1414.80,988.35 1413.37,983.95 1411.71,979.34
             1409.84,974.19 1408.36,971.49 1407.58,965.85
             1406.12,955.15 1409.20,942.64 1416.20,934.34
             1426.34,922.33 1443.03,918.71 1457.13,913.22
             1457.13,913.22 1542.73,880.44 1542.73,880.44 Z
           M 944.48,938.44
           C 955.41,935.02 970.02,936.50 981.70,936.40
             981.70,936.40 1049.67,936.03 1049.67,936.03
             1064.02,936.17 1078.05,934.07 1091.19,941.17
             1097.76,944.72 1104.43,952.14 1107.61,958.90
             1111.66,967.51 1112.85,987.66 1110.75,996.93
             1109.81,1001.07 1107.51,1006.49 1105.23,1010.05
             1100.12,1018.04 1092.71,1023.21 1083.94,1026.43
             1075.20,1029.66 1058.72,1028.54 1048.78,1028.62
             1048.78,1028.62 978.75,1028.82 978.75,1028.82
             965.41,1028.95 950.28,1030.84 938.30,1024.05
             932.18,1020.59 926.72,1015.86 923.06,1009.82
             914.84,996.26 914.62,969.75 922.55,956.10
             927.49,947.62 935.46,941.89 944.48,938.44 Z
           M 697.27,857.07
           C 698.71,854.68 698.98,854.30 700.84,852.20
             700.84,852.20 703.53,849.24 703.53,849.24
             707.16,845.34 708.04,845.03 712.83,842.83
             719.28,839.87 726.10,838.04 733.09,840.47
             739.32,842.63 745.05,849.02 749.26,853.91
             755.55,861.20 767.08,875.97 771.95,883.96
             771.95,883.96 781.21,897.56 781.21,897.56
             782.62,899.86 784.09,903.66 786.63,904.83
             788.90,905.88 791.66,905.03 793.87,904.23
             793.87,904.23 811.84,894.88 811.84,894.88
             811.84,894.88 832.03,884.84 832.03,884.84
             847.80,877.06 863.45,867.49 879.23,881.82
             891.45,892.90 891.20,911.22 879.79,922.80
             875.75,926.92 871.81,928.49 867.27,931.69
             867.27,931.69 843.95,946.99 843.95,946.99
             843.95,946.99 829.93,955.87 829.93,955.87
             827.68,957.18 823.82,958.74 822.83,961.27
             821.78,963.98 823.73,966.08 825.28,968.03
             825.28,968.03 837.53,984.30 837.53,984.30
             844.09,991.82 842.72,991.51 847.34,998.79
             853.21,1008.02 859.98,1017.92 857.52,1029.53
             852.92,1051.20 824.21,1061.73 807.94,1045.17
             807.94,1045.17 777.29,1003.06 777.29,1003.06
             770.36,995.68 761.58,994.86 752.23,997.43
             733.70,1002.51 710.75,1020.94 692.19,1020.87
             673.57,1020.79 660.44,1000.65 665.24,983.30
             666.65,978.19 671.77,973.41 675.37,969.54
             680.84,963.66 681.87,964.60 688.08,960.82
             688.08,960.82 718.86,944.19 718.86,944.19
             722.23,942.65 733.28,939.39 732.99,935.19
             732.67,930.52 723.41,919.46 720.40,915.46
             720.40,915.46 714.97,906.56 714.97,906.56
             714.97,906.56 708.95,898.32 708.95,898.32
             708.95,898.32 705.43,891.78 705.43,891.78
             698.05,879.25 691.02,872.54 697.27,857.07 Z" />
</svg>
