<?xml version="1.0" encoding="UTF-8" standalone="no"?>
<!DOCTYPE svg PUBLIC "-//W3C//DTD SVG 20010904//EN"
              "http://www.w3.org/TR/2001/REC-SVG-20010904/DTD/svg10.dtd">

<svg xmlns="http://www.w3.org/2000/svg"
     width="135.45mm" height="135.45mm"
     viewBox="0 0 512 512">
  <path id="Selection"
        fill="none" stroke="black" stroke-width="5"
        d="M 253.00,62.44
           C 267.71,61.26 282.72,70.22 293.00,80.04
             301.20,87.87 309.65,98.71 322.00,98.95
             333.61,99.17 343.00,87.24 351.00,80.29
             365.40,67.76 373.85,62.78 393.00,63.00
             408.93,63.19 421.95,74.80 433.00,85.09
             439.75,91.38 446.74,99.56 457.00,98.78
             466.86,98.03 475.25,89.43 482.00,83.04
             487.84,77.51 494.93,73.36 503.00,77.45
             509.90,80.95 513.13,89.93 509.69,97.00
             508.27,99.92 505.29,102.70 503.00,105.00
             487.84,120.26 475.98,128.25 454.00,128.00
             438.79,127.82 426.79,121.28 416.00,110.96
             410.15,105.37 397.52,92.06 389.00,92.29
             380.03,92.53 367.63,105.96 361.00,111.71
             348.67,122.42 336.50,128.18 320.00,128.00
             304.34,127.82 291.11,120.58 280.00,109.96
             274.09,104.31 261.96,91.28 253.00,92.62
             244.61,93.87 235.20,104.23 229.00,109.58
             216.62,120.27 204.91,127.80 188.00,128.00
             171.12,128.19 159.38,121.97 147.00,110.83
             140.38,104.87 129.40,91.69 120.00,92.14
             111.47,92.55 101.09,103.36 95.00,108.83
             82.89,119.71 70.87,127.80 54.00,128.00
             34.40,128.22 20.34,120.08 7.04,106.00
             5.02,103.86 3.13,101.77 2.01,99.00
             -0.82,92.02 1.77,82.97 9.00,80.01
             26.61,72.78 34.52,98.82 52.00,98.82
             63.32,98.82 72.11,88.23 80.00,81.42
             93.76,69.55 103.16,62.79 122.00,63.00
             135.59,63.16 149.43,71.90 159.00,81.04
             166.18,87.90 176.20,98.82 187.00,98.82
             198.25,98.82 208.98,86.22 217.00,79.29
             230.07,67.98 236.10,64.88 253.00,62.44 Z
           M 113.00,165.46
           C 131.35,162.93 143.52,169.04 157.00,181.17
             165.02,188.39 176.91,202.84 189.00,201.44
             199.70,200.21 211.13,188.00 219.00,181.16
             229.18,172.32 239.55,166.88 253.00,165.29
             269.20,163.37 284.11,174.36 295.00,185.00
             301.93,191.76 312.50,202.81 323.00,201.80
             332.78,200.87 340.07,192.37 347.00,186.28
             359.02,175.72 373.89,164.02 391.00,165.32
             409.31,166.72 417.80,174.65 431.00,186.28
             437.85,192.32 443.52,199.41 453.00,201.47
             465.93,204.29 476.20,190.71 485.00,183.82
             490.87,179.23 498.30,176.68 504.98,181.51
             511.10,185.93 513.03,194.47 509.15,201.00
             507.73,203.37 504.97,206.02 503.00,208.00
             490.75,220.31 480.67,228.05 463.00,230.05
             460.20,230.37 457.84,230.89 455.00,230.68
             439.93,229.55 430.41,226.22 419.00,215.93
             412.27,209.85 398.22,194.59 389.00,195.23
             380.45,195.82 367.46,209.14 361.00,214.83
             350.49,224.09 337.24,230.83 323.00,231.00
             307.08,231.18 293.72,225.78 282.00,214.91
             275.36,208.76 262.80,193.99 253.00,195.23
             244.38,196.31 231.00,210.27 224.00,215.79
             208.90,227.68 200.92,230.22 182.00,230.00
             165.60,229.80 153.57,220.29 142.00,209.83
             136.68,205.02 128.50,195.51 121.00,194.71
             112.13,193.77 99.20,207.28 93.00,212.71
             79.67,224.38 68.02,230.42 50.00,229.99
             31.79,229.55 19.14,220.87 7.04,208.00
             -0.36,200.13 -2.15,188.11 9.00,182.45
             26.58,173.55 35.49,202.94 54.00,200.69
             64.23,199.44 72.54,190.43 80.00,184.00
             91.00,174.52 98.56,168.67 113.00,165.46 Z
           M 118.00,265.43
           C 135.45,263.68 150.87,276.20 163.00,287.17
             169.71,293.24 177.78,302.62 188.00,301.44
             197.17,300.39 205.40,291.96 212.00,286.15
             223.30,276.22 240.00,264.02 256.00,265.18
             269.49,266.16 280.19,272.00 290.00,281.09
             297.98,288.48 308.41,300.93 320.00,301.78
             330.58,302.55 340.86,291.65 348.00,285.08
             359.02,274.95 367.87,267.99 383.00,265.87
             385.91,265.46 388.01,264.97 391.00,265.18
             409.51,266.53 418.76,275.94 432.00,287.42
             436.70,291.50 441.27,297.18 447.00,299.52
             466.76,307.59 477.11,283.91 491.00,279.11
             501.26,275.56 510.82,283.21 509.89,294.00
             509.46,299.06 505.70,303.83 502.93,308.00
             491.39,325.32 472.32,333.23 452.00,333.00
             436.27,332.82 423.71,323.66 413.00,313.00
             407.50,307.52 396.34,295.71 388.00,296.30
             379.30,296.92 367.40,310.15 361.00,315.71
             348.18,326.86 335.21,332.72 318.00,331.96
             302.99,331.30 288.48,322.20 278.00,311.99
             272.05,306.18 261.18,294.24 252.00,296.02
             243.60,297.64 233.40,309.15 227.00,314.71
             214.45,325.62 202.05,332.37 185.00,331.99
             169.76,331.64 156.76,324.36 146.00,313.99
             140.37,308.56 127.07,295.01 119.00,295.66
             110.28,296.36 98.42,309.13 92.00,314.71
             79.58,325.50 66.72,331.89 50.00,331.26
             33.05,330.61 17.41,321.73 6.30,308.99
             -0.50,301.18 -3.07,289.14 8.01,283.45
             25.87,274.28 35.59,303.39 53.00,301.66
             64.46,300.52 73.81,289.44 82.00,282.43
             94.53,271.70 101.81,267.84 118.00,265.43 Z
           M 115.00,372.46
           C 131.89,370.13 145.76,376.74 158.00,388.09
             165.76,395.28 177.42,409.49 189.00,408.47
             199.61,407.54 208.51,397.90 216.00,391.17
             226.75,381.51 240.97,372.34 256.00,372.34
             271.83,372.33 284.79,380.65 296.00,391.09
             303.39,397.97 313.53,410.14 325.00,408.50
             335.28,407.02 343.68,397.74 351.00,391.17
             361.75,381.51 377.87,371.17 393.00,372.32
             406.61,373.36 418.10,379.91 428.00,389.09
             436.38,396.85 446.44,408.78 459.00,407.90
             471.43,407.04 479.70,394.50 488.00,388.62
             492.98,385.38 501.97,384.52 506.95,388.62
             512.30,392.64 513.81,402.24 510.11,407.96
             508.42,410.58 505.30,412.93 503.00,415.09
             496.85,420.83 490.71,426.93 483.00,430.60
             473.57,435.09 460.27,435.12 450.00,435.00
             434.50,434.81 422.43,424.36 412.00,414.00
             407.08,409.11 396.49,398.92 389.00,399.71
             379.90,400.68 367.06,415.36 360.00,421.25
             346.03,432.89 335.92,436.21 318.00,436.00
             300.41,435.79 289.36,425.61 277.00,414.72
             271.34,409.73 262.40,399.37 254.00,400.62
             245.89,401.83 235.18,413.25 229.00,418.58
             215.42,430.30 204.70,437.41 186.00,436.99
             170.61,436.64 159.07,430.16 148.00,419.91
             142.22,414.56 129.82,402.00 122.00,401.25
             113.65,400.45 101.72,412.57 96.00,417.97
             85.41,427.97 72.07,436.82 57.00,437.00
             37.64,437.22 29.21,434.38 14.00,421.56
             8.69,417.09 2.46,411.32 1.79,404.00
             0.90,394.36 8.48,387.28 18.00,388.11
             24.45,388.67 27.50,392.80 32.00,396.83
             38.37,402.53 45.92,408.67 55.00,407.89
             65.20,407.02 76.57,394.72 84.00,388.17
             93.64,379.67 102.51,375.16 115.00,372.46 Z" />
</svg>
